<?xml version="1.0" standalone="no"?>
<!DOCTYPE svg PUBLIC "-//W3C//DTD SVG 1.1//EN" "http://www.w3.org/Graphics/SVG/1.1/DTD/svg11.dtd" >
<svg>
<metadata>
Created by FontForge 20090914 at Tue Feb  3 06:12:14 2015
 By www-data
Copyright &#194;&#169; 2014 by Vu Designer - All rights reserved.
</metadata>
<defs>
<font id="VDBrevia-Regular" horiz-adv-x="1363" >
  <font-face 
    font-family="VDBrevia Regular"
    font-weight="400"
    font-stretch="normal"
    units-per-em="2048"
    panose-1="2 4 6 3 5 5 6 2 2 4"
    ascent="1638"
    descent="-410"
    x-height="1126"
    cap-height="1393"
    bbox="-57 -349.003 2531 2095"
    underline-thickness="109"
    underline-position="-143"
    unicode-range="U+0020-U+20AC"
  />
<missing-glyph horiz-adv-x="571" 
 />
    <glyph glyph-name=".notdef" horiz-adv-x="571" 
 />
    <glyph glyph-name="space" unicode=" " horiz-adv-x="692" 
 />
    <glyph glyph-name="exclam" unicode="!" horiz-adv-x="659" 
d="M341 561c-2.66699 43.333 -8.33496 102 -17.002 176l-24 201c-10 81.333 -17.333 146 -22 194c-5.33301 66 -7.66602 118 -6.99902 156c0 83.333 35.667 125 107 125c74.667 0 112 -54 112 -162c0.666992 -37.333 -1.66602 -84.333 -6.99902 -141
c-4.66699 -48 -12 -105.333 -22 -172c-6.66699 -50.667 -16 -113.667 -28 -189l-31 -188h-61zM256.999 239c19.333 15.333 52.6689 23 100.002 23s81.333 -7.66699 102 -23c29.333 -21.333 44.666 -62 45.999 -122c0 -57.333 -13.667 -96 -41 -116
c-19.333 -14 -52.333 -21 -99 -21c-48.667 0 -83.334 7 -104.001 21c-28.667 20 -43 58.667 -43 116c-2 60 11 100.667 39 122z" />
    <glyph glyph-name="quotedbl" unicode="&#x22;" horiz-adv-x="909" 
d="M372 950c2.66699 -33.333 -14 -50 -50 -50l-68 -1c-31.333 0 -46.666 19.333 -45.999 58c1.33301 17.333 1.66602 52.333 0.999023 105l-5 393c-2 36 15 54.667 51 56l67 2c32 0.666992 47 -18.333 45 -57v-32zM673 954c2 -31.333 -14.667 -47.668 -50 -49.001l-68 -2
c-32 -1.33301 -47.333 18 -46 58c0.666992 17.333 1 52.333 1 105l-6 392c-2 38 15 57 51 57h68c32 0.666992 47 -17.666 45 -54.999v-31z" />
    <glyph glyph-name="numbersign" unicode="#" horiz-adv-x="1355" 
d="M286 352l-100.002 -2.00098c-30 0 -45 14.333 -45 43v23c0 29.333 10.333 45 31 47c6.66699 0.666992 22 1 46 1l91 -1l108 557h-137c-28.667 0 -43 14.333 -43 43v27c0 25.333 10.333 38 31 38c8 1.33301 26.333 1.66602 55 0.999023l117 -3l41 222
c2.66699 18.667 8.33398 31.334 17.001 38.001c6 4.66699 14 7 24 7h49c26.667 0 37.667 -15.667 33 -47l-43 -220c50 -1.33301 111.667 -2 185 -2h181c9.33301 42.667 18.666 89.334 27.999 140.001l5 27c0.666992 3.33301 1.33398 7.33301 2.00098 12l8 45
c5.33301 30 18.333 45 39 45h54c25.333 0 35.333 -15 30 -45l-43 -224l123 2c36.667 2 55 -13 55 -45v-28c0 -24.667 -16.333 -37 -49 -37h-151l-109 -551h156c31.333 1.33301 47 -13 47 -43v-35c0 -23.333 -16.333 -35 -49 -35l-176 2l-60 -311
c-4 -28.667 -19.667 -43 -47 -43h-37c-26 0 -36 17 -30 51l55 301h-371l-59 -311c-5.33301 -27.333 -21.666 -41 -48.999 -41h-33c-30 0 -41.667 17 -35 51zM797.998 462.999l57 282l52 271l-371 2l-106 -555h368z" />
    <glyph glyph-name="dollar" unicode="$" horiz-adv-x="1128" 
d="M141 186c5.33301 21.333 15.999 39.999 31.999 55.999l23 18c0 -1.33301 7.33301 -8.33301 22 -21c19.333 -17.333 41 -33.333 65 -48c33.333 -20 69.333 -35.667 108 -47c48.667 -14 99.667 -21 153 -21c206.667 0 310 84.667 310 254c0 110 -77.333 187 -232 231
l-201 60c-96.667 28 -170.667 66.333 -222 115c-64.667 61.333 -97 141 -97 239c0 102.667 36.333 190 109 262c75.333 75.333 175 117 299 125v131c0 30 16.333 45 49 45h8c32.667 0 49 -15 49 -45l-2 -129c64.667 -4 122.667 -13.667 174 -29
c40.667 -12 77.667 -28.333 111 -49c54 -36 69 -77.667 45 -125c-4 -8 -9 -15.667 -15 -23c-4.66699 -6 -10 -11.333 -16 -16c-12 -10 -18 -14 -18 -12c0 1.33301 -8 7.33301 -24 18c-20 14 -42.333 26.667 -67 38c-34 16.667 -69.333 29.667 -106 39
c-45.333 12 -91.666 18 -138.999 18c-190 0 -285 -83.333 -285 -250c0 -56.667 24 -103.334 72 -140.001c33.333 -25.333 83.666 -48.333 150.999 -69l201 -59c221.333 -66 330 -191.667 326 -377c-2 -111.333 -41 -201.666 -117 -270.999
c-72 -66.667 -169 -106.667 -291 -120c-0.666992 -39.333 -1 -86.666 -1 -141.999l1 -80c0 -27.333 -15 -41 -45 -41h-27c-29.333 0 -43 16.667 -41 50l2 29v182c-68 1.33301 -133 12.333 -195 33c-49.333 16 -87.333 34.333 -114 55c-47.333 33.333 -65.666 72 -54.999 116
z" />
    <glyph glyph-name="percent" unicode="%" horiz-adv-x="1828" 
d="M227 773c-54 63.333 -81.667 152.334 -83 267.001c-2 108.667 26.333 197 85 265c62.667 72 149 108 259 108c110.667 0 196.667 -35.667 258 -107c56.667 -66.667 85.334 -155.334 86.001 -266.001c1.33301 -109.333 -28.334 -198.333 -89.001 -267
c-62.667 -70 -146.334 -105 -251.001 -105c-117.333 0 -205.666 35 -264.999 105zM669 337.001l182.002 379l286 611c18 44 40 66 66 66h49c40 0 47 -26 21 -78l-110 -225l-364 -764c-60.667 -128 -102 -217.667 -124 -269c-16.667 -38 -43.334 -57 -80.001 -57h-31
c-42 0 -49.333 26 -22 78c25.333 48.667 67.666 135 126.999 259zM643.002 866.001c26.667 43.333 40 101.999 40 175.999c0 72.667 -13.333 130.334 -40 173.001c-33.333 52.667 -84.333 79 -153 79c-74 0 -127.667 -26.333 -161 -79c-26 -42 -39 -99.667 -39 -173
c0 -75.333 13 -134 39 -176c33.333 -53.333 87 -80 161 -80c69.333 0 120.333 26.667 153 80zM1089 617c62 72 148.33 108.002 258.997 108.002c110 0 195.333 -35.667 256 -107c56.667 -66.667 85.334 -155.334 86.001 -266.001
c2.66699 -108.667 -26.666 -197.667 -87.999 -267c-62.667 -70 -146.667 -105 -252 -105c-117.333 0 -205.666 34.667 -264.999 104c-54 64 -81.667 153.333 -83 268c-0.666992 109.333 28.333 197.666 87 264.999zM1189 178.002c33.333 -53.333 86.999 -80 160.999 -80
c69.333 0 120 26.667 152 80c26 43.333 39 102 39 176c0 72 -13.333 129.667 -40 173c-32.667 52.667 -83.667 79 -153 79c-73.333 0 -126.666 -26.333 -159.999 -79c-25.333 -41.333 -38 -99 -38 -173c0 -75.333 13 -134 39 -176z" />
    <glyph glyph-name="ampersand" unicode="&#x26;" horiz-adv-x="1427" 
d="M159 551c26 40.667 62 75.6689 108 105.002c18 11.333 37 22 57 32c16.667 7.33301 33.334 13.666 50.001 18.999c32.667 11.333 49 16 49 14v12c-125.333 108.667 -188 218.667 -188 330c0 98 34 179 102 243c76 71.333 182 107 318 107c46 0 90 -4.66699 132 -14
c35.333 -7.33301 68.666 -18 99.999 -32c24 -10.667 46.667 -23 68 -37l38 -27c21.333 -18 35 -36.667 41 -56c8.66699 -26.667 1.66699 -53.334 -21 -80.001c-6.66699 -8 -15.334 -15.667 -26.001 -23c-10 -6 -15 -8.33301 -15 -7c0 0.666992 -7.33301 7.33398 -22 20.001
c-20 16.667 -41.667 32 -65 46c-32 19.333 -65.333 34.666 -100 45.999c-43.333 14 -87.333 21 -132 21c-165.333 0 -248 -67.667 -248 -203c0 -84.667 45 -168 135 -250l485 -424c31.333 51.333 58.666 110.333 81.999 177c8 24 16 49.333 24 76l15 59
c10.667 32.667 29.334 44.667 56.001 36l75 -24c24 -7.33301 29.667 -33.333 17 -78c-7.33301 -24 -15 -47 -23 -69l-33 -85c-30 -69.333 -64 -132.666 -102 -189.999l195 -168c26.667 -24.667 28 -50 4 -76l-39 -41c-26 -28 -53.333 -30 -82 -6l-180 164
c-59.333 -58.667 -123.333 -104 -192 -136c-79.333 -36.667 -164.333 -55 -255 -55c-147.333 0 -264.666 38.333 -351.999 115c-83.333 73.333 -125 167.666 -125 282.999c0 66 16.333 124.667 49 176zM369 194.002c57.333 -47.333 130 -71.001 218 -71.001
c70 0 135 13.333 195 40c52.667 23.333 101 57 145 101l-411 375c-68 0 -124 -23 -168 -69c-45.333 -47.333 -68 -108.333 -68 -183c0 -79.333 29.667 -143.666 89 -192.999z" />
    <glyph glyph-name="quotesingle" unicode="'" horiz-adv-x="569" 
d="M372 950c2.66699 -33.333 -14 -50 -50 -50l-68 -1c-31.333 0 -46.666 19.333 -45.999 58c1.33301 16.667 1.66602 51.667 0.999023 105l-5 392c-2 36.667 15 55.667 51 57l67 2c32 0 47 -19 45 -57v-32z" />
    <glyph glyph-name="parenleft" unicode="(" horiz-adv-x="747" 
d="M486 -147l-42.9961 47.999c-42.667 50.667 -81.667 106 -117 166c-47.333 80 -84.333 162.333 -111 247c-33.333 104 -50 209 -50 315s16.667 211 50 315c27.333 84.667 64.666 166.334 111.999 245.001c35.333 58.667 74.333 113 117 163l65 69
c28.667 25.333 52.667 31 72 17l47 -33c21.333 -15.333 21.333 -36.666 0 -63.999l-51 -56c-38 -43.333 -71.667 -89.333 -101 -138c-42 -70 -75 -143 -99 -219c-29.333 -96 -44 -195 -44 -297c0 -98.667 14.333 -194.667 43 -288c23.333 -76 55.666 -149 96.999 -219
c29.333 -50.667 62.666 -98.334 99.999 -143.001l55 -61c24 -26.667 22 -51.334 -6 -74.001l-45 -32c-16.667 -15.333 -39.334 -10 -68.001 16c-5.33301 4.66699 -13 12.334 -23 23.001z" />
    <glyph glyph-name="parenright" unicode=")" horiz-adv-x="747" 
d="M166 -45l19.9961 24.002c38 45.333 72 93.666 102 144.999c41.333 71.333 74 145 98 221c28.667 93.333 43 188.666 43 285.999c0 102.667 -14.667 201.334 -44 296.001c-23.333 76 -55.666 148.333 -96.999 217c-29.333 48.667 -63 95 -101 139l-53 58
c-19.333 28.667 -18.666 50.667 2.00098 66l49 35c19.333 12 44 3.66699 74 -25l64 -70c42.667 -51.333 81 -106 115 -164c46.667 -78.667 83.334 -159.667 110.001 -243c32.667 -102.667 49 -206.334 49 -311.001c0 -104 -16.667 -208 -50 -312
c-27.333 -84 -64.666 -166.333 -111.999 -247c-19.333 -32 -40 -63.333 -62 -94l-56 -73l-43 -49l-23 -24c-25.333 -28 -48 -33.333 -68 -16l-47 36c-24 18.667 -26 40.667 -6 66z" />
    <glyph glyph-name="asterisk" unicode="*" horiz-adv-x="956" 
d="M300 762c-29.333 17.333 -24.665 60.333 14.002 129l26 41l69 104l-9 8l-112 -13c-17.333 -2 -33 -3 -47 -3c-76.667 -2.66699 -115 15.666 -115 54.999c0 47.333 38.333 69 115 65l69 -8l60 -10c12.667 -2 22 -3.33301 28 -4l9 9c-6 8.66699 -14.333 19.667 -25 33
l-88 117c-41.333 63.333 -47.333 104 -18 122l10 8c32.667 20 67.334 -2.33301 104.001 -67c12.667 -22 26.667 -51.667 42 -89l34 -81h12l36 122c5.33301 16.667 10.333 31 15 43c27.333 68 59 94.667 95 80l16 -6c34 -13.333 33 -54.333 -3 -123
c-6.66699 -12.667 -15 -27 -25 -43l-51 -81l-19 -33l6 -9c6.66699 0.666992 17 2 31 4l41 6c37.333 5.33301 68.666 8 93.999 8c76 1.33301 114 -19 114 -61c0 -39.333 -32 -58.333 -96 -57c-12 0.666992 -26.333 1.66699 -43 3
c-6.66699 0.666992 -14.334 1.66699 -23.001 3c-6 0.666992 -13.667 1.66699 -23 3l-47 6c-17.333 2 -32 3.33301 -44 4l-4 -9l84 -101l31 -41c47.333 -68.667 54.666 -112 21.999 -130l-14 -6c-28 -15.333 -63 9.66699 -105 75c-32 49.333 -58 102 -78 158h-14
c-9.33301 -51.333 -28.666 -104.666 -57.999 -159.999c-36.667 -70.667 -71.334 -97 -104.001 -79z" />
    <glyph glyph-name="plus" unicode="+" horiz-adv-x="1249" 
d="M532 616c-56.667 -0.666992 -115.666 -1 -176.999 -1l-102 -1c-36.667 0 -55 17.333 -55 52v71c0 32 22.667 47 68 45c15.333 -0.666992 48.333 -1 99 -1l167 -1v295c0 48 17 72 51 72h70c37.333 0 55 -24.667 53 -74c-0.666992 -12 -1.33398 -45 -2.00098 -99v-194
l278 2c44 2 66 -15.667 66 -53v-70c0 -31.333 -22 -46.333 -66 -45c-10 1.33301 -41.667 2 -95 2h-183v-297c1.33301 -43.333 -15.667 -65 -51 -65h-72c-34.667 0 -51 25.333 -49 76v286z" />
    <glyph glyph-name="comma" unicode="," horiz-adv-x="700" 
d="M344 272c110.667 0 165.998 -68.668 165.998 -206.001c0 -132.667 -25.667 -234.667 -77 -306c-42 -58.667 -91.333 -88 -148 -88c-44 0 -70.667 13.667 -80 41c-3.33301 8.66699 -4.66602 18 -3.99902 28l2 13c0 -1.33301 9.33301 1.33398 28 8.00098
c22.667 7.33301 43.334 18 62.001 32c26 20 46.667 44.333 62 73c18.667 36.667 28 79.667 28 129c-120 -13.333 -180 33 -180 139c0 91.333 47 137 141 137z" />
    <glyph glyph-name="hyphen" unicode="-" horiz-adv-x="931" 
d="M212 623c-30 0 -45.001 16.999 -45.001 50.999v53c0 28.667 17 43 51 43l225 1c68.667 0 125.334 0.333008 170.001 1c56 0.666992 92.333 1.33398 109 2.00098c28.667 0 43 -19 43 -57l-2 -49c0 -28.667 -17 -43 -51 -43z" />
    <glyph glyph-name="hyphen" unicode="&#x2010;" horiz-adv-x="931" 
d="M212 623c-30 0 -45.001 16.999 -45.001 50.999v53c0 28.667 17 43 51 43l225 1c68.667 0 125.334 0.333008 170.001 1c56 0.666992 92.333 1.33398 109 2.00098c28.667 0 43 -19 43 -57l-2 -49c0 -28.667 -17 -43 -51 -43z" />
    <glyph glyph-name="period" unicode="." horiz-adv-x="624" 
d="M208 252c20.667 16 55.667 24 105 24c47.333 0 81.333 -8 102 -24c28.667 -22 42.667 -63.667 42 -125c0 -61.333 -13.667 -102.666 -41 -123.999c-19.333 -15.333 -53 -23 -101 -23s-82.333 7.66699 -103 23c-29.333 21.333 -43.333 62.666 -42 123.999
c-2 62 10.667 103.667 38 125z" />
    <glyph glyph-name="slash" unicode="/" horiz-adv-x="739" 
d="M133 0c-44 0 -55.001 27.334 -33.001 82.001c18.667 47.333 49.667 133.333 93 258l250 750l79 237l8 23c2.66699 9.33301 5.66699 16.333 9 21c10 14.667 25.667 22 47 22h37c39.333 0 50 -25.333 32 -76l-205 -598l-67 -201l-62 -188
c-42 -128.667 -69.667 -218.334 -83 -269.001c-11.333 -40.667 -36.666 -61 -75.999 -61h-29z" />
    <glyph glyph-name="zero" unicode="0" horiz-adv-x="1314" 
d="M253 185c-77.333 122.667 -116 293 -116 511c0 214 42.333 384 127 510c92.667 138 227 207 403 207c173.333 0 303.333 -68.667 390 -206c78 -122.667 117.333 -293 118 -511c1.33301 -210 -42 -379.333 -130 -508c-94.667 -138.667 -228 -208 -400 -208
c-175.333 0 -306 68.333 -392 205zM919 298c57.333 104.667 85.998 237.333 85.998 398c0 165.333 -26.333 299 -79 401c-60 115.333 -147 173 -261 173c-119.333 0 -210.666 -57.667 -273.999 -173c-56 -102 -84 -235 -84 -399c0 -161.333 25.333 -293 76 -395
c59.333 -121.333 147.333 -182 264 -182s207.334 59 272.001 177z" />
    <glyph glyph-name="one" unicode="1" horiz-adv-x="913" 
d="M548 272l1 239.999v22l2 422c0.666992 120 1.66699 202 3 246l-336 -180c-32.667 -15.333 -57.667 -8.66602 -75 20.001l-17 27c-18.667 33.333 -13 58.666 17 75.999l454 248h64c25.333 0 41.333 -9.66699 48 -29l5 -29l-1 -95v-922l3 -236c0.666992 -4 1 -7 1 -9
c1.33301 -15.333 1.33301 -27.333 0 -36c-5.33301 -24.667 -24 -37 -56 -37h-58c-24.667 0 -41.334 11 -50.001 33c-4.66699 12.667 -7 34.334 -7 65.001c0.666992 15.333 1.33398 73.333 2.00098 174z" />
    <glyph glyph-name="two" unicode="2" horiz-adv-x="1150" 
d="M132 154l109.001 109l232 216l110 106c77.333 80 135.333 152 174 216c46.667 77.333 70 151 70 221c0 165.333 -94.333 248 -283 248c-44 0 -89 -6.33301 -135 -19c-36.667 -10.667 -73.334 -25 -110.001 -43c-26 -12.667 -50.667 -26.667 -74 -42
c-18 -12 -27 -18.333 -27 -19c0 -1.33301 -3.66699 2 -11 10l-10 13l-10 18c-24 50 -13 91.667 33 125l16 11l25 14c23.333 12.667 48.333 23.667 75 33c33.333 12.667 67.666 22.667 102.999 30c41.333 8 83 12 125 12c134.667 0 242.667 -33 324 -99
c82.667 -68 125.667 -161.333 129 -280c2 -76.667 -21.667 -158.334 -71 -245.001c-40 -71.333 -99 -149 -177 -233c-31.333 -34 -67.333 -70.667 -108 -110l-109 -102l-101 -94c-35.333 -33.333 -64 -61.333 -86 -84v-19l129 1c68.667 0 134 0.333008 196 1
c76 0.666992 136.667 1.33398 182 2.00098c54.667 0.666992 84.334 1.66699 89.001 3c36.667 2 54 -17.333 52 -58v-53c-2 -28.667 -20.667 -43 -56 -43h-743c-39.333 -0 -59 18.333 -59 55z" />
    <glyph glyph-name="three" unicode="3" horiz-adv-x="1189" 
d="M130 188c2 10.667 5.66797 20.3359 11.001 29.0029c4 7.33301 8.66699 13.666 14 18.999l18 14c0 -1.33301 9.66699 -8 29 -20c26 -16 53.667 -30.667 83 -44c41.333 -18 84 -32.333 128 -43c54.667 -13.333 109.667 -20 165 -20c110 0 193.333 27.333 250 82
c49.333 48 74.666 112.667 75.999 194c0 68 -23.333 124 -70 168c-50.667 48 -120.667 72 -210 72h-216c-17.333 0 -26 12.333 -26 37v76c0 17.333 8 26 24 26h203c72.667 0 132 22.667 178 68c48 46.667 72 108 72 184c0 160 -94.333 240 -283 240
c-57.333 0 -112 -6.66699 -164 -20c-41.333 -10 -79.666 -24.333 -114.999 -43c-26 -12.667 -49 -27 -69 -43c-14.667 -11.333 -22 -17.666 -22 -18.999s-3.66699 1.66699 -11 9c-4 4 -7.66699 8 -11 12c-4 6 -7.66699 12 -11 18c-15.333 27.333 -19.333 52.333 -12 75
c4.66699 15.333 15.334 30.666 32.001 45.999c26.667 23.333 72 46 136 68c80 26.667 162.333 40 247 40c154 0 270.333 -37.333 349 -112c68 -65.333 102 -153 102 -263c0 -58.667 -11.333 -111 -34 -157c-17.333 -36.667 -42 -68.667 -74 -96
c-22 -20 -46.333 -36.333 -73 -49c-22.667 -10.667 -34 -15 -34 -13v-12c0 2 13.667 -1.66699 41 -11c32 -11.333 61.667 -26.333 89 -45c38 -26.667 67.667 -59.334 89 -98.001c27.333 -48.667 41 -105.334 41 -170.001c0 -118 -46 -215.333 -138 -292
c-93.333 -76.667 -212 -115 -356 -115c-47.333 0 -95 4 -143 12c-40 6.66699 -79 16 -117 28c-30.667 10 -59.334 21.333 -86.001 34c-20.667 9.33301 -37 18 -49 26c-44.667 27.333 -62.334 63.333 -53.001 108z" />
    <glyph glyph-name="four" unicode="4" horiz-adv-x="1284" 
d="M232 473c-44.667 0 -65.999 28.666 -63.999 85.999l33 639c2 35.333 3.33301 63 4 83l2 40c0 48 17.667 72 53 72h58c38 0 55.667 -20 53 -60l-36 -569c-4.66699 -76 -7 -126 -7 -150h467v428c0 56 18.333 84 55 84h47c46 0 68 -23 66 -69l-2 -439h196
c29.333 2.66699 43 -12.333 41 -45v-53c0 -28.667 -13 -43 -39 -43l-35 1l-165 1v-377l3 -35c1.33301 -14 1 -25 -1 -33c-5.33301 -22.667 -24 -34 -56 -34h-57c-25.333 0 -42 11 -50 33c-4.66699 14 -6.33398 35.667 -5.00098 65v188
c0.666992 70.667 0.666992 134.334 0 191.001z" />
    <glyph glyph-name="five" unicode="5" horiz-adv-x="1208" 
d="M186 250c0 -1.33301 8.99902 -8 26.999 -20c24 -16 50.333 -30.667 79 -44c40.667 -18 83.334 -32.333 128.001 -43c56 -13.333 113.667 -20 173 -20c100.667 0 179 29 235 87c51.333 54 77.666 125.333 78.999 214c0 91.333 -34.333 161 -103 209
c-75.333 53.333 -192.666 80 -351.999 80c-32 0 -71 -2 -117 -6l-82 -7c-34.667 0 -51 22 -49 66l5 201l5 303c0 46 4.66699 76.333 14 91c13.333 21.333 42.333 32 87 32h618c31.333 0 47 -20 47 -60v-43c0 -32.667 -33.333 -49 -100 -49h-504l-10 -389
c101.333 6 191.333 4.33301 270 -5c88.667 -10 164 -30 226 -60c142 -68.667 213 -189.667 213 -363c0 -130.667 -42.333 -236.667 -127 -318c-88 -84 -206.333 -126 -355 -126c-138 0 -249.333 19.333 -334 58c-76.667 36 -114 79.333 -112 130c-4 42.667 9 70 39 82z" />
    <glyph glyph-name="six" unicode="6" horiz-adv-x="1257" 
d="M293 1170c54 76.667 119 135.333 195 176c81.333 44.667 172.666 67 273.999 67c61.333 0 120 -6.66699 176 -20c42 -10.667 78.667 -23.667 110 -39c42.667 -24.667 51.667 -61.667 27 -111l-13 -21l-13 -15c-8.66699 -8.66699 -13 -12.334 -13 -11.001
c0 5.33301 -25.333 17.666 -76 36.999c-28 10.667 -57.333 19 -88 25c-38 8 -77 12 -117 12c-75.333 0 -144 -18 -206 -54c-56 -32.667 -104.333 -78.667 -145 -138c-75.333 -110.667 -113 -239.334 -113 -386.001h16c0 2.66699 6.66699 12.334 20 29.001
c18.667 22.667 40.334 43.334 65.001 62.001c34 26.667 72 47.667 114 63c51.333 18.667 107.333 28 168 28c123.333 0 227.333 -35 312 -105c94.667 -79.333 142 -187.666 142 -324.999c0 -130 -46 -240 -138 -330c-91.333 -89.333 -203 -134 -335 -134
c-345.333 0 -518 216.333 -518 649c0 214.667 52 395 156 541zM422 202.999c62 -53.333 139.666 -79.999 232.999 -79.999c96 0 172 32 228 96c51.333 59.333 77 134.333 77 225c0 97.333 -32.667 173.333 -98 228c-59.333 48.667 -133.666 73 -222.999 73
c-104.667 1.33301 -186 -31.667 -244 -99c-49.333 -56.667 -74 -125.334 -74 -206.001c0 -99.333 33.667 -178.333 101 -237z" />
    <glyph glyph-name="seven" unicode="7" horiz-adv-x="1114" 
d="M302 317l88.001 159l254 418l25 40l113 181l70 116v12l-132 -1l-550 -1c-32 0 -47 19 -45 57l2 50c2 30 19.667 45 53 45h797c35.333 0 53 -19.333 53 -58v-84l-265 -439l-96 -166c-68.667 -121.333 -126.667 -229 -174 -323c-55.333 -109.333 -96 -199.333 -122 -270
c-12.667 -35.333 -32.334 -53 -59.001 -53h-74c-40 -0 -56.333 20.333 -49 61c16 60.667 53 146 111 256z" />
    <glyph glyph-name="eight" unicode="8" horiz-adv-x="1261" 
d="M164 564c22.667 39.333 53.6689 73.666 93.002 102.999c28.667 20.667 60 37.667 94 51c28 10.667 42 15 42 13v12c0 -1.33301 -10.667 3.66699 -32 15c-25.333 14 -48.333 30.333 -69 49c-30 26.667 -53.333 56.667 -70 90c-21.333 42 -32 87.667 -32 137
c0 108.667 35.667 196.667 107 264c79.333 76 192.666 114.333 339.999 115c151.333 0 266 -37.333 344 -112c69.333 -66 104 -155 104 -267c0 -49.333 -11 -95 -33 -137c-18 -33.333 -42.333 -63.333 -73 -90c-22.667 -18.667 -47 -35 -73 -49
c-22.667 -11.333 -34 -16.333 -34 -15v-12c0 2 14 -2.33301 42 -13c33.333 -13.333 63.666 -30.333 90.999 -51c39.333 -29.333 70 -63.666 92 -102.999c28 -50 42 -107 42 -171c0 -121.333 -46.333 -220.333 -139 -297c-93.333 -77.333 -214.333 -116 -363 -116
c-156.667 0 -282 38.667 -376 116c-92 75.333 -138 174.333 -138 297c-0.666992 64 13 121 41 171zM844.002 866c47.333 44 71 100 71 168c0 157.333 -92.667 236 -278 236c-184.667 0 -277 -78.667 -277 -236c0 -68.667 22.333 -124.667 67 -168
c49.333 -47.333 119.333 -71 210 -71c87.333 0 156.333 23.667 207 71zM637.002 123c222.667 0 334 92.666 334 277.999c-1.33301 78.667 -27.333 141.334 -78 188.001c-58 54 -143.333 81 -256 81c-112 0 -199 -27.333 -261 -82c-55.333 -48.667 -83 -111.667 -83 -189
c2 -184 116.667 -276 344 -276z" />
    <glyph glyph-name="nine" unicode="9" horiz-adv-x="1261" 
d="M203 150c3.33301 8.66699 7.33008 16.667 11.9971 24c4 6 8.66699 11.667 14 17c10 10 15 14 15 12c0 -0.666992 6.33301 -5 19 -13l23 -14c10.667 -5.33301 21.334 -10.333 32.001 -15c28 -12.667 57.667 -22.334 89 -29.001c38.667 -8.66699 78.334 -13 119.001 -13
c82 0 153.333 19 214 57c54 33.333 99 81 135 143c32 54.667 55.667 118 71 190c14 62.667 21 128 21 196h-17c0 -2.66699 -6.66699 -12.667 -20 -30c-18.667 -24 -40 -46 -64 -66c-33.333 -27.333 -70 -49 -110 -65c-50 -20 -103.333 -30 -160 -30
c-143.333 0 -256.666 39.333 -339.999 118c-83.333 79.333 -125 187.333 -125 324c1.33301 124.667 41 229.334 119 314.001c88 95.333 208.667 143 362 143c341.333 0 512 -229.333 512 -688c0 -95.333 -10.667 -185.333 -32 -270c-24 -92 -59 -171.667 -105 -239
c-50.667 -74.667 -113 -131.667 -187 -171c-80.667 -43.333 -173.334 -65 -278.001 -65c-74 0 -139.667 8.33301 -197 25c-41.333 12.667 -74.666 28 -99.999 46c-28 24 -35.333 57 -22 99zM852.997 739c52.667 56 78.998 124.332 78.998 204.999
c0.666992 102 -29.666 182.333 -90.999 241c-58.667 56.667 -135.667 85 -231 85c-100 0 -178 -31 -234 -93c-51.333 -57.333 -77.666 -131.666 -78.999 -222.999c0 -96.667 31.333 -173 94 -229c58.667 -52 135 -78.667 229 -80c97.333 0 175 31.333 233 94z" />
    <glyph glyph-name="colon" unicode=":" horiz-adv-x="624" 
d="M218 880c-27.333 22 -40.333 62.333 -39 121c-2 59.333 10 100 36 122c19.333 16 52.333 24 99 24c44 0 76 -8 96 -24c27.333 -22 41 -62.667 41 -122c0 -58.667 -13 -99 -39 -121c-19.333 -16 -51.333 -24 -96 -24c-45.333 0 -78 8 -98 24zM215 244
c19.333 16 52.332 24.002 98.999 24.002c45.333 0 78 -8 98 -24c27.333 -22 40.333 -62.333 39 -121c0 -58.667 -12.667 -98.334 -38 -119.001c-19.333 -16 -51.666 -24 -96.999 -24s-78 8 -98 24c-27.333 21.333 -40.333 61 -39 119c-2 59.333 10 99.666 36 120.999z" />
    <glyph glyph-name="semicolon" unicode=";" horiz-adv-x="622" 
d="M218 880c-27.333 22 -40.333 62.333 -39 121c-2 59.333 10 100 36 122c19.333 16 52.333 24 99 24c44 0 76 -8 96 -24c27.333 -22 41 -62.667 41 -122c0 -58.667 -13 -99 -39 -121c-19.333 -16 -51.333 -24 -96 -24c-45.333 0 -78 8 -98 24zM328 256
c106.667 0 160.001 -67.001 160.001 -201.001c0 -126 -24.333 -224 -73 -294c-40.667 -59.333 -89.334 -89 -146.001 -89c-42 0 -68 13.333 -78 40c-2.66699 8.66699 -4 18 -4 28l2 12c0 -1.33301 9.33301 1.33398 28 8.00098c22 7.33301 42 18 60 32
c26 19.333 46.333 43.333 61 72c18 35.333 27 77.333 27 126c-116 -14 -174 30.333 -174 133c0 88.667 45.667 133 137 133z" />
    <glyph glyph-name="less" unicode="&#x3c;" horiz-adv-x="1249" 
d="M237 539l0.000976562 52.999c0 38 16.333 68.667 49 92c25.333 17.333 68.333 48.333 129 93l181 135l168 128c50 38.667 79.667 62 89 70c48.667 40 85.667 38 111 -6l29 -51c20 -38 3.66699 -75.667 -49 -113c-134 -86.667 -306.333 -209.667 -517 -369v-16l134 -98
l161 -114l224 -155c53.333 -37.333 69.666 -74.666 48.999 -111.999l-29 -51c-25.333 -44.667 -62.333 -47 -111 -7c-9.33301 8.66699 -39.333 32 -90 70l-168 128l-182 135c-60.667 45.333 -103.667 76.333 -129 93c-32.667 23.333 -49 55 -49 95z" />
    <glyph glyph-name="equal" unicode="=" horiz-adv-x="1249" 
d="M323 842c-39.333 -2 -59 15 -59 51v68c0 31.333 22.667 46.333 68 45c20 -1.33301 61 -2 123 -2l462 2c42.667 1.33301 64.667 -16 66 -52l2 -67c0 -32 -22.667 -47 -68 -45l-37 1zM325 391c-36.667 -1.33301 -55.668 15.668 -57.001 51.001l-2 68
c-1.33301 32 21.334 47 68.001 45c20.667 -0.666992 62 -1.33398 124 -2.00098l461 2c44 2 66 -15 66 -51v-68c0 -32 -22 -47 -66 -45l-36 1z" />
    <glyph glyph-name="greater" unicode="&#x3e;" horiz-adv-x="1249" 
d="M270 76c-20.667 37.333 -3.99902 74.666 50.001 111.999c31.333 20.667 105.666 72.334 222.999 155.001l161 114l134 98v16c-210.667 159.333 -382.667 282.333 -516 369c-53.333 37.333 -70 75 -50 113l29 51c25.333 44 62.333 46 111 6c9.33301 -8 39 -31.333 89 -70
l168 -128l181 -135c60.667 -44.667 103.667 -75.667 129 -93c32.667 -23.333 49 -54 49 -92v-53c0 -40 -16.333 -71.667 -49 -95c-25.333 -16.667 -68.333 -47.667 -129 -93l-182 -135l-168 -128c-50.667 -38 -80.667 -61.333 -90 -70c-48.667 -40 -85.667 -37.667 -111 7z
" />
    <glyph glyph-name="question" unicode="?" horiz-adv-x="997" 
d="M445 602c0 31.333 15.666 67.3301 46.999 107.997c12.667 16 29 34.667 49 56l56 57c22.667 23.333 41 43.333 55 60c20 22 36.333 42.667 49 62c31.333 48 47 94 47 138c0 124.667 -73 187 -219 187c-43.333 0 -85.666 -6.66699 -126.999 -20
c-33.333 -10.667 -65.333 -25.334 -96 -44.001c-22 -13.333 -42.333 -27.666 -61 -42.999c-14 -12.667 -21 -19.334 -21 -20.001c0 -1.33301 -5.33301 3 -16 13l-15 15c-5.33301 6.66699 -10 13.334 -14 20.001c-24 38.667 -20.667 73.667 10 105
c30 31.333 74.333 58 133 80c66 24.667 135 37 207 37c264 0 393.667 -110 389 -330c-0.666992 -54.667 -17.334 -110.334 -50.001 -167.001c-23.333 -40.667 -59 -87.667 -107 -141l-57 -62c-22 -23.333 -39 -42.666 -51 -57.999
c-33.333 -41.333 -50.666 -76.666 -51.999 -105.999c0 -1.33301 -7.66699 -4.66602 -23 -9.99902c-8 -3.33301 -16 -5.66602 -24 -6.99902c-10 -2.66699 -19.667 -4 -29 -4c-53.333 0 -80 24.667 -80 74zM409.999 238.997c19.333 15.333 52.332 22.999 98.999 22.999
c47.333 0 81.333 -7.66699 102 -23c29.333 -21.333 45 -62 47 -122c0 -57.333 -13.667 -96 -41 -116c-19.333 -14 -52.666 -21 -99.999 -21c-48 0 -82.333 7 -103 21c-28.667 20.667 -43 59.334 -43 116.001c-1.33301 60 11.667 100.667 39 122z" />
    <glyph glyph-name="at" unicode="@" horiz-adv-x="2134" 
d="M431 1183c170.667 180.667 400.667 271.002 690 271.002c236.667 0 432 -63.333 586 -190c160.667 -133.333 244 -311.666 250 -534.999c3.33301 -107.333 -8 -204 -34 -290c-23.333 -75.333 -57.333 -140 -102 -194c-78.667 -95.333 -170 -143 -274 -143
c-76.667 0 -130.667 24.333 -162 73c-22.667 34 -33.334 79.333 -32.001 136h-15c-4 -14 -14 -31.333 -30 -52c-19.333 -25.333 -42.666 -48.666 -69.999 -69.999c-33.333 -26 -69.666 -46.333 -108.999 -61c-46.667 -17.333 -95.667 -26 -147 -26
c-126.667 0 -226.667 40 -300 120c-74.667 80.667 -112 190.334 -112 329.001c0 169.333 57.333 311.666 172 426.999c112.667 112.667 248 169 406 169c138 0 236.333 -34.667 295 -104c48.667 -56.667 72 -140 70 -250c-0.666992 -40 -1.66699 -86.333 -3 -139l-6 -302
c2.66699 -77.333 21.334 -116 56.001 -116c62.667 0 120 36.667 172 110c30 42 52.667 92.667 68 152c18 68 25.333 145 22 231c-6 190 -76.667 340 -212 450c-127.333 102.667 -288.333 154 -483 154c-252 0 -451 -79 -597 -237c-138.667 -150 -203.667 -340.667 -195 -572
c3.33301 -102.667 21 -194.334 53 -275.001c28.667 -70.667 67.667 -131.334 117 -182.001c43.333 -44.667 92.666 -79.334 147.999 -104.001c48.667 -22 98.334 -35 149.001 -39l18 -1c7.33301 -1.33301 13.333 -3 18 -5c12.667 -6.66699 19 -20.334 19 -41.001l-2 -41
c0 -18 -5.66699 -30 -17 -36c-4.66699 -2 -10.334 -3.33301 -17.001 -4l-17 -1c-59.333 0 -120 12 -182 36c-71.333 28 -135.333 68.333 -192 121c-66 61.333 -118 136.333 -156 225c-43.333 101.333 -67.333 217 -72 347c-10.667 265.333 65.666 485 228.999 659z
M811 324.002c48.667 -58.667 114 -87.999 196 -87.999s156.667 30.333 224 91c56.667 50 96 107 118 171c2.66699 71.333 4 126.666 4 165.999v133c0 143.333 -66.333 215 -199 215c-116.667 0 -214.667 -43.667 -294 -131c-80 -88 -120 -198 -120 -330
c0 -94 23.667 -169.667 71 -227z" />
    <glyph glyph-name="A" unicode="A" 
d="M183 289l387.999 1032c15.333 48 47.333 72 96 72h68c50 0 84.667 -28 104 -84l459 -1250c10.667 -39.333 -5 -59 -47 -59h-41c-14.667 0 -26.667 2 -36 6c-8 3.33301 -14.667 8.33301 -20 15c-4 5.33301 -7.33301 12 -10 20l-3 9l-3 9l-21 53l-61 159l-32 81h-650
l-35 -93l-75 -196c-12.667 -42 -36 -63 -70 -63h-61c-37.333 0 -47.666 22 -30.999 66c6 19.333 33 93.666 81 222.999zM982.999 481.001l-170 465c-56 156 -92.333 259 -109 309h-12l-106 -307l-83 -229l-90 -238h570z" />
    <glyph glyph-name="B" unicode="B" horiz-adv-x="1353" 
d="M213 327l-2.99805 994c0 27.333 4 45 12 53c11.333 12.667 36.666 19 75.999 19h385c167.333 0 292.666 -34 375.999 -102c74.667 -60 112 -143 112 -249c0 -59.333 -13.667 -112 -41 -158c-22 -36.667 -52.333 -68.334 -91 -95.001c-27.333 -18.667 -57.333 -34 -90 -46
c-27.333 -10 -41 -14 -41 -12v-12c0 2 16.667 -1 50 -9c17.333 -4 34.333 -9 51 -15c20.667 -8 40 -17 58 -27c46 -26 82 -59 108 -99c32.667 -49.333 49 -108.666 49 -177.999c0 -119.333 -41.333 -213 -124 -281c-90 -73.333 -222 -110 -396 -110h-422
c-30 -0 -50.667 10.333 -62 31c-6.66699 13.333 -10 34.333 -10 63c1.33301 25.333 2.33301 103 3 233zM683.002 782c212 0 318 84.667 318 254c0 72.667 -30.667 128.667 -92 168c-56.667 37.333 -132.667 56 -228 56h-305v-478h307zM704.002 133
c102 0 183.333 20.333 244 61c69.333 46 104 113.667 104 203c0 168 -116 252 -348 252h-328v-516h328z" />
    <glyph glyph-name="C" unicode="C" horiz-adv-x="1347" 
d="M301 1205c117.333 138.667 283 207.996 497 207.996c89.333 0 171.333 -11.667 246 -35c27.333 -9.33301 53 -19.666 77 -30.999l50 -28c51.333 -34.667 54.666 -77.667 9.99902 -129c-6.66699 -9.33301 -14.667 -17.333 -24 -24
c-7.33301 -5.33301 -11 -7.66602 -11 -6.99902c0 1.33301 -7.66699 7 -23 17c-20 14 -42.333 26.667 -67 38c-34 16.667 -70.333 29.334 -109 38.001c-48.667 12 -99 18 -151 18c-157.333 0 -279.333 -55 -366 -165c-80.667 -102 -121 -237.667 -121 -407
c0 -168 43.333 -305 130 -411c89.333 -109.333 208.333 -164 357 -164c60 0 116 8.33301 168 25c39.333 12.667 75.333 29.667 108 51c30 18.667 52.667 15 68 -11l33 -51c16.667 -24 13.334 -44.333 -9.99902 -61c-11.333 -8.66699 -26 -17.667 -44 -27
c-22.667 -12 -48 -22.667 -76 -32c-74.667 -24.667 -157 -37 -247 -37c-213.333 0 -378 67.667 -494 203c-108 126.667 -162.333 297.667 -163 513c-1.33301 210.667 52.667 380.334 162 509.001z" />
    <glyph glyph-name="D" unicode="D" horiz-adv-x="1466" 
d="M213 316l-1 966c0 74 26 111 78 111h291c263.333 0 457.333 -65 582 -195c110.667 -115.333 165 -279 163 -491c-0.666992 -222.667 -55.667 -392.334 -165 -509.001c-123.333 -132 -317.333 -198 -582 -198h-293c-50.667 0 -76 32.667 -76 98
c1.33301 24.667 2.33301 97.334 3 218.001zM583 133c216 0 370.002 56.332 462.002 168.999c40 49.333 69 110.333 87 183c16 63.333 24 138 24 224c-0.666992 78.667 -9.33398 148.334 -26.001 209.001c-18.667 69.333 -48.334 128 -89.001 176
c-93.333 110.667 -245.333 166 -456 166h-207c-1.33301 -144 -2.33301 -323.333 -3 -538l1 -589h207z" />
    <glyph glyph-name="E" unicode="E" horiz-adv-x="1253" 
d="M216 324l-8 995.001c0 14.667 1.33301 26.667 4 36c7.33301 25.333 27.333 38 60 38h776c34.667 0 52 -18.667 52 -56v-43c0 -34 -17.333 -51 -52 -51h-671v-483l585 2c27.333 2.66699 41 -12.333 41 -45v-55c0 -26 -13 -39 -39 -39h-587v-249
c0 -88.667 0.666992 -163.334 2 -224.001h371c75.333 0 137 0.333008 185 1c56.667 0.666992 93.667 1.66699 111 3c34.667 2 52 -16.667 52 -56v-55c0 -28.667 -17.333 -43 -52 -43h-770c-44 0 -64.333 32.667 -61 98c0.666992 24.667 1 100 1 226z" />
    <glyph glyph-name="F" unicode="F" horiz-adv-x="1189" 
d="M213 1282c0 74 28 111 84 111h705c40.667 0 61 -20 61 -60v-37c0 -36.667 -21.667 -55 -65 -55h-623v-506l248 1h21l299 1c42 0 63 -15.667 63 -47v-47c0 -34.667 -15 -51 -45 -49h-259c-132 0 -240.333 -0.666992 -325 -2l4 -486c6 -70.667 -11 -106 -51 -106h-55
c-43.333 0 -63 34 -59 102z" />
    <glyph glyph-name="G" unicode="G" horiz-adv-x="1478" 
d="M307 1208c118 136.667 277.667 205.001 479 205.001c56 0 109.333 -3.66699 160 -11c42.667 -6 83 -14.667 121 -26c30 -9.33301 58 -20 84 -32c10 -4.66699 19.667 -9.66699 29 -15l21 -12c24.667 -12.667 40.667 -29 48 -49
c9.33301 -25.333 1.66602 -52.666 -23.001 -81.999c-4 -5.33301 -8.66699 -10.333 -14 -15l-13 -11c-9.33301 -6.66699 -14 -9.66699 -14 -9c0 1.33301 -8.66699 7.66602 -26 18.999c-22.667 14.667 -48 28 -76 40c-39.333 17.333 -80.666 31 -123.999 41
c-54.667 12.667 -111 19 -169 19c-142.667 0 -257.667 -49.667 -345 -149c-90.667 -102.667 -136 -242.334 -136 -419.001c0 -190 44 -336.333 132 -439c80.667 -93.333 186 -140 316 -140c96.667 0 177 25.333 241 76c51.333 41.333 91 97.666 119 168.999
c20 50.667 33.333 106.667 40 168l2 31c0.666992 8.66699 1 16.667 1 24l1 21l-336 2c-22 0 -33 11 -33 33l-2 74c0 22 13 33 39 33h442c35.333 0 53 -18.667 53 -56c-2 -48.667 -4.66699 -150.667 -8 -306l-3 -201c-0.666992 -64.667 -0.333984 -105 0.999023 -121
c2 -46.667 -12.333 -70 -43 -70h-70c-31.333 0 -47 18.333 -47 55l8 131l1 35h-19c0 -3.33301 -6.66699 -16 -20 -38c-19.333 -30 -42 -57.667 -68 -83c-36.667 -35.333 -78 -63 -124 -83c-58 -24.667 -121.667 -37 -191 -37c-199.333 0 -351.666 68.667 -456.999 206
c-96 125.333 -144.333 295.333 -145 510c-1.33301 210.667 54.667 381.334 168 512.001z" />
    <glyph glyph-name="H" unicode="H" horiz-adv-x="1591" 
d="M216 718l0.00195312 12.999l-2 569v10l-1 9c-1.33301 15.333 -1 27.333 1 36c4 25.333 22.333 38 55 38h59c40 0 58.333 -32.333 55 -97l-1 -58l-1 -482h828l-1 544c0 2 -0.333008 5.33301 -1 10l-1 9c-0.666992 15.333 -0.333984 27.333 0.999023 36
c4 25.333 22.333 38 55 38h59c40 0 58.667 -32.333 56 -97v-979c1.33301 -122.667 2.66602 -192 3.99902 -208l2 -36c0.666992 -15.333 0 -27.333 -2 -36c-4.66699 -24.667 -23.334 -37 -56.001 -37h-59c-41.333 0 -60.333 32.667 -57 98c0.666992 21.333 1 84.333 1 189
l1 331h-830c0.666992 -72 1.33398 -131.667 2.00098 -179c0.666992 -61.333 1 -113 1 -155c1.33301 -101.333 2.33301 -159.666 3 -174.999l3 -36c1.33301 -14.667 1 -26.667 -1 -36c-5.33301 -24.667 -24.333 -37 -57 -37h-57c-44.667 0 -64 32.667 -58 98z" />
    <glyph glyph-name="I" unicode="I" horiz-adv-x="641" 
d="M232 1310l-0.998047 27.999c0 6.66699 0.666992 12.334 2 17.001c4.66699 25.333 23 38 55 38h57c41.333 0 60.666 -32.333 57.999 -97l-4 -424l4 -763l2 -27c0 -4 0.333008 -7 1 -9c1.33301 -15.333 1 -27.333 -1 -36c-4.66699 -24.667 -23.334 -37 -56.001 -37h-55
c-41.333 0 -60.333 32.667 -57 98z" />
    <glyph glyph-name="J" unicode="J" horiz-adv-x="1071" 
d="M85 147c-22.667 34 -24.667 58 -6 72l49 45c24 19.333 45.667 16.666 65 -8.00098l14 -16c6.66699 -7.33301 13 -13.666 19 -18.999c16.667 -17.333 34 -32.333 52 -45c52.667 -35.333 111.667 -53 177 -53c174 0 263 102.333 267 307l3 287l-1 602
c-2.66699 49.333 15 74 53 74h57c25.333 0 42 -10.667 50 -32c5.33301 -12.667 8 -34.334 8 -65.001l-5 -864c0 -301.333 -144 -452 -432 -452c-50.667 0 -99 6.66699 -145 20c-38.667 11.333 -75 27 -109 47c-26.667 16.667 -51.667 35.334 -75 56.001l-24 25z" />
    <glyph glyph-name="K" unicode="K" horiz-adv-x="1404" 
d="M210 320l-1 991v13c-0.666992 14.667 0 26 2 34c5.33301 23.333 23 35 53 35h59c38 0 57 -30 57 -90l-6 -539h283c174.667 214.667 327.334 410 458.001 586c20 28.667 43.333 43 70 43h88c16 0 27.667 -5.66699 35 -17c7.33301 -12 6.66602 -25 -2.00098 -39l-96 -117
l-144 -177l-151 -192c-52 -66 -91.667 -118.333 -119 -157l97 -134l121 -162l175 -228c26 -31.333 71 -47 135 -47c23.333 -95.333 -11.334 -143 -104.001 -143c-63.333 0 -120.666 34 -171.999 102l-402 549h-272l5 -545v-18c0 -13.333 -1.33301 -24.333 -4 -33
c-7.33301 -23.333 -24 -35 -50 -35h-59c-38.667 0 -58 30.667 -58 92c1.33301 25.333 2 101.333 2 228z" />
    <glyph glyph-name="L" unicode="L" horiz-adv-x="1183" 
d="M210 1218c-0.666992 29.333 -1.33203 56 -1.99902 80c0 63.333 15.667 95 47 95h64c28.667 0 46 -13.667 52 -41c2 -10 2.66699 -23 2 -39l-3 -150l4 -1013h360c71.333 0 129.333 0.333008 174 1c53.333 0.666992 87.666 1.66699 102.999 3c36.667 4 55 -14 55 -54v-47
c0 -35.333 -17.667 -53 -53 -53h-729c-48 0 -72 32 -72 96z" />
    <glyph glyph-name="M" unicode="M" horiz-adv-x="1873" 
d="M286 1325c0 45.333 20.334 68.001 61.001 68.001h117c8.66699 0 16.334 -0.666992 23.001 -2c8 -1.33301 15.333 -3.66602 22 -6.99902c16 -8.66699 28.333 -23.667 37 -45c5.33301 -16 28.666 -76.333 69.999 -181l315 -783h14l312 781c41.333 104 65 164.333 71 181
c12 37.333 42.667 56 92 56h109c32.667 0 53.667 -10.667 63 -32c4 -8 6.66699 -18.333 8 -31l95 -1266c0 -3.33301 0.333008 -6 1 -8c1.33301 -12.667 1 -22.334 -1 -29.001c-4.66699 -18 -23.334 -27 -56.001 -27h-57c-26.667 0 -43.334 8.66699 -50.001 26
c-2.66699 6 -4 14.667 -4 26l-1 30l-74 1139h-14c-10 -28 -34.333 -91.667 -73 -191l-292 -745c-18 -41.333 -46.667 -62 -86 -62h-96c-44 0 -74 18.667 -90 56c-2 6 -8.33301 22.667 -19 50l-278 707c-38.667 99.333 -62 161.666 -70 186.999h-10l-26 -450l-23 -347
l-21 -346c0 -53.333 -17 -80 -51 -80h-61c-43.333 -0 -62.666 25.333 -57.999 76z" />
    <glyph glyph-name="N" unicode="N" horiz-adv-x="1556" 
d="M211 1315c2 52 25.6689 78.002 71.002 78.002h74l809 -1026h16l-7 985c0.666992 7.33301 2.66699 13.666 6 18.999c8 14.667 23.333 22 46 22h60c25.333 0 42.333 -10.667 51 -32c5.33301 -13.333 8 -35 8 -65l-2 -988c0.666992 -116.667 1.33398 -183 2.00098 -199
l3 -27v-9c1.33301 -15.333 1.33301 -27.333 0 -36c-4.66699 -24.667 -23.334 -37 -56.001 -37h-59c-22.667 0 -38.334 10.333 -47.001 31l-13 57c-1.33301 7.33301 -12 26 -32 56c-18.667 27.333 -45 63.666 -79 108.999l-244 313l-136 171l-291 369h-21l15 -1033
c0.666992 -15.333 0 -27.333 -2 -36c-4.66699 -24.667 -23.334 -37 -56.001 -37h-57c-41.333 0 -60.333 32.667 -57 98z" />
    <glyph glyph-name="O" unicode="O" horiz-adv-x="1513" 
d="M293 1206c112 138 269.332 207 471.999 207c190.667 0 341.334 -68.667 452.001 -206c104.667 -130.667 157.667 -301 159 -511c2 -210.667 -50.667 -381.334 -158 -512.001c-112 -136 -265 -204 -459 -204c-205.333 0 -362 68 -470 204
c-99.333 124.667 -149.333 295.334 -150 512.001c-1.33301 211.333 50 381.333 154 510zM409.999 296c78 -115.333 195 -172.999 351 -172.999c149.333 0 263 58.333 341 175c69.333 102.667 104 236 104 400c0 167.333 -34.333 301 -103 401
c-77.333 114 -191.333 171 -342 171c-154.667 0 -271 -57 -349 -171c-67.333 -98.667 -101 -232.334 -101 -401.001c-1.33301 -168 31.667 -302 99 -402z" />
    <glyph glyph-name="P" unicode="P" horiz-adv-x="1349" 
d="M216 324l0.000976562 995c-0.666992 15.333 0.333008 27.333 3 36c7.33301 25.333 27.666 38 60.999 38h400c176 0 313.667 -45 413 -135c93.333 -84.667 140.666 -196.667 141.999 -336c0.666992 -140.667 -47 -255 -143 -343c-100.667 -92.667 -236.667 -139 -408 -139
h-301v-281l4 -77c0.666992 -4 1 -7 1 -9c1.33301 -15.333 1 -27.333 -1 -36c-5.33301 -24.667 -24.666 -37 -57.999 -37h-57c-41.333 0 -60.333 32.667 -57 98c0.666992 24 1 99.333 1 226zM680.001 571c256.667 0 385 114 385 342c0.666992 105.333 -31 188.333 -95 249
c-67.333 65.333 -164 98 -290 98h-299c-1.33301 -22 -2 -67 -2 -135c0.666992 -28 1 -61.333 1 -100l3 -454h297z" />
    <glyph glyph-name="Q" unicode="Q" horiz-adv-x="1517" 
d="M294 1202c114 140.667 273.334 211.003 478.001 211.003c185.333 0 333.666 -64.333 444.999 -193c106 -122.667 159 -279.334 159 -470.001c0 -112 -19 -215.667 -57 -311c-30.667 -76 -72.667 -145 -126 -207c-38.667 -44.667 -80.667 -83.334 -126 -116.001
c-8 -6 -16 -11.333 -24 -16l-34 -20c67.333 -81.333 133.666 -144.333 198.999 -189c73.333 -50.667 143 -76.334 209 -77.001c19.333 -94.667 -17 -142 -109 -142c-61.333 0 -126 26.333 -194 79c-84 65.333 -168.667 168 -254 308h-12l-5 -12
c-4.66699 -10 -10.667 -19.333 -18 -28c-24 -26 -57.333 -39 -100 -39c-147.333 0 -279 62 -395 186c-59.333 64 -105.666 139 -138.999 225c-36 93.333 -54 195 -54 305c0 208 52.333 376.667 157 506zM480.001 252.003c100 -94 223.333 -140.333 370 -139l15 8
c5.33301 2.66699 11 6 17 10l23 15c44 30 84.667 66 122 108c51.333 58 92 123.333 122 196c36.667 91.333 55 191.333 55 300c0 144 -32.333 262.333 -97 355c-76 110 -188.333 165 -337 165c-158.667 0 -277.667 -57.667 -357 -173c-69.333 -100 -104 -233.667 -104 -401
c0 -190 57 -338 171 -444z" />
    <glyph glyph-name="R" unicode="R" horiz-adv-x="1404" 
d="M211 318l1.00195 972.001c0 68.667 27.333 103 82 103h416c165.333 0 295 -43 389 -129c88 -80.667 133 -188 135 -322c0 -113.333 -37.333 -210 -112 -290c-62 -67.333 -140 -114 -234 -140l258 -342c22.667 -31.333 65 -47 127 -47c26 -95.333 -7.33301 -143 -100 -143
c-40.667 0 -74.334 9.33301 -101.001 28c-18.667 13.333 -41 38.666 -67 75.999l-283 403h-348l-2 -316c0 -41.333 0.666992 -71 2 -89c3.33301 -54.667 -14.334 -82 -53.001 -82h-54c-38 0 -57 30 -57 90zM712.002 616.001c104.667 0 188.667 27.668 252 83.001
c67.333 58.667 100 139.667 98 243c0 85.333 -28.667 157.666 -86 216.999c-65.333 67.333 -154 101 -266 101h-336l-2 -644h340z" />
    <glyph glyph-name="S" unicode="S" horiz-adv-x="1202" 
d="M149 186c3.33301 20.667 14.002 38.667 32.002 54l25 16c0 -1.33301 7.66699 -8.33301 23 -21c20.667 -16.667 43.667 -32 69 -46c36 -19.333 74.333 -34.333 115 -45c50.667 -14 104 -21 160 -21c234.667 0 352 84.667 352 254c0 112 -84 189 -252 231l-223 60
c-48.667 12.667 -91.334 27.334 -128.001 44.001c-43.333 19.333 -80 42 -110 68c-70.667 60 -106 139.333 -106 238c0 113.333 42.667 206.666 128 279.999c90 76.667 210.333 115 361 115c83.333 0 158.333 -8.66699 225 -26c50 -12.667 96 -30.667 138 -54
c58 -36.667 75 -77.667 51 -123c-4 -8 -9.33301 -16 -16 -24c-4.66699 -5.33301 -10 -10.666 -16 -15.999c-12.667 -10.667 -19 -15 -19 -13c0 1.33301 -8.33301 7.33301 -25 18c-22 14 -46 26.667 -72 38c-36 16.667 -74 29.667 -114 39c-49.333 12 -100 18 -152 18
c-212.667 0 -319 -83.333 -319 -250c0 -56.667 26.667 -103.334 80 -140.001c21.333 -14.667 47.666 -28 78.999 -40c24 -8.66699 53 -17.667 87 -27l223 -61c233.333 -66 350 -190.333 350 -373c0 -122 -48 -219.333 -144 -292c-95.333 -71.333 -221.333 -107 -378 -107
c-82.667 0 -161 10 -235 30c-58.667 16.667 -104 36 -136 58c-45.333 30 -63 69.333 -53 118z" />
    <glyph glyph-name="T" unicode="T" horiz-adv-x="1204" 
d="M510 260c0.666992 96.667 1.33203 208.668 1.99902 336.001c0.666992 139.333 1.33398 263.666 2.00098 372.999v272l-406 2c-31.333 -2 -47 15.667 -47 53v50c0 31.333 17.667 47 53 47l797 -2c105.333 0 166 0.666992 182 2c33.333 2 49 -17.333 47 -58v-51
c0 -28.667 -16.333 -43 -49 -43h-414l-3 -292l4 -691l3 -204c0 -6 -0.666992 -11.667 -2 -17c-4.66699 -24.667 -23 -37 -55 -37h-59c-25.333 0 -42 10.667 -50 32c-5.33301 12.667 -8 34 -8 64z" />
    <glyph glyph-name="U" unicode="U" horiz-adv-x="1497" 
d="M190 861l1 448.002c2.66699 56 20.667 84 54 84h61c36.667 0 55 -24.667 55 -74c-0.666992 -22 -1 -98.333 -1 -229l-1 -443c0 -171.333 27.667 -298.666 83 -381.999c62.667 -94.667 165.667 -142 309 -142c134.667 0 233 46.667 295 140
c56.667 85.333 85 214.666 85 387.999l3 658c0 56 16.333 84 49 84h59c43.333 0 64 -24.667 62 -74l-4 -531c-0.666992 -70.667 -1.66699 -117 -3 -139c-2.66699 -106.667 -12.667 -198.334 -30 -275.001c-19.333 -84.667 -48.666 -155 -87.999 -211
c-86.667 -122 -230.334 -183 -431.001 -183c-208 0 -355.333 60.333 -442 181c-40 56 -69.333 126.333 -88 211c-16.667 76 -25.667 167.667 -27 275c-0.666992 61.333 -1 132.666 -1 213.999z" />
    <glyph glyph-name="V" unicode="V" horiz-adv-x="1320" 
d="M122 1260c-12.667 38 -19.999 60.333 -21.999 67c-15.333 44 -3 66 37 66h51c23.333 0 40.666 -7 51.999 -21c4 -5.33301 8 -12.333 12 -21l8 -22l20 -59l44 -127l128 -374l70 -204l63 -189c42.667 -128 69.334 -209.667 80.001 -245h14c10 34 36.333 114.333 79 241
l329 955c16 44 40.667 66 74 66h53c38.667 0 51 -20.667 37 -62l-361 -1035c-42.667 -125.333 -66.334 -196 -71.001 -212c-17.333 -56 -55 -84 -113 -84h-72c-59.333 -0 -98 29.333 -116 88z" />
    <glyph glyph-name="W" unicode="W" horiz-adv-x="2064" 
d="M259 709l-108.999 398c-33.333 123.333 -51.666 193.333 -54.999 210c-10.667 50.667 8.66602 76 57.999 76h37c24.667 0 43.667 -7.66699 57 -23c4.66699 -5.33301 8.66699 -12.333 12 -21c2 -5.33301 4 -12 6 -20l233 -897c32 -126.667 54 -217.334 66 -272.001h13
l124 434l53 185l99 339c30.667 105.333 50.667 171 60 197c14 52 44.667 78 92 78h78c45.333 0 74.666 -26 87.999 -78l336 -1161h10l299 1167c10 48 33.667 72 71 72h56c44.667 0 61 -24 49 -72l-60 -223l-276 -994c-6 -29.333 -14 -51.666 -24 -66.999
c-16 -24.667 -39.333 -37 -70 -37h-90c-48 0 -80.333 26 -97 78c-10.667 33.333 -31 101.333 -61 204l-95 330l-171 609h-8l-77 -262l-255 -881c-13.333 -52 -45.333 -78 -96 -78h-88c-29.333 -0 -52 11.333 -68 34c-10.667 14 -19.667 34.667 -27 62z" />
    <glyph glyph-name="X" unicode="X" horiz-adv-x="1261" 
d="M147 0c-50.667 0 -59.6641 24.667 -26.9971 74l434 622l-371 529l-67 98c-29.333 46.667 -19 70 31 70h69c17.333 0 32.333 -5.33301 45 -16c5.33301 -4.66699 10.333 -10 15 -16c3.33301 -4.66699 7.33301 -10.667 12 -18l281 -414c37.333 -54.667 64 -92.667 80 -114
h10c158 210 279.333 387.667 364 533c14 30 39.333 45 76 45h70c46 0 54.667 -24 26 -72c-4.66699 -8 -24.334 -37 -59.001 -87l-119 -170l-260 -368l246 -350l121 -173l69 -103c30 -46.667 19.333 -70 -32 -70h-70c-17.333 0 -32.333 5 -45 15
c-5.33301 4.66699 -10.333 10 -15 16l-366 547h-12c-20.667 -26 -50.334 -67.333 -89.001 -124l-113 -165l-55 -82l-121 -179c-4.66699 -6 -9.66699 -11 -15 -15c-12.667 -8.66699 -29.334 -13 -50.001 -13h-63z" />
    <glyph glyph-name="Y" unicode="Y" horiz-adv-x="1273" 
d="M551 582c-18.667 31.333 -54.335 86.999 -107.002 166.999l-157 239l-147 221l-76 114l-8 18c-2 8 -2.66699 15.667 -2 23c2.66699 19.333 15.334 29 38.001 29h74c20.667 0 37.667 -6.33301 51 -19c5.33301 -4.66699 10.333 -11 15 -19c2 -2.66699 4 -6 6 -10l6 -10
c12 -21.333 35.333 -59.666 70 -114.999l111 -173l165 -254l37 -58h14l217 333l114 180c34 54.667 54 88 60 100c17.333 30 45.333 45 84 45h64c18 0 30.333 -7.66699 37 -23s5.33398 -30.333 -3.99902 -45c-10.667 -14.667 -40 -57.667 -88 -129l-151 -229l-20 -31
l-237 -356v-390c0.666992 -45.333 1.33398 -72.333 2.00098 -81l2 -27c0.666992 -4 1 -7 1 -9c1.33301 -15.333 1.33301 -27.333 0 -36c-4.66699 -24.667 -23.334 -37 -56.001 -37h-58c-45.333 0 -65 32.667 -59 98z" />
    <glyph glyph-name="Z" unicode="Z" horiz-adv-x="1208" 
d="M106 154l806.999 1075v12h-690c-30 0 -45 19 -45 57v50c0 30 18.333 45 55 45h817c30.667 0 48.334 -19.333 53.001 -58v-90l-806 -1079v-16l674 2l42 2c36 2 54 -16 54 -54v-57c0 -28.667 -18.667 -43 -56 -43h-850c-34 -0 -53 18.333 -57 55z" />
    <glyph glyph-name="bracketleft" unicode="[" horiz-adv-x="768" 
d="M207 1356v17c0 24.667 2 43.334 6 56.001c10 30.667 40.333 46 91 46h377c32.667 0 49 -20 49 -60v-31c0 -32.667 -30 -49 -90 -49h-289l-3 -1194c0 -138.667 0.333008 -229.334 1 -272.001c127.333 -2.66699 238 -2 332 2c32.667 0 49 -17 49 -51v-43
c0 -28.667 -17 -43 -51 -43h-399c-49.333 0 -74 35.333 -74 106l1 29v1487z" />
    <glyph glyph-name="backslash" unicode="\" horiz-adv-x="741" 
d="M447 330l-129.004 387l-202 596c-18.667 53.333 -8 80 32 80h39c18.667 0 33 -7.33301 43 -22c4 -5.33301 7.66699 -12.333 11 -21l145 -437l65 -195l66 -196l62 -182c42.667 -124.667 73.334 -210.667 92.001 -258c20 -54.667 9.66699 -82 -31 -82h-35
c-9.33301 -0 -16.666 0.333008 -21.999 1c-7.33301 1.33301 -13.666 3.66602 -18.999 6.99902c-13.333 8.66699 -23.666 26.334 -30.999 53.001c-15.333 51.333 -44 141 -86 269z" />
    <glyph glyph-name="bracketright" unicode="]" horiz-adv-x="770" 
d="M412 -131c0.666992 42.667 1.33398 133.333 2.00098 272c0.666992 121.333 1 267.333 1 438l-1 756h-324c-34.667 -2 -51 15 -49 51v31c0 38.667 16.333 58 49 58h410c26 0 43.333 -12.667 52 -38c6 -16.667 8.33301 -41 7 -73l-2 -1532c0 -65.333 -22 -98 -66 -98h-399
c-34 0 -51 14.333 -51 43v43c0 34 16.333 51 49 51c93.333 -4 200.666 -4.66699 321.999 -2z" />
    <glyph glyph-name="asciicircum" unicode="^" horiz-adv-x="1245" 
d="M207 750c-34.667 19.333 -35.999 52.667 -3.99902 100l56 79l2 4l3 4c2 3.33301 4 6 6 8l200 288c36.667 53.333 61.667 91.666 75 114.999c18 30 43.333 45 76 45h41c31.333 0 56.666 -15 75.999 -45c14 -22.667 39 -60.667 75 -114l263 -384
c32 -47.333 30.333 -80.666 -5 -99.999l-53 -29c-30.667 -17.333 -60 -1.66602 -88 47.001l-44 69l-247 375l-166 -255l-79 -120l-43 -69c-28.667 -48.667 -59 -64.334 -91 -47.001z" />
    <glyph glyph-name="underscore" unicode="_" horiz-adv-x="1024" 
d="M627 -59c54.667 0 103.333 0.331055 146 0.998047c100.667 0.666992 166 2.33398 196 5.00098c36.667 2.66699 55 -16.666 55 -57.999v-28c0 -32.667 -21 -49 -63 -49l-906 -2c-36.667 0 -55 21 -55 63v21c0 32.667 22.667 49 68 49z" />
    <glyph glyph-name="grave" unicode="`" horiz-adv-x="493" 
d="M215 1497l187 -293h-170l-289 293h272z" />
    <glyph glyph-name="a" unicode="a" horiz-adv-x="1173" 
d="M517 668c66.667 0 136.334 -8.33398 209.001 -25.001c27.333 -6 52.333 -12.333 75 -19c19.333 -6 33 -11.333 41 -16v125c0 178.667 -91.333 268 -274 268c-44.667 0 -89.334 -4.66699 -134.001 -14c-35.333 -7.33301 -70 -18 -104 -32
c-24 -9.33301 -46.667 -19.666 -68 -30.999c-16 -9.33301 -24 -14.333 -24 -15c-2.66699 2 -7.33398 7.66699 -14.001 17c-9.33301 12 -16.333 24.333 -21 37c-14.667 38 -7 70 23 96c68.667 58.667 188 88 358 88c282 0 420.667 -138 416 -414l-2 -526l8 -167
c0.666992 -14 -0.666016 -24.667 -3.99902 -32c-8.66699 -18.667 -36 -28 -82 -28c-38 0 -62.333 18.333 -73 55c-8 27.333 -8.33301 68.333 -1 123h-10c0 -2 -8.66699 -11.333 -26 -28c-23.333 -22.667 -48.333 -43 -75 -61c-38 -26 -77 -46.667 -117 -62
c-50.667 -18 -101.334 -27 -152.001 -27c-116.667 0 -206.667 34.667 -270 104c-57.333 63.333 -85 144 -83 242c4.66699 223.333 139.334 337.333 404.001 342zM507 112.999c74.667 0 145 21 211 63c59.333 38 100 81.667 122 131v189c-8.66699 3.33301 -21 7.33301 -37 12
l-64 16c-62.667 12.667 -125 19 -187 19c-181.333 0 -273 -71 -275 -213c0 -144.667 76.667 -217 230 -217z" />
    <glyph glyph-name="b" unicode="b" horiz-adv-x="1236" 
d="M183 1217v101.002l-1 46c-4 60 20.667 90 74 90c66 0 96.667 -30 92 -90l-4 -230l-2 -147h18c30.667 42.667 69.667 77.667 117 105c64 36.667 137 55 219 55c138.667 0 245 -50.667 319 -152c72.667 -98.667 109 -236.334 109 -413.001
c0 -180 -50.333 -325.667 -151 -437c-99.333 -110 -228.333 -165 -387 -165c-146 0 -252.333 36.333 -319 109c-55.333 61.333 -83 147.666 -83 258.999zM403 174.002c42 -40.667 102.331 -61 180.998 -61c114.667 0 205.334 41.333 272.001 124c66.667 84 100 199 100 345
c0 286.667 -98.333 430 -295 430c-84.667 0 -158.667 -29.667 -222 -89c-46 -44 -78.333 -93.667 -97 -149v-250c0.666992 -101.333 1.33398 -170.333 2.00098 -207c3.33301 -59.333 23 -107 59 -143z" />
    <glyph glyph-name="c" unicode="c" horiz-adv-x="1120" 
d="M263 978c98 112.667 224.334 169.002 379.001 169.002c117.333 0 205.666 -24.667 264.999 -74c44.667 -36.667 69.667 -83 75 -139c7.33301 -108.667 -37.667 -146.334 -135 -113.001l4 33c0 39.333 -14.667 73.666 -44 102.999c-36.667 36.667 -89.667 55 -159 55
c-110 0 -197.333 -40 -262 -120c-65.333 -80 -98 -189 -98 -327c-2 -301.333 113.333 -452 346 -452c42 0 83 4.66699 123 14c32.667 8 64 19 94 33l34 17l25 15c14 9.33301 21 14.333 21 15l8 -4l17 -14c16 -17.333 22.667 -39.333 20 -66c-2 -35.333 -34 -67.333 -96 -96
c-68 -31.333 -151.333 -47 -250 -47c-340 0 -510 194.333 -510 583c0 166.667 47.667 305 143 415z" />
    <glyph glyph-name="d" unicode="d" horiz-adv-x="1257" 
d="M238 147c-81.333 111.333 -121.329 257.668 -119.996 439.001c0.666992 167.333 43.667 303.666 129 408.999c82 101.333 183.667 152 305 152c52 0 100.667 -9 146 -27c38 -14.667 73 -35.334 105 -62.001c24.667 -21.333 46.667 -45.666 66 -72.999
c8 -10 15 -20.333 21 -31c4.66699 -8.66699 8.66699 -16.667 12 -24h14c-0.666992 33.333 -1.33398 76 -2.00098 128l-2 246c-0.666992 33.333 -1.33398 54 -2.00098 62c-4 58.667 18.667 88 68 88c69.333 0 102.666 -29.333 99.999 -88l-8 -532
c-0.666992 -152 -1 -289.667 -1 -413c0 -144.667 1 -255.667 3 -333l3 -58c0 -22 -8 -36 -24 -42c-5.33301 -3.33301 -14 -5.66602 -26 -6.99902c-10.667 -0.666992 -22.334 -1 -35.001 -1c-39.333 0 -63.333 19.667 -72 59c-4 15.333 -5.66699 35.666 -5 60.999l3 70h-10
c0 -2.66699 -6.33301 -12.667 -19 -30c-16.667 -23.333 -36.667 -45 -60 -65c-32 -28 -68 -50 -108 -66c-49.333 -19.333 -103 -29 -161 -29c-132 0 -238.667 55.667 -320 167zM824.004 213.002c61.333 67.333 92.002 148.667 92.002 244v264l-10 28l-19 41
c-18.667 36 -39.667 68.333 -63 97c-30.667 37.333 -64.334 66.333 -101.001 87c-44 25.333 -91.667 38 -143 38c-82.667 0 -151.667 -34.667 -207 -104c-61.333 -77.333 -92 -184 -92 -320c0 -144.667 29 -260 87 -346s135.667 -129 233 -129
c87.333 0 161.666 33.333 222.999 100z" />
    <glyph glyph-name="e" unicode="e" horiz-adv-x="1191" 
d="M255 981c92.667 110.667 215.668 166 369.001 166c131.333 0 237.333 -42.333 318 -127c74.667 -78 112 -171.667 112 -281c0 -81.333 -8.66699 -135.333 -26 -162c-12.667 -18.667 -36 -28 -70 -28h-672l-4 -6c0 -122.667 28.667 -222.667 86 -300
c64.667 -86.667 157.334 -130 278.001 -130c41.333 0 82.333 5.33301 123 16c33.333 8.66699 65.666 20.667 96.999 36c23.333 11.333 45 23.666 65 36.999c7.33301 4.66699 14 9.33398 20 14.001l9 7c0 2 5 -1 15 -9l14 -14c5.33301 -6.66699 10 -14 14 -22
c18 -38.667 11 -70.667 -21 -96c-9.33301 -8.66699 -23.333 -18 -42 -28c-22 -12.667 -46.333 -24 -73 -34c-71.333 -26.667 -145 -40 -221 -40c-176.667 0 -310.334 56 -401.001 168c-82 102 -123 242.333 -123 421c0 168 44.333 305.333 133 412zM890.001 668l1 6.00293
c0 5.33301 0.333008 10.666 1 15.999l2 49c0 79.333 -22.667 143.666 -68 192.999c-48.667 53.333 -116.667 80 -204 80c-108.667 0 -193.667 -42 -255 -126c-47.333 -64.667 -73 -137.334 -77 -218.001h600z" />
    <glyph glyph-name="f" unicode="f" horiz-adv-x="796" 
d="M267 408l-0.00195312 70.999l1 428h-57c-34 0 -59.333 -0.666992 -76 -2c-24.667 -1.33301 -37 10.334 -37 35.001v39c0 22.667 9 35 27 37l143 26v99c0 89.333 24 162 72 218c54 63.333 131.667 95 233 95c36.667 0 73 -2.33301 109 -7l71 -11l3 -40
c0 -8 -0.666992 -15.667 -2 -23c-6.66699 -41.333 -28 -62 -64 -62c-13.333 0 -32.333 1.33301 -57 4c-25.333 2.66699 -44.666 4 -57.999 4c-100.667 0 -151 -59.333 -151 -178v-101h74c58.667 -0.666992 112.334 -0.666992 161.001 0c30.667 0 45 -12 43 -36l-4 -64
c-2 -23.333 -13.667 -35 -35 -35h-239l2 -843c0 -12.667 -1 -23 -3 -31c-6 -20.667 -22.333 -31 -49 -31h-51c-38 -0 -57 29.333 -57 88z" />
    <glyph glyph-name="g" unicode="g" horiz-adv-x="1265" 
d="M183 32c15.333 23.333 36.3311 43.3311 62.998 59.998c19.333 12 40.333 21.667 63 29c19.333 6.66699 29 9.33398 29 8.00098v10c0 -0.666992 -5 1.33301 -15 6l-16 9l-17 12c-14.667 12 -26 26 -34 42c-10 20 -15 42.667 -15 68c0 60 27 106.333 81 139
c9.33301 6 19.333 11 30 15c8.66699 4 17.334 7.33301 26.001 10c16.667 5.33301 25 7.33301 25 6v11c0 -2 -13.667 1.33301 -41 10c-33.333 10.667 -63.666 25 -90.999 43c-38.667 25.333 -69 56.333 -91 93c-27.333 45.333 -41 98.333 -41 159
c0 108.667 36.667 197.334 110 266.001c84.667 79.333 206.334 119 365.001 119h490l6 -22c2 -8 3.33301 -15.667 4 -23c0.666992 -9.33301 0.666992 -18 0 -26c-4 -46.667 -34 -70 -90 -70c-31.333 0 -65 2.66699 -101 8l-71 12l-2 -8l25 -11
c11.333 -5.33301 21.666 -10.666 30.999 -15.999c26.667 -14.667 49.667 -31 69 -49c54.667 -50 82 -113.333 82 -190c0 -112.667 -47.333 -199.667 -142 -261c-88 -56.667 -206 -85 -354 -85c-113.333 0 -170 -33 -170 -99c0 -50.667 47 -76 141 -76l248 2
c228 0 342 -79 342 -237c0 -92.667 -41 -168.334 -123 -227.001c-90 -64.667 -215.667 -97 -377 -97c-312.667 0 -469 86.667 -469 260c0.666992 38 10.667 71.333 30 100zM823.998 601.998c50 41.333 75 97.332 75 167.999c0 70 -24 127 -72 171
c-52 47.333 -123.667 71 -215 71c-118 0 -203.333 -28 -256 -84c-39.333 -41.333 -59 -96.666 -59 -165.999c0 -76.667 26.667 -134.667 80 -174c49.333 -35.333 116.666 -53 201.999 -53c108.667 0 190.334 22.333 245.001 67zM621.998 -197.003
c112 0 198 19.332 258 57.999c52 32.667 78 74.334 78 125.001c0 31.333 -11 57 -33 77c-30 27.333 -77.667 41 -143 41l-240 -2c-21.333 0 -45.333 1 -72 3l-52 4l-23 -11l-36 -25c-33.333 -28 -50 -62 -50 -102c0 -112 104.333 -168 313 -168z" />
    <glyph glyph-name="h" unicode="h" horiz-adv-x="1316" 
d="M194 185c1.33301 45.333 1.99609 85.999 1.99609 121.999c0.666992 55.333 1.33398 138 2.00098 248c0.666992 90 1.33398 197 2.00098 321v521c0 12 1.33301 21.667 4 29c8 18.667 30 28 66 28c68.667 0 100.667 -31.333 96 -94
c-2.66699 -47.333 -4.66699 -112.333 -6 -195l-1 -127v-14l-1 -88h16c3.33301 5.33301 7.33301 11.333 12 18c6 10 13 19.667 21 29c20.667 26 44.334 49.667 71.001 71c34.667 27.333 72.334 49 113.001 65c49.333 18.667 102 28 158 28c267.333 0 401 -146.667 401 -440
l-3 -273l-2 -163v-217l1 -13c0 -13.333 -1.33301 -23.666 -4 -30.999c-7.33301 -20 -30.333 -30 -69 -30c-63.333 0 -95 30.667 -95 92l1 280v20l1 337c0 88.667 -21 160 -63 214c-46.667 59.333 -113 89 -199 89c-92 0 -173.667 -34.667 -245 -104
c-27.333 -26.667 -52 -57 -74 -91c-17.333 -28 -31 -55.333 -41 -82l-1 -271v-60l-1 -302c6 -68 -12.333 -102 -55 -102h-52c-42 -0 -61.667 31.333 -59 94z" />
    <glyph glyph-name="i" unicode="i" horiz-adv-x="595" 
d="M202 1397c-1.33301 73.333 31.667 110.001 99 110.001c34 0 58.667 -6 74 -18c20.667 -16.667 31.334 -47.334 32.001 -92.001c1.33301 -44 -7.66699 -74 -27 -90c-14.667 -11.333 -38.334 -17 -71.001 -17c-69.333 0 -105 35.667 -107 107zM217 307.001
c0.666992 55.333 1.33008 120.999 1.99707 196.999l-1 565c0 12.667 1.66699 22.334 5 29.001c8 18.667 29.667 28 65 28c66.667 0 98.334 -24.333 95.001 -73c-2.66699 -62.667 -4.66699 -133 -6 -211v-672c0 -32.667 0.333008 -54.667 1 -66
c4.66699 -69.333 -13.666 -104 -54.999 -104h-49c-43.333 0 -63.666 32.667 -60.999 98c2.66699 52 4 121.667 4 209z" />
    <glyph glyph-name="j" unicode="j" horiz-adv-x="626" 
d="M231 1397c-1.33301 73.333 31.667 110 99 110c69.333 0 104.666 -36.667 105.999 -110c0.666992 -44 -8.66602 -74 -27.999 -90c-14 -11.333 -38 -17 -72 -17c-68 0 -103 35.667 -105 107zM91 -189l40.001 -5.00098l25 -1c66 0 100 53.333 102 160
c0.666992 50.667 1 127.334 1 230.001l-7 873c0 12 1.33301 21.667 4 29c8 19.333 27 29 57 29c68 0 101 -28 99 -84c-2.66699 -44.667 -4 -114.667 -4 -210l6 -852c0 -95.333 -20 -169.333 -60 -222c-43.333 -58.667 -109.333 -88 -198 -88c-34 0 -65 2 -93 6l-31 6
c-8 2 -16 4.33301 -24 7l-2 39c0 8 0.666992 15.333 2 22c7.33301 41.333 28.666 62 63.999 62z" />
    <glyph glyph-name="k" unicode="k" horiz-adv-x="1269" 
d="M186 336c0.666992 58.667 1.33691 126 2.00391 202l6 830c0 32.667 2.33301 53.334 7 62.001c8.66699 16 29 24 61 24c65.333 0 98 -30 98 -90c0 -118.667 -3.33301 -263.334 -10 -434.001h16c26.667 58.667 71 108 133 148c72 46 155.333 69 250 69
c112.667 0 204.334 -32.333 275.001 -97c69.333 -64 104 -145.667 104 -245c0 -61.333 -15 -116.333 -45 -165c-24 -39.333 -57 -74 -99 -104c-16.667 -12 -34.334 -22.667 -53.001 -32c-15.333 -8 -31 -15.333 -47 -22c-30 -12 -45 -17 -45 -15
c13.333 -27.333 50.666 -83.666 111.999 -168.999l171 -233l29 -32c0 -1.33301 -1.33301 -4.33301 -4 -9c-4 -6.66699 -9 -12.667 -15 -18c-18.667 -17.333 -45.334 -26 -80.001 -26c-48.667 0 -86.667 18.333 -114 55c-14.667 18 -35.334 48.333 -62.001 91
c-20 31.333 -46.333 75 -79 131l-152 251l16 31c81.333 4.66699 149.333 27 204 67c64.667 47.333 97 111.666 97 192.999c0 60 -21.667 110.667 -65 152c-44.667 43.333 -102 65 -172 65c-120.667 0 -215.334 -49 -284.001 -147c-60.667 -87.333 -91 -196 -91 -326v-439
l3 -33c0.666992 -14 0 -25.333 -2 -34c-5.33301 -24.667 -23.333 -37 -54 -37h-52c-40.667 0 -61 32 -61 96z" />
    <glyph glyph-name="l" unicode="l" horiz-adv-x="630" 
d="M196 1169c1.33301 114 1.33594 179 0.00292969 195c-3.33301 60 20 90 70 90c43.333 0 71.666 -10 84.999 -30c8.66699 -13.333 11.667 -36 9 -68c-2.66699 -74.667 -6.33398 -246.334 -11.001 -515.001l-7 -659c1.33301 -50 40.666 -70.333 117.999 -61
c26.667 3.33301 41 -5 43 -25l5 -47c0 -21.333 -8.33301 -35.666 -25 -42.999c-41.333 -17.333 -86.333 -26 -135 -26c-108 0 -162 64 -162 192z" />
    <glyph glyph-name="m" unicode="m" horiz-adv-x="1964" 
d="M186 186c1.33301 44.667 1.99805 85.001 1.99805 121.001l1 771v12c-0.666992 12 0.333008 21.667 3 29c6.66699 18.667 28.667 28 66 28c65.333 0 98 -35 98 -105l-4 -106h12l25 48c16.667 26 36.334 49.333 59.001 70c30 28 63.667 49.667 101 65
c46 18.667 97 28 153 28c90.667 0 164.667 -20 222 -60c50.667 -34.667 89.334 -85 116.001 -151h10l11 19l19 29c20 26 42.667 49.333 68 70c32.667 28 68.334 49.667 107.001 65c46.667 18.667 96.667 28 150 28c132.667 0 231.667 -41.667 297 -125
c58.667 -74.667 88 -179.667 88 -315l-8 -432v-222l1 -9c0.666992 -14 -0.333008 -24.667 -3 -32c-6 -21.333 -28.667 -32 -68 -32c-64 0 -96 30 -96 90l4 639c0 90 -19.667 162 -59 216c-42.667 58 -103 87 -181 87c-70.667 0 -136 -22.333 -196 -67
c-48.667 -36 -86.334 -80 -113.001 -132l2 -20l2 -25c1.33301 -22 2 -43 2 -63l-7 -437c-0.666992 -66 -1 -130.667 -1 -194c0 -49.333 -18.667 -74 -56 -74h-55c-39.333 0 -59 24 -59 72l12 637c0 91.333 -18 163.333 -54 216c-40 58 -99 87 -177 87
c-90.667 0 -166.334 -32 -227.001 -96c-23.333 -24 -44.333 -52.667 -63 -86c-14 -24.667 -26.667 -52 -38 -82l-6 -579c0.666992 -32.667 1.33398 -54.334 2.00098 -65.001c4 -69.333 -14.333 -104 -55 -104h-54c-40.667 0 -59.667 32 -57 96z" />
    <glyph glyph-name="n" unicode="n" horiz-adv-x="1308" 
d="M182 186c1.33301 44.667 2 85 2 121l2 767l-1 16c0 12 1 21.667 3 29c7.33301 18.667 28.666 28 63.999 28c66.667 0 100 -35 100 -105l-4 -106h15l31 47c20.667 26 43.667 49.667 69 71c34.667 27.333 72 49 112 65c49.333 18.667 102 28 158 28
c134 0 236.333 -40 307 -120c66.667 -76.667 99.667 -183.334 99 -320.001l-7 -460l-1 -193c0.666992 -2 1 -3.66699 1 -5v-8c0.666992 -13.333 -0.333008 -23.666 -3 -30.999c-6.66699 -20 -28.667 -30 -66 -30c-41.333 0 -69.333 8.66699 -84 26
c-9.33301 11.333 -14 29 -14 53l6 650c0 88 -22 159.333 -66 214c-46.667 59.333 -112.667 89 -198 89c-92 0 -173.333 -33.667 -244 -101c-28 -26 -52.667 -55.667 -74 -89c-18 -28 -32.333 -55.667 -43 -83l-4 -574c0.666992 -35.333 1.33398 -56.333 2.00098 -63
c5.33301 -68 -13 -102 -55 -102h-53c-26.667 -0 -44 11.333 -52 34c-5.33301 14 -7.33301 34.667 -6 62z" />
    <glyph glyph-name="o" unicode="o" horiz-adv-x="1243" 
d="M250 978c88.667 112.667 212.335 169 371.002 169c160 0 285.667 -55.667 377 -167c85.333 -105.333 127 -241.666 125 -408.999c-2.66699 -176 -45.334 -317 -128.001 -423c-88.667 -114 -212.667 -171 -372 -171c-162 0 -287.667 56.333 -377 169
c-84 106 -125 247 -123 423c3.33301 169.333 45.666 305.666 126.999 408.999zM887.001 250c48 77.333 71.999 183.667 71.999 319c0 130 -26 233.667 -78 311c-58 88 -144 132 -258 132c-120.667 0 -209 -44 -265 -132c-46 -74 -69 -177.667 -69 -311
c0 -136 23 -242.333 69 -319c55.333 -91.333 143 -137 263 -137c120.667 0 209.334 45.667 266.001 137z" />
    <glyph glyph-name="p" unicode="p" horiz-adv-x="1259" 
d="M185 -183c0.666992 29.333 1.33398 67.998 2.00098 115.998c2 107.333 3.66699 227 5 359c2 152.667 3 290.334 3 413.001c0.666992 145.333 0 256.333 -2 333l-6 58c0 22.667 7.33301 37 22 43c19.333 5.33301 40.666 8 63.999 8c61.333 0 86 -64.333 74 -193h12
c0 2.66699 6.33301 12.667 19 30c17.333 24.667 37.333 47 60 67c32.667 28 68.667 50 108 66c48.667 20 101.667 30 159 30c131.333 0 237 -55.667 317 -167c80.667 -110.667 121 -257 121 -439c0 -166.667 -42.667 -303 -128 -409c-82 -101.333 -183.333 -152 -304 -152
c-52 0 -100.667 8.66699 -146 26c-38 14.667 -72.667 35 -104 61c-25.333 20.667 -47.333 44.334 -66 71.001l-20 31c-5.33301 8.66699 -9.33301 16.667 -12 24h-14l2 -426c2.66699 -49.333 -18 -74 -62 -74h-45c-42.667 0 -63 23.667 -61 71zM349 405.998
c2.66699 -9.33301 5.99902 -19.332 9.99902 -29.999l19 -41c18.667 -36 40 -68.333 64 -97c30.667 -36.667 64 -65.334 100 -86.001c44 -24.667 90.667 -37 140 -37c83.333 0 152 34.667 206 104c59.333 76.667 89 182.667 89 318c0 146 -28.333 261.667 -85 347
c-57.333 85.333 -134.666 128 -231.999 128c-85.333 0 -158.333 -34 -219 -102c-61.333 -68.667 -92 -153.667 -92 -255v-249z" />
    <glyph glyph-name="q" unicode="q" horiz-adv-x="1241" 
d="M269 979c101.333 112 231.999 168 391.999 168c137.333 0 240 -34.667 308 -104c59.333 -60.667 89 -144 89 -250l1 -869l1 -147c3.33301 -52 -11 -82 -43 -90l-41 -9c-18 -4 -31 -6 -39 -6c-28.667 0 -43 29.333 -43 88l3 128c0.666992 40 1.33398 78 2.00098 114
c0.666992 49.333 1 99.333 1 150h-16c-28.667 -44 -67 -81 -115 -111c-64.667 -40.667 -137.667 -61 -219 -61c-290.667 0 -436 184 -436 552c0 184.667 51.667 333.667 155 447zM798.999 197c47.333 42 81.001 94.333 101.001 157v247c0 100 -0.666992 170 -2 210
c-2 134 -83 201 -243 201c-112.667 0 -202.334 -43.667 -269.001 -131c-66.667 -86.667 -100.667 -203 -102 -349c-2 -278 95.667 -417 293 -417c87.333 0 161.333 27.333 222 82z" />
    <glyph glyph-name="r" unicode="r" horiz-adv-x="958" 
d="M183 217l3 763l-3 78v22c0.666992 15.333 2.66699 27.333 6 36c8.66699 20.667 30.667 31 66 31c40.667 0 66 -14 76 -42c8.66699 -24.667 11.334 -80.334 8.00098 -167.001h17c48 139.333 142 209 282 209c84.667 0 148.667 -25.333 192 -76
c38.667 -44.667 58 -104 58 -178c0 -75.333 -34.667 -113 -104 -113c-30 0 -47.667 7 -53 21c-2 5.33301 -3 14.333 -3 27l1 40c0 96 -46.667 144 -140 144c-62.667 0 -118.667 -38.333 -168 -115c-43.333 -65.333 -68.333 -133.666 -75 -204.999
c-2.66699 -88.667 -4.33398 -184 -5.00098 -286c0 -114 1 -214.667 3 -302l2 -37c1.33301 -14.667 1 -26 -1 -34c-4.66699 -22 -23 -33 -55 -33h-51c-42 0 -61.667 32 -59 96z" />
    <glyph glyph-name="s" unicode="s" horiz-adv-x="1081" 
d="M158 183c8.66699 17.333 17.998 28.6699 27.998 34.0029c0 -0.666992 7 -6 21 -16c17.333 -13.333 37 -25.333 59 -36c30 -15.333 62 -27.333 96 -36c41.333 -10.667 84.333 -16 129 -16c192.667 0 289 63.333 289 190c0 43.333 -20 79.666 -60 108.999
c-30.667 22.667 -77.667 44.334 -141 65.001l-188 66c-170.667 58.667 -256 155.667 -256 291c0 91.333 35.667 165.666 107 222.999c74.667 60 175.667 90 303 90c102.667 0 185.667 -13.667 249 -41c24 -10 44 -21.667 60 -35c12.667 -10 22.334 -20.333 29.001 -31
c11.333 -20 12 -43.333 2 -70c-8.66699 -24.667 -21 -41.334 -37 -50.001c0 0.666992 -7 5.33398 -21 14.001c-8 5.33301 -16.333 10.333 -25 15c-11.333 6 -22.666 11.667 -33.999 17c-30.667 13.333 -62.667 23.666 -96 30.999c-41.333 10 -83.666 15 -126.999 15
c-70 0 -127.667 -14.667 -173 -44c-50 -32.667 -75 -77.334 -75 -134.001c0 -68.667 53.333 -120.667 160 -156l184 -62c106 -35.333 180.667 -73.333 224 -114c48.667 -46.667 73 -109.667 73 -189c0 -98.667 -37.333 -178 -112 -238c-79.333 -63.333 -191 -95 -335 -95
c-104.667 0 -189.334 15.333 -254.001 46c-54 26 -84 56.333 -90 91c-2.66699 22.667 1 44.667 11 66z" />
    <glyph glyph-name="t" unicode="t" horiz-adv-x="913" 
d="M265 989l-140.999 0.000976562c-28.667 0 -43 12.333 -43 37v49c0 8 2 15 6 21c6 8 15 12 27 12c78.667 0 133.334 19.333 164.001 58c22 28 33.333 72.667 34 134c0 32 18 48 54 48c48.667 0 72.334 -17.333 71.001 -52c-2.66699 -70.667 -4 -127.334 -4 -170.001
c18.667 -2 66 -3 142 -3s138.667 1 188 3c28.667 0 43 -11.333 43 -34v-66c0 -23.333 -13 -35 -39 -35h-340c-3.33301 -75.333 -6 -183.666 -8 -324.999c-0.666992 -58.667 -1.33398 -121.667 -2.00098 -189v-178c0 -120 43 -180 129 -180
c29.333 0 60.666 4.66699 93.999 14c24 7.33301 48.667 17 74 29c31.333 15.333 51.666 9 60.999 -19l11 -45c6.66699 -26.667 -1 -46.334 -23 -59.001c-66 -39.333 -146 -59 -240 -59c-184 0 -274 104.333 -270 313z" />
    <glyph glyph-name="u" unicode="u" horiz-adv-x="1280" 
d="M159 562c0.666992 39.333 1.66504 95.332 2.99805 167.999l3 87c0.666992 33.333 1.33398 62.333 2.00098 87c1.33301 64.667 2 119 2 163c0 53.333 22.667 80 68 80c65.333 0 98 -27.333 98 -82l-6 -311c-1.33301 -59.333 -2.33301 -114.333 -3 -165
c-0.666992 -59.333 -1 -116.333 -1 -171c0 -202 84 -303 252 -303c90 0 169.333 31.667 238 95c26.667 25.333 50.667 54.333 72 87c18 27.333 32.667 55.333 44 84l4 578c0 34.667 -0.666992 55.667 -2 63c-4 69.333 14.333 104 55 104h54c42 0 61.667 -32 59 -96l-4 -89
c-1.33301 -45.333 -2 -86 -2 -122l-6 -771l1 -16c0 -11.333 -1.33301 -20.333 -4 -27c-7.33301 -16.667 -29.666 -25 -66.999 -25c-62.667 0 -94 35.333 -94 106l6 102h-14l-31 -47c-20.667 -26 -44 -49.333 -70 -70c-34 -27.333 -71 -48.666 -111 -63.999
c-48 -18 -99 -27 -153 -27c-261.333 0 -393 146.667 -395 440z" />
    <glyph glyph-name="v" unicode="v" horiz-adv-x="1155" 
d="M369 305l-116.998 304.999l-57 149l-109 288c-20.667 52.667 -10.334 79 30.999 79h55c32 0 56 -19 72 -57l158 -429l107 -296c35.333 -99.333 59.666 -169.666 72.999 -210.999h14c14 41.333 38.667 110.333 74 207l266 727c14.667 39.333 38 59 70 59h71
c37.333 0 47 -25 29 -75l-385 -967c-10 -26 -20 -44.667 -30 -56c-16.667 -18.667 -39.334 -28 -68.001 -28h-66c-28 0 -50.667 8.66699 -68 26c-6.66699 6.66699 -12.667 14.667 -18 24c-3.33301 6.66699 -6.66602 14.667 -9.99902 24z" />
    <glyph glyph-name="w" unicode="w" horiz-adv-x="1855" 
d="M237 542l-159 497.998c-18 57.333 -6.33301 86 35 86h47c24.667 0 43.667 -7.33301 57 -22c5.33301 -5.33301 10 -12.333 14 -21c2.66699 -5.33301 5.66699 -12.666 9 -21.999l138 -464l140 -478h11c7.33301 22 25 80 53 174l88 298
c70.667 241.333 115.667 397.333 135 468c13.333 44.667 42 67 86 67h92c24.667 0 44.667 -7.66699 60 -23c6 -6.66699 11.333 -14 16 -22l285 -960h10c8.66699 21.333 26 75.666 52 162.999l167 572l60 203c13.333 44.667 38.333 67 75 67h58
c42.667 0 53.334 -28 32.001 -84l-318 -980c-5.33301 -12 -11.333 -22 -18 -30c-18 -21.333 -43.667 -32 -77 -32h-76c-50 0 -82 21 -96 63l-171 584l-41 143c-28.667 99.333 -48.334 171.333 -59.001 216h-12c-10.667 -43.333 -30 -114.666 -58 -213.999l-86 -295
l-132 -436c-11.333 -40.667 -42.333 -61 -93 -61h-75c-30 0 -55 9.33301 -75 28c-7.33301 8 -13.666 16.667 -18.999 26c-4.66699 8.66699 -8.33398 17.334 -11.001 26.001z" />
    <glyph glyph-name="x" unicode="x" horiz-adv-x="1130" 
d="M382 437l92.001 129.999c-21.333 31.333 -49.666 70.666 -84.999 117.999l-101 134c-4 4.66699 -8.33301 10.334 -13 17.001l-13 17c-4.66699 6.66699 -8.66699 12 -12 16l-13 17l-48 63l-76 104c-12.667 16.667 -16.334 33 -11.001 49s18.666 24 39.999 24h63
c34 0 59.333 -15 76 -45l48 -73l82 -115l153 -219h10l214 303l66 100l11 16l16 16c14.667 11.333 31.667 17 51 17h70c49.333 0 57.333 -24.333 24 -73l-255 -351c-40 -55.333 -71 -99.666 -93 -132.999l206 -297l97 -137l33 -47l19 -27c7.33301 -10.667 8 -23 2 -37
c-7.33301 -16 -21 -24 -41 -24h-68c-31.333 0 -56 15 -74 45c-9.33301 16 -27 43.333 -53 82l-225 332h-8l-145 -213l-83 -121c-28 -40.667 -47.667 -70.667 -59 -90c-12.667 -23.333 -34.667 -35 -66 -35h-73c-14.667 -0 -25.667 6.33301 -33 19s-7.33301 26 0 40z" />
    <glyph glyph-name="y" unicode="y" horiz-adv-x="1103" 
d="M139 -174c7.33301 29.333 26.6689 36.001 58.002 20.001c52 -27.333 106 -41 162 -41c98 0 174.333 95 229 285h-41c-41.333 0 -69.333 20 -84 60c-8.66699 24 -32.334 82 -71.001 174l-59 135l-65 149l-190 434c-20.667 56 -9 84 35 84h45c38 0 64.667 -20.333 80 -61
l100 -238c1.33301 -3.33301 2.33301 -6 3 -8l7 -17l176 -417c39.333 -95.333 66.666 -163 81.999 -203h13l262 879c12.667 43.333 38 65 76 65h57c41.333 0 53.666 -27.333 36.999 -82l-55 -174l-252 -792c-22 -70 -43 -127 -63 -171
c-23.333 -52 -48.666 -94.333 -75.999 -127c-59.333 -72 -140 -108 -242 -108c-84 0 -152.333 14.333 -205 43c-26.667 13.333 -37 34.666 -31 63.999z" />
    <glyph glyph-name="z" unicode="z" horiz-adv-x="997" 
d="M96 117c2.66699 4.66699 12.999 19.666 30.999 44.999l460 664c62 90.667 97.667 144.334 107 161.001l-543 -2c-27.333 0 -41 15.667 -41 47v53c0 27.333 15 41 45 41h666c41.333 0 63.333 -21.667 66 -65v-51c-4 -4 -14.667 -18 -32 -42l-254 -362l-198 -286
c-63.333 -92 -103.666 -151.667 -120.999 -179l550 4c6.66699 -0.666992 12.667 -3 18 -7c12 -8 18 -24 18 -48v-35c0 -14.667 -2 -26.334 -6 -35.001c-4 -7.33301 -9.33301 -12.666 -16 -15.999c-5.33301 -2.66699 -12 -4 -20 -4h-675c-36.667 0 -55 19.667 -55 59v58z" />
    <glyph glyph-name="braceleft" unicode="{" horiz-adv-x="823" 
d="M273 115l31.9971 168.996c5.33301 29.333 8 53.333 8 72c0 84 -47.333 128.333 -142 133c-34 4 -51 22 -51 54v88c0 27.333 17 43 51 47c94.667 4.66699 142 48.334 142 131.001c0 14 -2.66699 35 -8 63l-16 85c-7.33301 38 -12.666 68.667 -15.999 92
c-5.33301 33.333 -8 61.333 -8 84c0 214 107.333 321 322 321c74.667 0 130.667 -8 168 -24c23.333 -11.333 32.333 -28.666 27 -51.999l-11 -53c-6 -26.667 -23.667 -37 -53 -31l-55 11c-26.667 4 -52 6 -76 6c-102.667 0 -154 -60.333 -154 -181
c0 -17.333 2 -39.666 6 -66.999l27 -161c4 -30.667 6 -57.667 6 -81c0 -51.333 -9.66699 -95 -29 -131c-15.333 -28.667 -36.666 -51.667 -63.999 -69c-19.333 -12.667 -40.666 -21.667 -63.999 -27c-19.333 -4.66699 -29 -6 -29 -4v-15c0 2 9.66699 0.666992 29 -4
c23.333 -6 44.666 -15.333 63.999 -28c27.333 -17.333 48.666 -40.333 63.999 -69c19.333 -35.333 29 -78.666 29 -129.999c0 -23.333 -2 -50.333 -6 -81l-27 -160c-4 -26.667 -6 -48.667 -6 -66c0 -120 51.333 -180 154 -180c26.667 0 52.667 1.66699 78 5l53 9
c28.667 7.33301 46.334 -1.66699 53.001 -27l11 -55c4 -22.667 -3.66699 -39 -23 -49c-31.333 -18 -88.666 -27 -171.999 -27c-214.667 0 -322 108 -322 324c0 20.667 2.66699 46.667 8 78z" />
    <glyph glyph-name="bar" unicode="|" horiz-adv-x="550" 
d="M215 619v790c-2 44 14.333 66 49 66h27c36.667 0 54.334 -22 53.001 -66l-6 -799c-0.666992 -100 -1.33398 -193.667 -2.00098 -281l-1 -251v-191l1 -100c1.33301 -35.333 -13 -53 -43 -53h-41c-29.333 0 -43 17.667 -41 53z" />
    <glyph glyph-name="braceright" unicode="}" horiz-adv-x="823" 
d="M57 -156c5.33301 26 22.333 35.002 51 27.002l54 -9c25.333 -3.33301 51 -5 77 -5c104 0 156 60 156 180c0 17.333 -2 39.333 -6 66l-14 77c-6.66699 34.667 -11.334 62.334 -14.001 83.001c-4.66699 30.667 -7 57.667 -7 81c0 51.333 9.66699 94.666 29 129.999
c16 28.667 37.333 51.667 64 69c19.333 12.667 40.666 22 63.999 28c20 4.66699 30 6 30 4v15c0 -2 -10 -0.666992 -30 4c-23.333 5.33301 -44.666 14.333 -63.999 27c-26.667 17.333 -48 40.333 -64 69c-19.333 36 -29 79.667 -29 131c0 23.333 2.33301 50.333 7 81
c2.66699 20.667 7.33398 48.334 14.001 83.001l14 78c4 27.333 6 49.666 6 66.999c0 120.667 -51.333 181 -154 181c-24.667 0 -50.334 -2 -77.001 -6l-56 -11c-27.333 -6 -45 4.33301 -53 31l-10 53c-6 24 3.66699 41.333 29 52c37.333 16 93 24 167 24
c213.333 0 320 -107 320 -321c0 -22.667 -2.33301 -50.667 -7 -84l-31 -177c-4.66699 -28 -7 -49 -7 -63c0 -82.667 47 -126.334 141 -131.001c34 -4.66699 51 -20.334 51 -47.001v-88c0 -31.333 -17 -49.333 -51 -54c-94 -4.66699 -141 -49 -141 -133
c0 -18.667 2.33301 -42.667 7 -72l31 -169c4.66699 -31.333 7 -57.333 7 -78c0 -216 -107.333 -324 -322 -324c-82 0 -138.667 9 -170 27c-21.333 10 -28.666 26.333 -21.999 49z" />
    <glyph glyph-name="asciitilde" unicode="~" horiz-adv-x="931" 
d="M87 561c-31.333 22 -37.9951 49.332 -19.9951 81.999c28 50.667 60.667 93.667 98 129c52 49.333 104.667 74 158 74c36.667 0 72.667 -9 108 -27c25.333 -12.667 53.666 -32 84.999 -58l68 -59c23.333 -17.333 43.333 -26 60 -26c26.667 0 49.334 10.333 68.001 31
c6 6 12.667 14.667 20 26c0.666992 1.33301 2 3.33301 4 6l11 17c27.333 32.667 56.666 33.334 87.999 2.00098l55 -56c23.333 -23.333 24.666 -52 3.99902 -86c-8.66699 -14 -19.667 -28 -33 -42c-16.667 -18 -34.334 -33.667 -53.001 -47
c-50.667 -34.667 -105.334 -52 -164.001 -52c-34.667 0 -69 8.66699 -103 26c-24 12 -51.667 30.667 -83 56l-69 56c-24 17.333 -45.333 26 -64 26c-22.667 0 -45.334 -13.667 -68.001 -41c-8 -10 -16.333 -22.333 -25 -37l-20 -33c-17.333 -28 -46 -26.667 -86 4z" />
    <glyph glyph-name="sterling" unicode="&#xa3;" horiz-adv-x="1138" 
d="M63 786l128.997 0.00390625c-31.333 38.667 -55.166 84.167 -71.499 136.5s-24.5 103.166 -24.5 152.499c0 64 13.667 122 41 174s63.5 96.5 108.5 133.5s96.167 65.333 153.5 85s116 29.5 176 29.5c157.333 0 282 -42 374 -126s138.667 -210.667 140 -380h-233
c-3.33301 44 -10 85 -20 123s-25.667 71 -47 99s-49.333 50 -84 66s-76.667 24 -126 24c-62.667 0 -116.167 -20.5 -160.5 -61.5s-66.5 -100.5 -66.5 -178.5c0 -48 10.167 -96.167 30.5 -144.5s41.5 -92.5 63.5 -132.5h301v-133h-252c22 -40.667 33 -86.334 33 -137.001
c0 -36.667 -5.5 -71 -16.5 -103s-26 -62 -45 -90s-41.167 -53.667 -66.5 -77s-51.666 -45.333 -78.999 -66l4 -4l92 37c30 12 62.333 18 97 18c35.333 0 66 -3.33301 92 -10s50.333 -14.667 73 -24l70 -25c23.333 -8 50.666 -12 81.999 -12c38 0 73.5 6.83301 106.5 20.5
s63.833 32.834 92.5 57.501l104 -158c-52 -44 -102.833 -73.833 -152.5 -89.5s-108.167 -23.5 -175.5 -23.5c-32.667 0 -65.667 3.83301 -99 11.5s-67.666 14.167 -102.999 19.5c-34.667 9.33301 -69.667 18.166 -105 26.499s-72 12.5 -110 12.5
c-36 0 -73 -6.16699 -111 -18.5s-70 -28.833 -96 -49.5l-109 164c24.667 16.667 50.334 37.5 77.001 62.5s50.5 52.333 71.5 82s38.333 60.5 52 92.5s20.5 63.667 20.5 95c0 35.333 -3.66699 68.666 -11 99.999s-18 60.666 -32 87.999h-188v133z" />
    <glyph glyph-name="yen" unicode="&#xa5;" horiz-adv-x="1138" 
d="M453 338h-281v133h281v139h-281v133h201l-381 719h258l320 -655l325 655h254l-385 -719h203v-133h-281v-139h281v-133h-281v-338h-233v338z" />
    <glyph glyph-name="copyright" unicode="&#xa9;" horiz-adv-x="1638" 
d="M1208 584c-8.66699 -49.333 -24.1738 -93.5029 -46.5068 -132.503s-49.166 -72.167 -80.499 -99.5s-67.166 -48.166 -107.499 -62.499s-83.166 -21.5 -128.499 -21.5c-65.333 0 -124.666 11.667 -177.999 35s-99 55.833 -137 97.5s-67.333 90.834 -88 147.501
s-31 117.667 -31 183c0 61.333 9.83301 119 29.5 173s48 100.5 85 139.5s82.167 70 135.5 93s113.333 34.5 180 34.5c94 0 174.833 -26.167 242.5 -78.5s108.5 -129.166 122.5 -230.499h-140c-10.667 52 -36.167 94.333 -76.5 127s-89.833 49 -148.5 49
c-43.333 0 -81.5 -8.16699 -114.5 -24.5s-60.667 -38.166 -83 -65.499s-39.333 -59.666 -51 -96.999s-17.5 -77.333 -17.5 -120c0 -44.667 6.16699 -86.834 18.5 -126.501s30.333 -74.5 54 -104.5s52.334 -54 86.001 -72s70.834 -27 111.501 -27
c61.333 0 111.833 17.167 151.5 51.5s62.834 78.166 69.501 131.499h142zM1405.99 730.997c0 92.667 -15 177.998 -45 255.998s-71.5 145 -124.5 201s-115 99.333 -186 130s-147.5 46 -229.5 46c-83.333 0 -160.833 -15.333 -232.5 -46s-134.167 -74 -187.5 -130
s-95 -123 -125 -201s-45 -163.333 -45 -256c0 -87.333 13.667 -169.166 41 -245.499s66.5 -143.166 117.5 -200.499s112.667 -102.833 185 -136.5s154.5 -50.5 246.5 -50.5c82 0 158.5 15.333 229.5 46s133 74 186 130s94.5 122.667 124.5 200s45 163 45 257z
M1569.99 730.995c0 -114.667 -20.166 -219.167 -60.499 -313.5s-94.833 -174.833 -163.5 -241.5s-148.5 -118.167 -239.5 -154.5s-186.167 -54.5 -285.5 -54.5c-110.667 0 -212.167 19.5 -304.5 58.5s-171.5 92.667 -237.5 161s-117.833 148.833 -155.5 241.5
s-56.5 193.667 -56.5 303c0 114.667 20.167 219.167 60.5 313.5s95 174.833 164 241.5s149.167 118.5 240.5 155.5s187.666 55.5 288.999 55.5c99.333 0 194.5 -18.5 285.5 -55.5s170.833 -88.833 239.5 -155.5s123.167 -147.167 163.5 -241.5s60.5 -198.833 60.5 -313.5z
" />
    <glyph glyph-name="registered" unicode="&#xae;" horiz-adv-x="1638" 
d="M1406 731c0 92.667 -15 177.998 -45 255.998s-71.5 145 -124.5 201s-115 99.333 -186 130s-147.5 46 -229.5 46c-83.333 0 -160.833 -15.333 -232.5 -46s-134.167 -74 -187.5 -130s-95 -123 -125 -201s-45 -163.333 -45 -256c0 -87.333 13.667 -169.166 41 -245.499
s66.5 -143.166 117.5 -200.499s112.667 -102.833 185 -136.5s154.5 -50.5 246.5 -50.5c82 0 158.5 15.333 229.5 46s133 74 186 130s94.5 122.667 124.5 200s45 163 45 257zM1570 730.998c0 -114.667 -20.166 -219.167 -60.499 -313.5s-94.833 -174.833 -163.5 -241.5
s-148.5 -118.167 -239.5 -154.5s-186.167 -54.5 -285.5 -54.5c-110.667 0 -212.167 19.5 -304.5 58.5s-171.5 92.667 -237.5 161s-117.833 148.833 -155.5 241.5s-56.5 193.667 -56.5 303c0 114.667 20.167 219.167 60.5 313.5s95 174.833 164 241.5
s149.167 118.5 240.5 155.5s187.666 55.5 288.999 55.5c99.333 0 194.5 -18.5 285.5 -55.5s170.833 -88.833 239.5 -155.5s123.167 -147.167 163.5 -241.5s60.5 -198.833 60.5 -313.5zM825.001 773.998c26 0 50.834 1 74.501 3s44.5 7.83301 62.5 17.5s32.333 23 43 40
s16 41.167 16 72.5c0 26 -5.66699 46.5 -17 61.5s-26 26.667 -44 35s-37.833 13.5 -59.5 15.5s-42.834 3 -63.501 3h-168v-248h156zM669.002 292.998h-139.001v848h321c102.667 0 180 -19.167 232 -57.5s78 -100.5 78 -186.5c0 -76.667 -21.167 -132.667 -63.5 -168
s-95.166 -56.333 -158.499 -63l238 -373h-158l-219 362h-131v-362z" />
    <glyph glyph-name="degree" unicode="&#xb0;" horiz-adv-x="966" 
d="M215 773c-56 64.667 -84.001 153.67 -84.001 267.003c0 109.333 30 197.666 90 264.999c63.333 72 151.333 108 264 108s200.334 -35.667 263.001 -107c58.667 -66.667 88 -155.334 88 -266.001c0 -108.667 -31 -197.334 -93 -266.001
c-63.333 -70.667 -149.333 -106 -258 -106c-118.667 0 -208.667 35 -270 105zM613.999 888.003c20.667 36 31 87.333 31 154c0 66 -10.333 116.667 -31 152c-26 45.333 -69 68 -129 68c-64 0 -109.333 -22.667 -136 -68c-20 -34 -30 -84.667 -30 -152
c0 -68 10 -119.333 30 -154c26.667 -46 72 -69 136 -69c60 0 103 23 129 69z" />
    <glyph glyph-name="plusminus" unicode="&#xb1;" horiz-adv-x="1249" 
d="M581 541c-34.667 0 -50.999 25 -48.999 75v226c-56.667 -1.33301 -115.667 -2 -177 -2h-102c-36.667 0 -55 17 -55 51v72c0 32 22.667 47 68 45c15.333 -1.33301 48.333 -2 99 -2h167v294c0 48 17 72 51 72h70c37.333 0 55 -24.667 53 -74
c-0.666992 -12 -1.33398 -45 -2.00098 -99v-193l278 2c44 1.33301 66 -16.667 66 -54v-69c0 -32 -22 -47 -66 -45c-10 0.666992 -41.667 1 -95 1l-183 1v-236c1.33301 -43.333 -15.667 -65 -51 -65h-72zM202.001 307c0 34.667 24.667 51 74 49
c22.667 -0.666992 71 -1 145 -1h226l327 3c48 2 72 -17 72 -57v-59c0 -33.333 -24.667 -49 -74 -47l-706 -2c-42.667 0 -64 19 -64 57v57z" />
    <glyph glyph-name="uni00B2" unicode="&#xb2;" horiz-adv-x="579" 
d="M120 909c-27.333 0 -41.001 11.6641 -41.001 34.9971l-2 66l92 75l70 57c26 22.667 47.667 43.667 65 63c44 48.667 66 93.334 66 134.001c0 49.333 -29.333 74 -88 74c-36.667 0 -74.667 -7.33301 -114 -22c-13.333 -4.66699 -25.666 -10 -36.999 -16
c-8 -4 -13.667 -7 -17 -9l-17 23c-10.667 24.667 -12.667 45.334 -6 62.001c4.66699 12.667 15 23.334 31 32.001c40.667 22 94 33 160 33c142 0 213 -56 213 -168c0.666992 -50 -21 -101.333 -65 -154c-17.333 -20 -39 -42 -65 -66l-122 -106v-8c68 0 139 2 213 6
c25.333 2 37 -9.66699 35 -35v-47c0 -19.333 -13 -29 -39 -29h-332z" />
    <glyph glyph-name="uni00B3" unicode="&#xb3;" horiz-adv-x="610" 
d="M95 1010c2.66699 8.66699 7 17.332 13 25.999l10 13c0 -3.33301 19.333 -11.666 58 -24.999c46.667 -16.667 90.667 -25 132 -25c78 0 117 30.333 117 91c0 47.333 -39 72.333 -117 75h-82c-9.33301 0 -14 7 -14 21v57c0 11.333 4 17 12 17h80c66 0 99 27 99 81
c0 49.333 -33 74 -99 74c-23.333 0 -46.333 -2.33301 -69 -7c-18.667 -3.33301 -36.667 -8.33301 -54 -15c-6.66699 -2 -13.334 -4.66699 -20.001 -8c-4.66699 -2 -9.66699 -4.33301 -15 -7c-3.33301 -2 -6.33301 -3.66699 -9 -5l-5 -3l-16 23
c-19.333 38.667 -14.666 66 14.001 82l22 10c11.333 5.33301 24 10 38 14c37.333 11.333 76 17 116 17c143.333 0 215 -56 215 -168c0 -40.667 -15 -73.667 -45 -99l-16 -12l-29 -14v-6l37 -11l21 -12c38 -24 57 -63 57 -117c0 -117.333 -79.333 -176 -238 -176
c-39.333 0 -78 4.33301 -116 13c-14 3.33301 -27 7 -39 11c-9.33301 3.33301 -16.333 6.33301 -21 9c-34 14 -46.333 39.333 -37 76z" />
    <glyph glyph-name="acute" unicode="&#xb4;" horiz-adv-x="493" 
d="M276 1497h277l-291 -293h-170z" />
    <glyph glyph-name="onequarter" unicode="&#xbc;" horiz-adv-x="1708" 
d="M1146 1483h160l-856 -1530h-162zM75 1300c34 0 66.668 2.83105 98.001 8.49805s59.666 14.334 84.999 26.001s46.5 26.334 63.5 44.001s29.167 39.5 36.5 65.5h143v-885h-178v623h-248v118zM1294 675.998h-5l-239 -324h244v324zM1472 -0.00195312h-178v199h-400v166
l379 512h199v-525h96v-153h-96v-199z" />
    <glyph glyph-name="onehalf" unicode="&#xbd;" horiz-adv-x="1650" 
d="M364 872c3.33301 48 5.66797 111 7.00098 189l3 213l-131 -53c-8.66699 -4 -16.334 -4 -23.001 0c-2 1.33301 -4.33301 3.33301 -7 6l-5 6l-14 29c-12 23.333 -10 39 6 47l209 94h45c17.333 0 29 -7 35 -21c2 -5.33301 3.66699 -12.333 5 -21l1 -22
c-2.66699 -28.667 -3.66699 -78 -3 -148l3 -337c0 -30 -13.667 -45 -41 -45h-41c-13.333 0 -23 2 -29 6c-13.333 4 -20 23 -20 57zM596.002 337l182 379l286 611c17.333 44 39.333 66 66 66h49c39.333 0 46 -26 20 -78l-109 -225l-365 -764l-124 -269
c-16 -38 -42.667 -57 -80 -57h-30c-42 0 -49.667 26 -23 78c25.333 48.667 68 135 128 259zM1062 100c24.667 22.667 54.668 47.3311 90.001 73.998l71 58c26 22 47.667 42.667 65 62c43.333 48.667 65 93.334 65 134.001c0 49.333 -28.667 74 -86 74
c-37.333 0 -75.666 -7 -114.999 -21c-13.333 -5.33301 -26 -10.666 -38 -15.999c-8.66699 -4.66699 -14.334 -8 -17.001 -10l-15 24c-12 24 -14.667 44.333 -8 61c4.66699 12 15 22.333 31 31c40 24 94 35 162 33c138.667 0 209 -55.333 211 -166
c0.666992 -50 -21 -101.333 -65 -154c-16.667 -20 -38.334 -42.333 -65.001 -67l-122 -106v-7l107 1l108 4c23.333 4 35 -7.66699 35 -35v-47c-2 -18 -15.667 -27 -41 -27h-332c-27.333 0 -41 11.667 -41 35v65z" />
    <glyph glyph-name="threequarters" unicode="&#xbe;" horiz-adv-x="1708" 
d="M298 1090c26 -2 51.335 -0.838867 76.002 3.49414s46.5 11.5 65.5 21.5s34.667 23.333 47 40s18.5 37.334 18.5 62.001c0 17.333 -4.5 32.5 -13.5 45.5s-20.167 23.667 -33.5 32s-28.333 14.5 -45 18.5s-33 6 -49 6c-45.333 0 -82.333 -14.667 -111 -44
s-41.667 -66.666 -39 -111.999h-164c4.66699 94.667 35 168.167 91 220.5s131 78.5 225 78.5c38 0 75.167 -4 111.5 -12s68.833 -21.667 97.5 -41s51.5 -44 68.5 -74s25.5 -66.667 25.5 -110c0 -44 -11 -82 -33 -114s-54.667 -55.667 -98 -71v-4
c52 -9.33301 93 -33.166 123 -71.499s45 -86.166 45 -143.499c0 -44.667 -8.83301 -84.5 -26.5 -119.5s-42 -64.333 -73 -88s-66.833 -41.667 -107.5 -54s-84.334 -18.5 -131.001 -18.5c-112 0 -195.333 28 -250 84s-83.334 133.667 -86.001 233h164
c-2.66699 -48 11 -89 41 -123s73.667 -51 131 -51c48 0 89 13 123 39s51 61.333 51 106c0 33.333 -7.16699 59.5 -21.5 78.5s-32.833 33.333 -55.5 43s-48.667 15.834 -78 18.501s-59 3.33398 -89 2.00098v119zM1259 1482.99h159l-856 -1530h-161zM1369 675.994h-4
l-239 -324h243v324zM1548 -0.00585938h-179v199h-399v166l375 512h203v-525h96v-153h-96v-199z" />
    <glyph glyph-name="Agrave" unicode="&#xc0;" 
d="M183 289l387.999 1032c15.333 48 47.333 72 96 72h68c50 0 84.667 -28 104 -84l459 -1250c10.667 -39.333 -5 -59 -47 -59h-41c-14.667 0 -26.667 2 -36 6c-8 3.33301 -14.667 8.33301 -20 15c-4 5.33301 -7.33301 12 -10 20l-3 9l-3 9l-21 53l-61 159l-32 81h-650
l-35 -93l-75 -196c-12.667 -42 -36 -63 -70 -63h-61c-37.333 0 -47.666 22 -30.999 66c6 19.333 33 93.666 81 222.999zM982.999 481.001l-170 465c-56 156 -92.333 259 -109 309h-12l-106 -307l-83 -229l-90 -238h570zM506.999 1709
c-18.667 13.333 -19.001 30.333 -1.00098 51l42 44c14.667 16.667 33 16 55 -2l63 -49l196 -151c4.66699 -4 9.66699 -7.66699 15 -11c2.66699 -2.66699 6.33398 -5.66699 11.001 -9c20.667 -16 20 -34 -2 -54l-22 -19c-16.667 -16 -35.667 -16.333 -57 -1z" />
    <glyph glyph-name="Aacute" unicode="&#xc1;" 
d="M183 289l387.999 1032c15.333 48 47.333 72 96 72h68c50 0 84.667 -28 104 -84l459 -1250c10.667 -39.333 -5 -59 -47 -59h-41c-14.667 0 -26.667 2 -36 6c-8 3.33301 -14.667 8.33301 -20 15c-4 5.33301 -7.33301 12 -10 20l-3 9l-3 9l-21 53l-61 159l-32 81h-650
l-35 -93l-75 -196c-12.667 -42 -36 -63 -70 -63h-61c-37.333 0 -47.666 22 -30.999 66c6 19.333 33 93.666 81 222.999zM982.999 481.001l-170 465c-56 156 -92.333 259 -109 309h-12l-106 -307l-83 -229l-90 -238h570zM587.999 1508
c-20.667 -15.333 -39.6689 -15 -57.002 1l-21 19c-22 20 -23 38 -3 54c5.33301 3.33301 9.33301 6.33301 12 9c4.66699 3.33301 9.33398 7 14.001 11l197 151l62 49c22 18 40.667 18.667 56 2l41 -44c18.667 -20.667 18.334 -37.667 -0.999023 -51z" />
    <glyph glyph-name="Acircumflex" unicode="&#xc2;" 
d="M183 289l387.999 1032c15.333 48 47.333 72 96 72h68c50 0 84.667 -28 104 -84l459 -1250c10.667 -39.333 -5 -59 -47 -59h-41c-14.667 0 -26.667 2 -36 6c-8 3.33301 -14.667 8.33301 -20 15c-4 5.33301 -7.33301 12 -10 20l-3 9l-3 9l-21 53l-61 159l-32 81h-650
l-35 -93l-75 -196c-12.667 -42 -36 -63 -70 -63h-61c-37.333 0 -47.666 22 -30.999 66c6 19.333 33 93.666 81 222.999zM982.999 481.001l-170 465c-56 156 -92.333 259 -109 309h-12l-106 -307l-83 -229l-90 -238h570zM506.999 1503
c-18 -11.333 -35.3359 -7.66797 -52.0029 10.999l-20 26c-16.667 22.667 -13 42.334 11 59.001l117 87c22.667 16 41.334 29.667 56.001 41c20.667 14.667 38.334 28.334 53.001 41.001c4.66699 4 10 7.33301 16 10h9c8.66699 0 17.334 -3.33301 26.001 -10l226 -169
c24 -16.667 28 -36.334 12 -59.001l-22 -26c-15.333 -18 -32 -21.667 -50 -11l-192 121z" />
    <glyph glyph-name="Atilde" unicode="&#xc3;" 
d="M183 289l387.999 1032c15.333 48 47.333 72 96 72h68c50 0 84.667 -28 104 -84l459 -1250c10.667 -39.333 -5 -59 -47 -59h-41c-14.667 0 -26.667 2 -36 6c-8 3.33301 -14.667 8.33301 -20 15c-4 5.33301 -7.33301 12 -10 20l-3 9l-3 9l-21 53l-61 159l-32 81h-650
l-35 -93l-75 -196c-12.667 -42 -36 -63 -70 -63h-61c-37.333 0 -47.666 22 -30.999 66c6 19.333 33 93.666 81 222.999zM982.999 481.001l-170 465c-56 156 -92.333 259 -109 309h-12l-106 -307l-83 -229l-90 -238h570zM468.999 1555c-19.333 13.333 -25 29.667 -17 49
c12.667 30 29.334 56 50.001 78c27.333 28 56.666 43.667 87.999 47c21.333 1.33301 42.333 -1.66699 63 -9c16 -6 33.667 -15 53 -27l42 -28c14.667 -8 26.667 -11.667 36 -11c16.667 2 32.334 10.667 47.001 26l11 11c1.33301 2 2.66602 4.33301 3.99902 7
c0 0.666992 1.33301 2.66699 4 6c13.333 21.333 30.333 23.666 51 6.99902l32 -27c15.333 -12 18 -29.333 8 -52c-16 -27.333 -33.667 -49 -53 -65c-25.333 -22 -55.333 -34.667 -90 -38c-20.667 -1.33301 -41.334 1.66699 -62.001 9c-14 5.33301 -30.667 14.333 -50 27
l-23 13l-21 14c-14.667 6.66699 -27.667 9.66699 -39 9c-13.333 -1.33301 -26 -8.66602 -38 -21.999c-7.33301 -9.33301 -14.333 -22 -21 -38c-7.33301 -18 -23.666 -18.667 -48.999 -2z" />
    <glyph glyph-name="AE" unicode="&#xc6;" horiz-adv-x="1824" 
d="M100 0c-24.667 0 -37.332 14.002 -37.999 42.002c-0.666992 23.333 5.66602 50.333 18.999 81l104 214l472 953c15.333 33.333 32.666 57.666 51.999 72.999c26 20 60.333 30 103 30l797 -2c46.667 0 70 -25.333 70 -76v-58c0 -45.333 -24 -67 -72 -65l-569 2l-6 -414
l493 2c38 2.66699 57 -17 57 -59v-61c2 -40.667 -15.667 -60 -53 -58l-77 1l-425 1l3 -409l581 2c45.333 2 68 -20.667 68 -68v-57c0 -49.333 -22.667 -74 -68 -74h-719c-33.333 0 -55.333 10.667 -66 32c-6 13.333 -9 37.333 -9 72v232h-410l-12 -25l-28 -60
c-29.333 -64.667 -51.666 -116.334 -66.999 -155.001l-13 -38l-14 -31c-12 -18 -33 -27 -63 -27h-110zM821.002 500.002c2 68 3.66699 132.002 5 192.002l13 537h-14c-30.667 -56.667 -84.667 -167.334 -162 -332.001l-99 -218c-33.333 -74.667 -59 -134.334 -77 -179.001
h334z" />
    <glyph glyph-name="Egrave" unicode="&#xc8;" horiz-adv-x="1253" 
d="M216 324l-8 995.001c0 14.667 1.33301 26.667 4 36c7.33301 25.333 27.333 38 60 38h776c34.667 0 52 -18.667 52 -56v-43c0 -34 -17.333 -51 -52 -51h-671v-483l585 2c27.333 2.66699 41 -12.333 41 -45v-55c0 -26 -13 -39 -39 -39h-587v-249
c0 -88.667 0.666992 -163.334 2 -224.001h371c75.333 0 137 0.333008 185 1c56.667 0.666992 93.667 1.66699 111 3c34.667 2 52 -16.667 52 -56v-55c0 -28.667 -17.333 -43 -52 -43h-770c-44 0 -64.333 32.667 -61 98c0.666992 24.667 1 100 1 226zM464 1709
c-19.333 13.333 -19.668 30.333 -1.00098 51l41 44c14.667 16.667 33 16 55 -2l63 -49l196 -151l15 -11c2.66699 -2.66699 6.33398 -5.66699 11.001 -9c20.667 -16 20 -34 -2 -54l-22 -19c-16.667 -16 -35.667 -16.333 -57 -1z" />
    <glyph glyph-name="Eacute" unicode="&#xc9;" horiz-adv-x="1253" 
d="M216 324l-8 995.001c0 14.667 1.33301 26.667 4 36c7.33301 25.333 27.333 38 60 38h776c34.667 0 52 -18.667 52 -56v-43c0 -34 -17.333 -51 -52 -51h-671v-483l585 2c27.333 2.66699 41 -12.333 41 -45v-55c0 -26 -13 -39 -39 -39h-587v-249
c0 -88.667 0.666992 -163.334 2 -224.001h371c75.333 0 137 0.333008 185 1c56.667 0.666992 93.667 1.66699 111 3c34.667 2 52 -16.667 52 -56v-55c0 -28.667 -17.333 -43 -52 -43h-770c-44 0 -64.333 32.667 -61 98c0.666992 24.667 1 100 1 226zM545 1508
c-21.333 -15.333 -40.335 -15 -57.002 1l-22 19c-22 20 -22.667 38 -2 54c4.66699 3.33301 8.33398 6.33301 11.001 9l15 11l196 151l63 49c22 18 40.333 18.667 55 2l41 -44c18.667 -20.667 18.334 -37.667 -0.999023 -51z" />
    <glyph glyph-name="Ecircumflex" unicode="&#xca;" horiz-adv-x="1253" 
d="M216 324l-8 995.001c0 14.667 1.33301 26.667 4 36c7.33301 25.333 27.333 38 60 38h776c34.667 0 52 -18.667 52 -56v-43c0 -34 -17.333 -51 -52 -51h-671v-483l585 2c27.333 2.66699 41 -12.333 41 -45v-55c0 -26 -13 -39 -39 -39h-587v-249
c0 -88.667 0.666992 -163.334 2 -224.001h371c75.333 0 137 0.333008 185 1c56.667 0.666992 93.667 1.66699 111 3c34.667 2 52 -16.667 52 -56v-55c0 -28.667 -17.333 -43 -52 -43h-770c-44 0 -64.333 32.667 -61 98c0.666992 24.667 1 100 1 226zM463 1503
c-18 -11.333 -35.3359 -7.66797 -52.0029 10.999l-20 26c-16.667 22.667 -13 42.334 11 59.001l117 87c22.667 16 41.334 29.667 56.001 41c20.667 14.667 38.334 28.334 53.001 41.001c4.66699 4 10 7.33301 16 10h9c8.66699 0 17.334 -3.33301 26.001 -10l226 -169
c24 -16.667 28 -36.334 12 -59.001l-22 -26c-15.333 -18 -32 -21.667 -50 -11l-192 121z" />
    <glyph glyph-name="Igrave" unicode="&#xcc;" horiz-adv-x="641" 
d="M232 1310l-0.998047 27.999c0 6.66699 0.666992 12.334 2 17.001c4.66699 25.333 23 38 55 38h57c41.333 0 60.666 -32.333 57.999 -97l-4 -424l4 -763l2 -27c0 -4 0.333008 -7 1 -9c1.33301 -15.333 1 -27.333 -1 -36c-4.66699 -24.667 -23.334 -37 -56.001 -37h-55
c-41.333 0 -60.333 32.667 -57 98zM124.002 1709c-19.333 13.333 -19.667 30.333 -1 51l41 44c15.333 16.667 33.666 16 54.999 -2l63 -49l197 -151c4.66699 -4 9.33398 -7.66699 14.001 -11c2.66699 -2.66699 6.66699 -5.66699 12 -9c20 -16 19 -34 -3 -54l-21 -19
c-17.333 -16 -36.333 -16.333 -57 -1z" />
    <glyph glyph-name="Iacute" unicode="&#xcd;" horiz-adv-x="641" 
d="M232 1310l-0.998047 27.999c0 6.66699 0.666992 12.334 2 17.001c4.66699 25.333 23 38 55 38h57c41.333 0 60.666 -32.333 57.999 -97l-4 -424l4 -763l2 -27c0 -4 0.333008 -7 1 -9c1.33301 -15.333 1 -27.333 -1 -36c-4.66699 -24.667 -23.334 -37 -56.001 -37h-55
c-41.333 0 -60.333 32.667 -57 98zM204.002 1508c-20.667 -15.333 -39.668 -15 -57.001 1l-21 19c-22 20 -23 38 -3 54c5.33301 3.33301 9.33301 6.33301 12 9c4.66699 3.33301 9.33398 7 14.001 11l197 151l63 49c21.333 18 39.666 18.667 54.999 2l41 -44
c18.667 -20.667 18.334 -37.667 -0.999023 -51z" />
    <glyph glyph-name="Ograve" unicode="&#xd2;" horiz-adv-x="1513" 
d="M293 1206c112 138 269.332 207 471.999 207c190.667 0 341.334 -68.667 452.001 -206c104.667 -130.667 157.667 -301 159 -511c2 -210.667 -50.667 -381.334 -158 -512.001c-112 -136 -265 -204 -459 -204c-205.333 0 -362 68 -470 204
c-99.333 124.667 -149.333 295.334 -150 512.001c-1.33301 211.333 50 381.333 154 510zM409.999 296c78 -115.333 195 -172.999 351 -172.999c149.333 0 263 58.333 341 175c69.333 102.667 104 236 104 400c0 167.333 -34.333 301 -103 401
c-77.333 114 -191.333 171 -342 171c-154.667 0 -271 -57 -349 -171c-67.333 -98.667 -101 -232.334 -101 -401.001c-1.33301 -168 31.667 -302 99 -402zM566.999 1709c-19.333 13.333 -19.668 30.333 -1.00098 51l41 44c15.333 16.667 34 16 56 -2l62 -49l197 -151
c4.66699 -4 9.33398 -7.66699 14.001 -11c3.33301 -2.66699 7.33301 -5.66699 12 -9c20 -16 19.333 -34 -2 -54l-22 -19c-17.333 -16 -36.333 -16.333 -57 -1z" />
    <glyph glyph-name="Oacute" unicode="&#xd3;" horiz-adv-x="1513" 
d="M293 1206c112 138 269.332 207 471.999 207c190.667 0 341.334 -68.667 452.001 -206c104.667 -130.667 157.667 -301 159 -511c2 -210.667 -50.667 -381.334 -158 -512.001c-112 -136 -265 -204 -459 -204c-205.333 0 -362 68 -470 204
c-99.333 124.667 -149.333 295.334 -150 512.001c-1.33301 211.333 50 381.333 154 510zM409.999 296c78 -115.333 195 -172.999 351 -172.999c149.333 0 263 58.333 341 175c69.333 102.667 104 236 104 400c0 167.333 -34.333 301 -103 401
c-77.333 114 -191.333 171 -342 171c-154.667 0 -271 -57 -349 -171c-67.333 -98.667 -101 -232.334 -101 -401.001c-1.33301 -168 31.667 -302 99 -402zM647.999 1508c-20.667 -15.333 -39.6689 -15 -57.002 1l-22 19c-21.333 20 -22 38 -2 54
c4.66699 3.33301 8.66699 6.33301 12 9c4.66699 3.33301 9.33398 7 14.001 11l197 151l62 49c22 18 40.667 18.667 56 2l41 -44c18.667 -20.667 18.334 -37.667 -0.999023 -51z" />
    <glyph glyph-name="Ocircumflex" unicode="&#xd4;" horiz-adv-x="1513" 
d="M293 1206c112 138 269.332 207 471.999 207c190.667 0 341.334 -68.667 452.001 -206c104.667 -130.667 157.667 -301 159 -511c2 -210.667 -50.667 -381.334 -158 -512.001c-112 -136 -265 -204 -459 -204c-205.333 0 -362 68 -470 204
c-99.333 124.667 -149.333 295.334 -150 512.001c-1.33301 211.333 50 381.333 154 510zM409.999 296c78 -115.333 195 -172.999 351 -172.999c149.333 0 263 58.333 341 175c69.333 102.667 104 236 104 400c0 167.333 -34.333 301 -103 401
c-77.333 114 -191.333 171 -342 171c-154.667 0 -271 -57 -349 -171c-67.333 -98.667 -101 -232.334 -101 -401.001c-1.33301 -168 31.667 -302 99 -402zM566.999 1503c-18 -11.333 -35.3359 -7.66797 -52.0029 10.999l-20 26c-16.667 22.667 -13 42.334 11 59.001l117 87
c22.667 16 41.334 29.667 56.001 41c20.667 14.667 38.334 28.334 53.001 41.001c4.66699 4 10 7.33301 16 10h9c8.66699 0 17.334 -3.33301 26.001 -10l226 -169c24 -16.667 28 -36.334 12 -59.001l-22 -26c-15.333 -18 -32 -21.667 -50 -11l-192 121z" />
    <glyph glyph-name="Otilde" unicode="&#xd5;" horiz-adv-x="1513" 
d="M293 1206c112 138 269.332 207 471.999 207c190.667 0 341.334 -68.667 452.001 -206c104.667 -130.667 157.667 -301 159 -511c2 -210.667 -50.667 -381.334 -158 -512.001c-112 -136 -265 -204 -459 -204c-205.333 0 -362 68 -470 204
c-99.333 124.667 -149.333 295.334 -150 512.001c-1.33301 211.333 50 381.333 154 510zM409.999 296c78 -115.333 195 -172.999 351 -172.999c149.333 0 263 58.333 341 175c69.333 102.667 104 236 104 400c0 167.333 -34.333 301 -103 401
c-77.333 114 -191.333 171 -342 171c-154.667 0 -271 -57 -349 -171c-67.333 -98.667 -101 -232.334 -101 -401.001c-1.33301 -168 31.667 -302 99 -402zM528.999 1555c-19.333 13.333 -25 29.667 -17 49c12.667 30 29.334 56 50.001 78c27.333 28 56.666 43.667 87.999 47
c21.333 1.33301 42.333 -1.66699 63 -9c16 -6 33.667 -15 53 -27l42 -28c14.667 -8 26.667 -11.667 36 -11c16.667 2 32.334 10.667 47.001 26l11 11c1.33301 2 2.66602 4.33301 3.99902 7c0 0.666992 1.33301 2.66699 4 6c13.333 21.333 30.333 23.666 51 6.99902l32 -27
c15.333 -12 18 -29.333 8 -52c-16 -27.333 -33.667 -49 -53 -65c-25.333 -22 -55.333 -34.667 -90 -38c-20.667 -1.33301 -41.334 1.66699 -62.001 9c-14 5.33301 -30.667 14.333 -50 27l-23 13l-21 14c-14.667 6.66699 -27.667 9.66699 -39 9
c-13.333 -1.33301 -26 -8.66602 -38 -21.999c-7.33301 -9.33301 -14.333 -22 -21 -38c-7.33301 -18 -23.666 -18.667 -48.999 -2z" />
    <glyph glyph-name="Ugrave" unicode="&#xd9;" horiz-adv-x="1497" 
d="M190 861l1 448.002c2.66699 56 20.667 84 54 84h61c36.667 0 55 -24.667 55 -74c-0.666992 -22 -1 -98.333 -1 -229l-1 -443c0 -171.333 27.667 -298.666 83 -381.999c62.667 -94.667 165.667 -142 309 -142c134.667 0 233 46.667 295 140
c56.667 85.333 85 214.666 85 387.999l3 658c0 56 16.333 84 49 84h59c43.333 0 64 -24.667 62 -74l-4 -531c-0.666992 -70.667 -1.66699 -117 -3 -139c-2.66699 -106.667 -12.667 -198.334 -30 -275.001c-19.333 -84.667 -48.666 -155 -87.999 -211
c-86.667 -122 -230.334 -183 -431.001 -183c-208 0 -355.333 60.333 -442 181c-40 56 -69.333 126.333 -88 211c-16.667 76 -25.667 167.667 -27 275c-0.666992 61.333 -1 132.666 -1 213.999zM557 1709c-19.333 13.333 -19.668 30.333 -1.00098 51l41 44
c15.333 16.667 33.666 16 54.999 -2l63 -49l197 -151c4.66699 -4 9.33398 -7.66699 14.001 -11c2.66699 -2.66699 6.33398 -5.66699 11.001 -9c20.667 -16 20 -34 -2 -54l-22 -19c-16.667 -16 -35.667 -16.333 -57 -1z" />
    <glyph glyph-name="Uacute" unicode="&#xda;" horiz-adv-x="1497" 
d="M190 861l1 448.002c2.66699 56 20.667 84 54 84h61c36.667 0 55 -24.667 55 -74c-0.666992 -22 -1 -98.333 -1 -229l-1 -443c0 -171.333 27.667 -298.666 83 -381.999c62.667 -94.667 165.667 -142 309 -142c134.667 0 233 46.667 295 140
c56.667 85.333 85 214.666 85 387.999l3 658c0 56 16.333 84 49 84h59c43.333 0 64 -24.667 62 -74l-4 -531c-0.666992 -70.667 -1.66699 -117 -3 -139c-2.66699 -106.667 -12.667 -198.334 -30 -275.001c-19.333 -84.667 -48.666 -155 -87.999 -211
c-86.667 -122 -230.334 -183 -431.001 -183c-208 0 -355.333 60.333 -442 181c-40 56 -69.333 126.333 -88 211c-16.667 76 -25.667 167.667 -27 275c-0.666992 61.333 -1 132.666 -1 213.999zM638 1508c-21.333 -15.333 -40.334 -15 -57.001 1l-22 19
c-22 20 -22.667 38 -2 54c4.66699 3.33301 8.33398 6.33301 11.001 9l15 11l196 151l63 49c22 18 40.333 18.667 55 2l42 -44c18 -20.667 17.333 -37.667 -2 -51z" />
    <glyph glyph-name="Yacute" unicode="&#xdd;" horiz-adv-x="1273" 
d="M551 582c-18.667 31.333 -54.335 86.999 -107.002 166.999l-157 239l-147 221l-76 114l-8 18c-2 8 -2.66699 15.667 -2 23c2.66699 19.333 15.334 29 38.001 29h74c20.667 0 37.667 -6.33301 51 -19c5.33301 -4.66699 10.333 -11 15 -19c2 -2.66699 4 -6 6 -10l6 -10
c12 -21.333 35.333 -59.666 70 -114.999l111 -173l165 -254l37 -58h14l217 333l114 180c34 54.667 54 88 60 100c17.333 30 45.333 45 84 45h64c18 0 30.333 -7.66699 37 -23s5.33398 -30.333 -3.99902 -45c-10.667 -14.667 -40 -57.667 -88 -129l-151 -229l-20 -31
l-237 -356v-390c0.666992 -45.333 1.33398 -72.333 2.00098 -81l2 -27c0.666992 -4 1 -7 1 -9c1.33301 -15.333 1.33301 -27.333 0 -36c-4.66699 -24.667 -23.334 -37 -56.001 -37h-58c-45.333 0 -65 32.667 -59 98zM527.999 1508c-20.667 -15.333 -39.6689 -15 -57.002 1
l-22 19c-21.333 20 -22 38 -2 54c4.66699 3.33301 8.66699 6.33301 12 9c4.66699 3.33301 9.33398 7 14.001 11l197 151l62 49c22 18 40.667 18.667 56 2l41 -44c18.667 -20.667 18.334 -37.667 -0.999023 -51z" />
    <glyph glyph-name="agrave" unicode="&#xe0;" horiz-adv-x="1173" 
d="M517 668c66.667 0 136.334 -8.33398 209.001 -25.001c27.333 -6 52.333 -12.333 75 -19c19.333 -6 33 -11.333 41 -16v125c0 178.667 -91.333 268 -274 268c-44.667 0 -89.334 -4.66699 -134.001 -14c-35.333 -7.33301 -70 -18 -104 -32
c-24 -9.33301 -46.667 -19.666 -68 -30.999c-16 -9.33301 -24 -14.333 -24 -15c-2.66699 2 -7.33398 7.66699 -14.001 17c-9.33301 12 -16.333 24.333 -21 37c-14.667 38 -7 70 23 96c68.667 58.667 188 88 358 88c282 0 420.667 -138 416 -414l-2 -526l8 -167
c0.666992 -14 -0.666016 -24.667 -3.99902 -32c-8.66699 -18.667 -36 -28 -82 -28c-38 0 -62.333 18.333 -73 55c-8 27.333 -8.33301 68.333 -1 123h-10c0 -2 -8.66699 -11.333 -26 -28c-23.333 -22.667 -48.333 -43 -75 -61c-38 -26 -77 -46.667 -117 -62
c-50.667 -18 -101.334 -27 -152.001 -27c-116.667 0 -206.667 34.667 -270 104c-57.333 63.333 -85 144 -83 242c4.66699 223.333 139.334 337.333 404.001 342zM507 112.999c74.667 0 145 21 211 63c59.333 38 100 81.667 122 131v189c-8.66699 3.33301 -21 7.33301 -37 12
l-64 16c-62.667 12.667 -125 19 -187 19c-181.333 0 -273 -71 -275 -213c0 -144.667 76.667 -217 230 -217zM379 1446c-19.333 13.333 -19.668 30.333 -1.00098 51l41 44c15.333 16.667 34 16 56 -2l62 -49l197 -151c4.66699 -4 9.33398 -7.66699 14.001 -11
c3.33301 -2.66699 7.33301 -5.66699 12 -9c20 -16 19.333 -34 -2 -54l-22 -19c-17.333 -16 -36.333 -16.333 -57 -1z" />
    <glyph glyph-name="aacute" unicode="&#xe1;" horiz-adv-x="1173" 
d="M517 668c66.667 0 136.334 -8.33398 209.001 -25.001c27.333 -6 52.333 -12.333 75 -19c19.333 -6 33 -11.333 41 -16v125c0 178.667 -91.333 268 -274 268c-44.667 0 -89.334 -4.66699 -134.001 -14c-35.333 -7.33301 -70 -18 -104 -32
c-24 -9.33301 -46.667 -19.666 -68 -30.999c-16 -9.33301 -24 -14.333 -24 -15c-2.66699 2 -7.33398 7.66699 -14.001 17c-9.33301 12 -16.333 24.333 -21 37c-14.667 38 -7 70 23 96c68.667 58.667 188 88 358 88c282 0 420.667 -138 416 -414l-2 -526l8 -167
c0.666992 -14 -0.666016 -24.667 -3.99902 -32c-8.66699 -18.667 -36 -28 -82 -28c-38 0 -62.333 18.333 -73 55c-8 27.333 -8.33301 68.333 -1 123h-10c0 -2 -8.66699 -11.333 -26 -28c-23.333 -22.667 -48.333 -43 -75 -61c-38 -26 -77 -46.667 -117 -62
c-50.667 -18 -101.334 -27 -152.001 -27c-116.667 0 -206.667 34.667 -270 104c-57.333 63.333 -85 144 -83 242c4.66699 223.333 139.334 337.333 404.001 342zM507 112.999c74.667 0 145 21 211 63c59.333 38 100 81.667 122 131v189c-8.66699 3.33301 -21 7.33301 -37 12
l-64 16c-62.667 12.667 -125 19 -187 19c-181.333 0 -273 -71 -275 -213c0 -144.667 76.667 -217 230 -217zM460 1245c-20.667 -15.333 -39.6689 -15 -57.002 1l-22 19c-21.333 20 -22 38 -2 54c4.66699 3.33301 8.66699 6.33301 12 9c4.66699 3.33301 9.33398 7 14.001 11
l197 151l62 49c22 18 40.667 18.667 56 2l41 -44c18.667 -20.667 18.334 -37.667 -0.999023 -51z" />
    <glyph glyph-name="acircumflex" unicode="&#xe2;" horiz-adv-x="1173" 
d="M517 668c66.667 0 136.334 -8.33398 209.001 -25.001c27.333 -6 52.333 -12.333 75 -19c19.333 -6 33 -11.333 41 -16v125c0 178.667 -91.333 268 -274 268c-44.667 0 -89.334 -4.66699 -134.001 -14c-35.333 -7.33301 -70 -18 -104 -32
c-24 -9.33301 -46.667 -19.666 -68 -30.999c-16 -9.33301 -24 -14.333 -24 -15c-2.66699 2 -7.33398 7.66699 -14.001 17c-9.33301 12 -16.333 24.333 -21 37c-14.667 38 -7 70 23 96c68.667 58.667 188 88 358 88c282 0 420.667 -138 416 -414l-2 -526l8 -167
c0.666992 -14 -0.666016 -24.667 -3.99902 -32c-8.66699 -18.667 -36 -28 -82 -28c-38 0 -62.333 18.333 -73 55c-8 27.333 -8.33301 68.333 -1 123h-10c0 -2 -8.66699 -11.333 -26 -28c-23.333 -22.667 -48.333 -43 -75 -61c-38 -26 -77 -46.667 -117 -62
c-50.667 -18 -101.334 -27 -152.001 -27c-116.667 0 -206.667 34.667 -270 104c-57.333 63.333 -85 144 -83 242c4.66699 223.333 139.334 337.333 404.001 342zM507 112.999c74.667 0 145 21 211 63c59.333 38 100 81.667 122 131v189c-8.66699 3.33301 -21 7.33301 -37 12
l-64 16c-62.667 12.667 -125 19 -187 19c-181.333 0 -273 -71 -275 -213c0 -144.667 76.667 -217 230 -217zM382 1240c-18 -11.333 -35.3359 -7.66797 -52.0029 10.999l-20 26c-16.667 22.667 -13 42.334 11 59.001l117 87c22.667 16 41.334 29.667 56.001 41
c20.667 14.667 38.334 28.334 53.001 41.001c4.66699 4 10 7.33301 16 10h9c8.66699 0 17.334 -3.33301 26.001 -10l226 -169c24 -16.667 28 -36.334 12 -59.001l-22 -26c-15.333 -18 -32 -21.667 -50 -11l-192 121z" />
    <glyph glyph-name="atilde" unicode="&#xe3;" horiz-adv-x="1173" 
d="M517 668c66.667 0 136.334 -8.33398 209.001 -25.001c27.333 -6 52.333 -12.333 75 -19c19.333 -6 33 -11.333 41 -16v125c0 178.667 -91.333 268 -274 268c-44.667 0 -89.334 -4.66699 -134.001 -14c-35.333 -7.33301 -70 -18 -104 -32
c-24 -9.33301 -46.667 -19.666 -68 -30.999c-16 -9.33301 -24 -14.333 -24 -15c-2.66699 2 -7.33398 7.66699 -14.001 17c-9.33301 12 -16.333 24.333 -21 37c-14.667 38 -7 70 23 96c68.667 58.667 188 88 358 88c282 0 420.667 -138 416 -414l-2 -526l8 -167
c0.666992 -14 -0.666016 -24.667 -3.99902 -32c-8.66699 -18.667 -36 -28 -82 -28c-38 0 -62.333 18.333 -73 55c-8 27.333 -8.33301 68.333 -1 123h-10c0 -2 -8.66699 -11.333 -26 -28c-23.333 -22.667 -48.333 -43 -75 -61c-38 -26 -77 -46.667 -117 -62
c-50.667 -18 -101.334 -27 -152.001 -27c-116.667 0 -206.667 34.667 -270 104c-57.333 63.333 -85 144 -83 242c4.66699 223.333 139.334 337.333 404.001 342zM507 112.999c74.667 0 145 21 211 63c59.333 38 100 81.667 122 131v189c-8.66699 3.33301 -21 7.33301 -37 12
l-64 16c-62.667 12.667 -125 19 -187 19c-181.333 0 -273 -71 -275 -213c0 -144.667 76.667 -217 230 -217zM341 1292c-19.333 13.333 -25 29.667 -17 49c12.667 30 29.334 56 50.001 78c27.333 28 56.666 43.667 87.999 47c21.333 1.33301 42.333 -1.66699 63 -9
c16 -6 33.667 -15 53 -27l42 -28c14.667 -8 26.667 -11.667 36 -11c16.667 2 32.334 10.667 47.001 26l11 11c1.33301 2 2.66602 4.33301 3.99902 7c0 0.666992 1.33301 2.66699 4 6c13.333 21.333 30.333 23.666 51 6.99902l32 -27c15.333 -12 18 -29.333 8 -52
c-16 -27.333 -33.667 -49 -53 -65c-25.333 -22 -55.333 -34.667 -90 -38c-20.667 -1.33301 -41.334 1.66699 -62.001 9c-14 5.33301 -30.667 14.333 -50 27l-23 13l-21 14c-14.667 6.66699 -27.667 9.66699 -39 9c-13.333 -1.33301 -26 -8.66602 -38 -21.999
c-7.33301 -9.33301 -14.333 -22 -21 -38c-7.33301 -18 -23.666 -18.667 -48.999 -2z" />
    <glyph glyph-name="ae" unicode="&#xe6;" horiz-adv-x="1859" 
d="M213 575c71.333 62 166.667 93.002 286 93.002c58.667 0 120 -7.33301 184 -22c48 -10 84.333 -20.667 109 -32c4 37.333 6 77 6 119c0 78.667 -23.667 136.667 -71 174c-41.333 31.333 -99.333 47 -174 47c-39.333 0 -79 -4.33301 -119 -13
c-32 -7.33301 -64 -17.333 -96 -30l-63 -29l-24 -14c0 -1.33301 -4.66699 5 -14 19c-4.66699 6.66699 -9 13.667 -13 21l-13 26c-20 50.667 -12 93 24 127c62 57.333 176 86 342 86c166.667 0 292.334 -55.333 377.001 -166c86 110.667 204 166 354 166
c136 0 245 -42 327 -126c76 -77.333 114 -172.666 114 -285.999c0 -82.667 -10 -139.334 -30 -170.001c-16 -24.667 -43 -37 -81 -37l-627 -4l-4 -6c0 -100 26.333 -183.333 79 -250c58.667 -74.667 139.667 -112 243 -112c40 0 80.667 5 122 15
c32.667 8.66699 65 20.667 97 36c22.667 10.667 44.667 23 66 37l30 20c0 2.66699 6.66699 -2 20 -14l16 -20c6.66699 -8 11.667 -17 15 -27c21.333 -54.667 12 -96.334 -28 -125.001c-4.66699 -3.33301 -10.334 -7 -17.001 -11c-8 -5.33301 -16.333 -10.333 -25 -15
c-22.667 -12 -47 -23 -73 -33c-72 -26 -146.333 -39 -223 -39c-207.333 0 -355 72.333 -443 217h-12c0 -2.66699 -8.33301 -14 -25 -34c-23.333 -27.333 -49.666 -52.333 -78.999 -75c-41.333 -31.333 -86 -56.333 -134 -75c-60.667 -22 -125.334 -33 -194.001 -33
c-106.667 0 -191 33.667 -253 101c-56.667 63.333 -85 143.666 -85 240.999c0 106.667 36.333 191 109 253zM1534 676.002l0.000976562 4.99902l2 14l2 40c0 156 -78 234 -234 234c-98.667 0 -174.334 -35.333 -227.001 -106c-40 -53.333 -61.333 -115.666 -64 -186.999h521
zM510.002 156.001c65.333 0 125.666 19.333 180.999 58c50.667 35.333 83.667 76 99 122v141l-32 10c-16 4 -33.333 7.66699 -52 11c-49.333 9.33301 -97.666 14 -144.999 14c-157.333 0 -236 -60.667 -236 -182c0 -116 61.667 -174 185 -174z" />
    <glyph glyph-name="egrave" unicode="&#xe8;" horiz-adv-x="1191" 
d="M255 981c92.667 110.667 215.668 166 369.001 166c131.333 0 237.333 -42.333 318 -127c74.667 -78 112 -171.667 112 -281c0 -81.333 -8.66699 -135.333 -26 -162c-12.667 -18.667 -36 -28 -70 -28h-672l-4 -6c0 -122.667 28.667 -222.667 86 -300
c64.667 -86.667 157.334 -130 278.001 -130c41.333 0 82.333 5.33301 123 16c33.333 8.66699 65.666 20.667 96.999 36c23.333 11.333 45 23.666 65 36.999c7.33301 4.66699 14 9.33398 20 14.001l9 7c0 2 5 -1 15 -9l14 -14c5.33301 -6.66699 10 -14 14 -22
c18 -38.667 11 -70.667 -21 -96c-9.33301 -8.66699 -23.333 -18 -42 -28c-22 -12.667 -46.333 -24 -73 -34c-71.333 -26.667 -145 -40 -221 -40c-176.667 0 -310.334 56 -401.001 168c-82 102 -123 242.333 -123 421c0 168 44.333 305.333 133 412zM890.001 668l1 6.00293
c0 5.33301 0.333008 10.666 1 15.999l2 49c0 79.333 -22.667 143.666 -68 192.999c-48.667 53.333 -116.667 80 -204 80c-108.667 0 -193.667 -42 -255 -126c-47.333 -64.667 -73 -137.334 -77 -218.001h600zM439.001 1446c-19.333 13.333 -19.668 30.333 -1.00098 51l41 44
c15.333 16.667 34 16 56 -2l62 -49l197 -151c4.66699 -4 9.33398 -7.66699 14.001 -11c3.33301 -2.66699 7.33301 -5.66699 12 -9c20 -16 19.333 -34 -2 -54l-22 -19c-17.333 -16 -36.333 -16.333 -57 -1z" />
    <glyph glyph-name="eacute" unicode="&#xe9;" horiz-adv-x="1191" 
d="M255 981c92.667 110.667 215.668 166 369.001 166c131.333 0 237.333 -42.333 318 -127c74.667 -78 112 -171.667 112 -281c0 -81.333 -8.66699 -135.333 -26 -162c-12.667 -18.667 -36 -28 -70 -28h-672l-4 -6c0 -122.667 28.667 -222.667 86 -300
c64.667 -86.667 157.334 -130 278.001 -130c41.333 0 82.333 5.33301 123 16c33.333 8.66699 65.666 20.667 96.999 36c23.333 11.333 45 23.666 65 36.999c7.33301 4.66699 14 9.33398 20 14.001l9 7c0 2 5 -1 15 -9l14 -14c5.33301 -6.66699 10 -14 14 -22
c18 -38.667 11 -70.667 -21 -96c-9.33301 -8.66699 -23.333 -18 -42 -28c-22 -12.667 -46.333 -24 -73 -34c-71.333 -26.667 -145 -40 -221 -40c-176.667 0 -310.334 56 -401.001 168c-82 102 -123 242.333 -123 421c0 168 44.333 305.333 133 412zM890.001 668l1 6.00293
c0 5.33301 0.333008 10.666 1 15.999l2 49c0 79.333 -22.667 143.666 -68 192.999c-48.667 53.333 -116.667 80 -204 80c-108.667 0 -193.667 -42 -255 -126c-47.333 -64.667 -73 -137.334 -77 -218.001h600zM520.001 1245c-20.667 -15.333 -39.6689 -15 -57.002 1l-22 19
c-21.333 20 -22 38 -2 54c4.66699 3.33301 8.66699 6.33301 12 9c4.66699 3.33301 9.33398 7 14.001 11l197 151l62 49c22 18 40.667 18.667 56 2l41 -44c18.667 -20.667 18.334 -37.667 -0.999023 -51z" />
    <glyph glyph-name="ecircumflex" unicode="&#xea;" horiz-adv-x="1191" 
d="M255 981c92.667 110.667 215.668 166 369.001 166c131.333 0 237.333 -42.333 318 -127c74.667 -78 112 -171.667 112 -281c0 -81.333 -8.66699 -135.333 -26 -162c-12.667 -18.667 -36 -28 -70 -28h-672l-4 -6c0 -122.667 28.667 -222.667 86 -300
c64.667 -86.667 157.334 -130 278.001 -130c41.333 0 82.333 5.33301 123 16c33.333 8.66699 65.666 20.667 96.999 36c23.333 11.333 45 23.666 65 36.999c7.33301 4.66699 14 9.33398 20 14.001l9 7c0 2 5 -1 15 -9l14 -14c5.33301 -6.66699 10 -14 14 -22
c18 -38.667 11 -70.667 -21 -96c-9.33301 -8.66699 -23.333 -18 -42 -28c-22 -12.667 -46.333 -24 -73 -34c-71.333 -26.667 -145 -40 -221 -40c-176.667 0 -310.334 56 -401.001 168c-82 102 -123 242.333 -123 421c0 168 44.333 305.333 133 412zM890.001 668l1 6.00293
c0 5.33301 0.333008 10.666 1 15.999l2 49c0 79.333 -22.667 143.666 -68 192.999c-48.667 53.333 -116.667 80 -204 80c-108.667 0 -193.667 -42 -255 -126c-47.333 -64.667 -73 -137.334 -77 -218.001h600zM432.001 1240c-18 -11.333 -35.3359 -7.66797 -52.0029 10.999
l-20 26c-16.667 22.667 -13 42.334 11 59.001l117 87c22.667 16 41.334 29.667 56.001 41c20.667 14.667 38.334 28.334 53.001 41.001c4.66699 4 10 7.33301 16 10h9c8.66699 0 17.334 -3.33301 26.001 -10l226 -169c24 -16.667 28 -36.334 12 -59.001l-22 -26
c-15.333 -18 -32 -21.667 -50 -11l-192 121z" />
    <glyph glyph-name="igrave" unicode="&#xec;" horiz-adv-x="595" 
d="M217 307c0.666992 55.333 1.33008 120.999 1.99707 196.999l-1 565c0 12.667 1.66699 22.334 5 29.001c8 18.667 29.667 28 65 28c66.667 0 98.334 -24.333 95.001 -73c-2.66699 -62.667 -4.66699 -133 -6 -211v-672c0 -32.667 0.333008 -54.667 1 -66
c4.66699 -69.333 -13.666 -104 -54.999 -104h-49c-43.333 0 -63.666 32.667 -60.999 98c2.66699 52 4 121.667 4 209zM108.996 1446c-19.333 13.333 -19.667 30.333 -1 51l41 44c15.333 16.667 33.666 16 54.999 -2l63 -49l197 -151c4.66699 -4 9.33398 -7.66699 14.001 -11
c2.66699 -2.66699 6.66699 -5.66699 12 -9c20 -16 19 -34 -3 -54l-21 -19c-17.333 -16 -36.333 -16.333 -57 -1z" />
    <glyph glyph-name="iacute" unicode="&#xed;" horiz-adv-x="595" 
d="M217 307c0.666992 55.333 1.33008 120.999 1.99707 196.999l-1 565c0 12.667 1.66699 22.334 5 29.001c8 18.667 29.667 28 65 28c66.667 0 98.334 -24.333 95.001 -73c-2.66699 -62.667 -4.66699 -133 -6 -211v-672c0 -32.667 0.333008 -54.667 1 -66
c4.66699 -69.333 -13.666 -104 -54.999 -104h-49c-43.333 0 -63.666 32.667 -60.999 98c2.66699 52 4 121.667 4 209zM189.996 1245c-20.667 -15.333 -39.668 -15 -57.001 1l-21 19c-22 20 -23 38 -3 54c5.33301 3.33301 9.33301 6.33301 12 9
c4.66699 3.33301 9.33398 7 14.001 11l197 151l63 49c21.333 18 39.666 18.667 54.999 2l41 -44c18.667 -20.667 18.334 -37.667 -0.999023 -51z" />
    <glyph glyph-name="ograve" unicode="&#xf2;" horiz-adv-x="1243" 
d="M250 978c88.667 112.667 212.335 169 371.002 169c160 0 285.667 -55.667 377 -167c85.333 -105.333 127 -241.666 125 -408.999c-2.66699 -176 -45.334 -317 -128.001 -423c-88.667 -114 -212.667 -171 -372 -171c-162 0 -287.667 56.333 -377 169
c-84 106 -125 247 -123 423c3.33301 169.333 45.666 305.666 126.999 408.999zM887.001 250c48 77.333 71.999 183.667 71.999 319c0 130 -26 233.667 -78 311c-58 88 -144 132 -258 132c-120.667 0 -209 -44 -265 -132c-46 -74 -69 -177.667 -69 -311
c0 -136 23 -242.333 69 -319c55.333 -91.333 143 -137 263 -137c120.667 0 209.334 45.667 266.001 137zM439 1446c-19.333 13.333 -19.668 30.333 -1.00098 51l41 44c15.333 16.667 34 16 56 -2l62 -49l197 -151c4.66699 -4 9.33398 -7.66699 14.001 -11
c3.33301 -2.66699 7.33301 -5.66699 12 -9c20 -16 19.333 -34 -2 -54l-22 -19c-17.333 -16 -36.333 -16.333 -57 -1z" />
    <glyph glyph-name="oacute" unicode="&#xf3;" horiz-adv-x="1243" 
d="M250 978c88.667 112.667 212.335 169 371.002 169c160 0 285.667 -55.667 377 -167c85.333 -105.333 127 -241.666 125 -408.999c-2.66699 -176 -45.334 -317 -128.001 -423c-88.667 -114 -212.667 -171 -372 -171c-162 0 -287.667 56.333 -377 169
c-84 106 -125 247 -123 423c3.33301 169.333 45.666 305.666 126.999 408.999zM887.001 250c48 77.333 71.999 183.667 71.999 319c0 130 -26 233.667 -78 311c-58 88 -144 132 -258 132c-120.667 0 -209 -44 -265 -132c-46 -74 -69 -177.667 -69 -311
c0 -136 23 -242.333 69 -319c55.333 -91.333 143 -137 263 -137c120.667 0 209.334 45.667 266.001 137zM520 1245c-20.667 -15.333 -39.6689 -15 -57.002 1l-22 19c-21.333 20 -22 38 -2 54c4.66699 3.33301 8.66699 6.33301 12 9c4.66699 3.33301 9.33398 7 14.001 11
l197 151l62 49c22 18 40.667 18.667 56 2l41 -44c18.667 -20.667 18.334 -37.667 -0.999023 -51z" />
    <glyph glyph-name="ocircumflex" unicode="&#xf4;" horiz-adv-x="1243" 
d="M250 978c88.667 112.667 212.335 169 371.002 169c160 0 285.667 -55.667 377 -167c85.333 -105.333 127 -241.666 125 -408.999c-2.66699 -176 -45.334 -317 -128.001 -423c-88.667 -114 -212.667 -171 -372 -171c-162 0 -287.667 56.333 -377 169
c-84 106 -125 247 -123 423c3.33301 169.333 45.666 305.666 126.999 408.999zM887.001 250c48 77.333 71.999 183.667 71.999 319c0 130 -26 233.667 -78 311c-58 88 -144 132 -258 132c-120.667 0 -209 -44 -265 -132c-46 -74 -69 -177.667 -69 -311
c0 -136 23 -242.333 69 -319c55.333 -91.333 143 -137 263 -137c120.667 0 209.334 45.667 266.001 137zM432 1240c-18 -11.333 -35.3359 -7.66797 -52.0029 10.999l-20 26c-16.667 22.667 -13 42.334 11 59.001l117 87c22.667 16 41.334 29.667 56.001 41
c20.667 14.667 38.334 28.334 53.001 41.001c4.66699 4 10 7.33301 16 10h9c8.66699 0 17.334 -3.33301 26.001 -10l226 -169c24 -16.667 28 -36.334 12 -59.001l-22 -26c-15.333 -18 -32 -21.667 -50 -11l-192 121z" />
    <glyph glyph-name="otilde" unicode="&#xf5;" horiz-adv-x="1243" 
d="M250 978c88.667 112.667 212.335 169 371.002 169c160 0 285.667 -55.667 377 -167c85.333 -105.333 127 -241.666 125 -408.999c-2.66699 -176 -45.334 -317 -128.001 -423c-88.667 -114 -212.667 -171 -372 -171c-162 0 -287.667 56.333 -377 169
c-84 106 -125 247 -123 423c3.33301 169.333 45.666 305.666 126.999 408.999zM887.001 250c48 77.333 71.999 183.667 71.999 319c0 130 -26 233.667 -78 311c-58 88 -144 132 -258 132c-120.667 0 -209 -44 -265 -132c-46 -74 -69 -177.667 -69 -311
c0 -136 23 -242.333 69 -319c55.333 -91.333 143 -137 263 -137c120.667 0 209.334 45.667 266.001 137zM391 1292c-19.333 13.333 -25 29.667 -17 49c12.667 30 29.334 56 50.001 78c27.333 28 56.666 43.667 87.999 47c21.333 1.33301 42.333 -1.66699 63 -9
c16 -6 33.667 -15 53 -27l42 -28c14.667 -8 26.667 -11.667 36 -11c16.667 2 32.334 10.667 47.001 26l11 11c1.33301 2 2.66602 4.33301 3.99902 7c0 0.666992 1.33301 2.66699 4 6c13.333 21.333 30.333 23.666 51 6.99902l32 -27c15.333 -12 18 -29.333 8 -52
c-16 -27.333 -33.667 -49 -53 -65c-25.333 -22 -55.333 -34.667 -90 -38c-20.667 -1.33301 -41.334 1.66699 -62.001 9c-14 5.33301 -30.667 14.333 -50 27l-23 13l-21 14c-14.667 6.66699 -27.667 9.66699 -39 9c-13.333 -1.33301 -26 -8.66602 -38 -21.999
c-7.33301 -9.33301 -14.333 -22 -21 -38c-7.33301 -18 -23.666 -18.667 -48.999 -2z" />
    <glyph glyph-name="divide" unicode="&#xf7;" horiz-adv-x="1249" 
d="M530 1030c-30.667 24.667 -44.999 69 -42.999 133c-2 66 11.333 111 40 135c21.333 18 57.666 27 108.999 27c47.333 0 82.333 -9 105 -27c31.333 -24.667 47 -69.667 47 -135c0 -64.667 -14.333 -109 -43 -133c-22 -17.333 -57.667 -26 -107 -26
s-85.333 8.66699 -108 26zM272.001 614c-45.333 -1.33301 -68.667 19.333 -70 62v51c-2.66699 39.333 24 57 80 53c24.667 -1.33301 73.667 -2 147 -2h223l210 2l110 2c52 2 78 -19 78 -63v-51c0 -37.333 -26.667 -55.333 -80 -54l-44 2zM527 359.999
c21.333 18 57.667 27 109 27c47.333 0 82.333 -9 105 -27c31.333 -24.667 47 -69.667 47 -135c0 -64.667 -14.333 -109 -43 -133c-22 -17.333 -57.667 -26 -107 -26s-85.333 8.66699 -108 26c-30.667 24.667 -45 69 -43 133c-2 66 11.333 111 40 135z" />
    <glyph glyph-name="ugrave" unicode="&#xf9;" horiz-adv-x="1280" 
d="M159 562c0.666992 39.333 1.66504 95.332 2.99805 167.999l3 87c0.666992 33.333 1.33398 62.333 2.00098 87c1.33301 64.667 2 119 2 163c0 53.333 22.667 80 68 80c65.333 0 98 -27.333 98 -82l-6 -311c-1.33301 -59.333 -2.33301 -114.333 -3 -165
c-0.666992 -59.333 -1 -116.333 -1 -171c0 -202 84 -303 252 -303c90 0 169.333 31.667 238 95c26.667 25.333 50.667 54.333 72 87c18 27.333 32.667 55.333 44 84l4 578c0 34.667 -0.666992 55.667 -2 63c-4 69.333 14.333 104 55 104h54c42 0 61.667 -32 59 -96l-4 -89
c-1.33301 -45.333 -2 -86 -2 -122l-6 -771l1 -16c0 -11.333 -1.33301 -20.333 -4 -27c-7.33301 -16.667 -29.666 -25 -66.999 -25c-62.667 0 -94 35.333 -94 106l6 102h-14l-31 -47c-20.667 -26 -44 -49.333 -70 -70c-34 -27.333 -71 -48.666 -111 -63.999
c-48 -18 -99 -27 -153 -27c-261.333 0 -393 146.667 -395 440zM438.998 1446c-19.333 13.333 -19.668 30.333 -1.00098 51l41 44c15.333 16.667 34 16 56 -2l62 -49l197 -151c4.66699 -4 9.33398 -7.66699 14.001 -11c3.33301 -2.66699 7.33301 -5.66699 12 -9
c20 -16 19.333 -34 -2 -54l-22 -19c-17.333 -16 -36.333 -16.333 -57 -1z" />
    <glyph glyph-name="uacute" unicode="&#xfa;" horiz-adv-x="1280" 
d="M159 562c0.666992 39.333 1.66504 95.332 2.99805 167.999l3 87c0.666992 33.333 1.33398 62.333 2.00098 87c1.33301 64.667 2 119 2 163c0 53.333 22.667 80 68 80c65.333 0 98 -27.333 98 -82l-6 -311c-1.33301 -59.333 -2.33301 -114.333 -3 -165
c-0.666992 -59.333 -1 -116.333 -1 -171c0 -202 84 -303 252 -303c90 0 169.333 31.667 238 95c26.667 25.333 50.667 54.333 72 87c18 27.333 32.667 55.333 44 84l4 578c0 34.667 -0.666992 55.667 -2 63c-4 69.333 14.333 104 55 104h54c42 0 61.667 -32 59 -96l-4 -89
c-1.33301 -45.333 -2 -86 -2 -122l-6 -771l1 -16c0 -11.333 -1.33301 -20.333 -4 -27c-7.33301 -16.667 -29.666 -25 -66.999 -25c-62.667 0 -94 35.333 -94 106l6 102h-14l-31 -47c-20.667 -26 -44 -49.333 -70 -70c-34 -27.333 -71 -48.666 -111 -63.999
c-48 -18 -99 -27 -153 -27c-261.333 0 -393 146.667 -395 440zM519.998 1245c-20.667 -15.333 -39.6689 -15 -57.002 1l-22 19c-21.333 20 -22 38 -2 54c4.66699 3.33301 8.66699 6.33301 12 9c4.66699 3.33301 9.33398 7 14.001 11l197 151l62 49c22 18 40.667 18.667 56 2
l41 -44c18.667 -20.667 18.334 -37.667 -0.999023 -51z" />
    <glyph glyph-name="yacute" unicode="&#xfd;" horiz-adv-x="1103" 
d="M139 -174c7.33301 29.333 26.6689 36.001 58.002 20.001c52 -27.333 106 -41 162 -41c98 0 174.333 95 229 285h-41c-41.333 0 -69.333 20 -84 60c-8.66699 24 -32.334 82 -71.001 174l-59 135l-65 149l-190 434c-20.667 56 -9 84 35 84h45c38 0 64.667 -20.333 80 -61
l100 -238c1.33301 -3.33301 2.33301 -6 3 -8l7 -17l176 -417c39.333 -95.333 66.666 -163 81.999 -203h13l262 879c12.667 43.333 38 65 76 65h57c41.333 0 53.666 -27.333 36.999 -82l-55 -174l-252 -792c-22 -70 -43 -127 -63 -171
c-23.333 -52 -48.666 -94.333 -75.999 -127c-59.333 -72 -140 -108 -242 -108c-84 0 -152.333 14.333 -205 43c-26.667 13.333 -37 34.666 -31 63.999zM454.003 1245c-21.333 -15.333 -40.334 -15 -57.001 1l-22 19c-22 20 -22.667 38 -2 54
c4.66699 3.33301 8.33398 6.33301 11.001 9l15 11l196 151l63 49c22 18 40.333 18.667 55 2l42 -44c18 -20.667 17.333 -37.667 -2 -51z" />
    <glyph glyph-name="Abreve" unicode="&#x102;" 
d="M183 289l387.999 1032c15.333 48 47.333 72 96 72h68c50 0 84.667 -28 104 -84l459 -1250c10.667 -39.333 -5 -59 -47 -59h-41c-14.667 0 -26.667 2 -36 6c-8 3.33301 -14.667 8.33301 -20 15c-4 5.33301 -7.33301 12 -10 20l-3 9l-3 9l-21 53l-61 159l-32 81h-650
l-35 -93l-75 -196c-12.667 -42 -36 -63 -70 -63h-61c-37.333 0 -47.666 22 -30.999 66c6 19.333 33 93.666 81 222.999zM982.999 481.001l-170 465c-56 156 -92.333 259 -109 309h-12l-106 -307l-83 -229l-90 -238h570zM510.999 1561
c-39.333 38.667 -62.3311 89 -68.998 151c0 30 14.667 45 44 45h44c27.333 0 41 -13.333 41 -40c10 -66.667 52.667 -100 128 -100c74 0 116 33.333 126 100c0 25.333 15 38 45 38h34c32.667 0 49 -14.333 49 -43c-6.66699 -60 -31.667 -110.333 -75 -151
c-44.667 -42.667 -104.334 -64 -179.001 -64c-82.667 0 -145.334 21.333 -188.001 64z" />
    <glyph glyph-name="abreve" unicode="&#x103;" horiz-adv-x="1173" 
d="M517 668c66.667 0 136.334 -8.33398 209.001 -25.001c27.333 -6 52.333 -12.333 75 -19c19.333 -6 33 -11.333 41 -16v125c0 178.667 -91.333 268 -274 268c-44.667 0 -89.334 -4.66699 -134.001 -14c-35.333 -7.33301 -70 -18 -104 -32
c-24 -9.33301 -46.667 -19.666 -68 -30.999c-16 -9.33301 -24 -14.333 -24 -15c-2.66699 2 -7.33398 7.66699 -14.001 17c-9.33301 12 -16.333 24.333 -21 37c-14.667 38 -7 70 23 96c68.667 58.667 188 88 358 88c282 0 420.667 -138 416 -414l-2 -526l8 -167
c0.666992 -14 -0.666016 -24.667 -3.99902 -32c-8.66699 -18.667 -36 -28 -82 -28c-38 0 -62.333 18.333 -73 55c-8 27.333 -8.33301 68.333 -1 123h-10c0 -2 -8.66699 -11.333 -26 -28c-23.333 -22.667 -48.333 -43 -75 -61c-38 -26 -77 -46.667 -117 -62
c-50.667 -18 -101.334 -27 -152.001 -27c-116.667 0 -206.667 34.667 -270 104c-57.333 63.333 -85 144 -83 242c4.66699 223.333 139.334 337.333 404.001 342zM507 112.999c74.667 0 145 21 211 63c59.333 38 100 81.667 122 131v189c-8.66699 3.33301 -21 7.33301 -37 12
l-64 16c-62.667 12.667 -125 19 -187 19c-181.333 0 -273 -71 -275 -213c0 -144.667 76.667 -217 230 -217zM388 1298c-39.333 38.667 -62.3311 89 -68.998 151c0 30 14.667 45 44 45h44c27.333 0 41 -13.333 41 -40c10 -66.667 52.667 -100 128 -100
c74 0 116 33.333 126 100c0 25.333 15 38 45 38h34c32.667 0 49 -14.333 49 -43c-6.66699 -60 -31.667 -110.333 -75 -151c-44.667 -42.667 -104.334 -64 -179.001 -64c-82.667 0 -145.334 21.333 -188.001 64z" />
    <glyph glyph-name="Dslash" unicode="&#x110;" horiz-adv-x="1466" 
d="M375 624l1.00195 -491.002h207c216 0 370 56.333 462 169c40 49.333 69 110.333 87 183c16 63.333 24 138 24 224c-0.666992 78.667 -9.33398 148.334 -26.001 209.001c-18.667 69.333 -48.334 128 -89.001 176c-93.333 110.667 -245.333 166 -456 166h-207
c-1.33301 -138 -2.33301 -308 -3 -510h138c56 0.666992 92.333 1.33398 109 2.00098c28.667 0 43 -16.333 43 -49l-2 -42c0 -24 -17 -36 -51 -36zM213.002 748.998l-1 533c0 74 26 111 78 111h291c263.333 0 457.333 -65 582 -195c110.667 -115.333 165 -279 163 -491
c-0.666992 -222.667 -55.667 -392.334 -165 -509.001c-123.333 -132 -317.333 -198 -582 -198h-293c-50.667 0 -76 32.667 -76 98c1.33301 24.667 2.33301 97.334 3 218.001v307h-101c-30 0 -45 14.667 -45 44v45c0 24.667 17 37 51 37h95z" />
    <glyph glyph-name="dcroat" unicode="&#x111;" horiz-adv-x="1257" 
d="M824 213c61.333 67.333 92.002 148.667 92.002 244v264l-10 28l-19 41c-18.667 36 -39.667 68.333 -63 97c-30.667 37.333 -64.334 66.333 -101.001 87c-44 25.333 -91.667 38 -143 38c-82.667 0 -151.667 -34.667 -207 -104c-61.333 -77.333 -92 -184 -92 -320
c0 -144.667 29 -260 87 -346s135.667 -129 233 -129c87.333 0 161.666 33.333 222.999 100zM1076 1202l-5.99707 -367.999c-0.666992 -152 -1 -289.667 -1 -413c0 -144.667 1 -255.667 3 -333l3 -58c0 -22 -8 -36 -24 -42c-5.33301 -3.33301 -14 -5.66602 -26 -6.99902
c-10.667 -0.666992 -22.334 -1 -35.001 -1c-39.333 0 -63.333 19.667 -72 59c-4 15.333 -5.66699 35.666 -5 60.999l3 70h-10c0 -2.66699 -6.33301 -12.667 -19 -30c-16.667 -23.333 -36.667 -45 -60 -65c-32 -28 -68 -50 -108 -66c-49.333 -19.333 -103 -29 -161 -29
c-132 0 -238.667 55.667 -320 167s-121.333 257.666 -120 438.999c0.666992 167.333 43.667 303.666 129 408.999c82 101.333 183.667 152 305 152c52 0 100.667 -9 146 -27c38 -14.667 73 -35.334 105 -62.001c24.667 -21.333 46.667 -45.666 66 -72.999
c8 -10 15 -20.333 21 -31c4.66699 -8.66699 8.66699 -16.667 12 -24h14c-0.666992 33.333 -1.33398 76 -2.00098 128l-1 143l-240 -1c-30 0 -45 14.667 -45 44v45c0 24.667 17 37 51 37l225 1h7c0 20 -0.333008 33 -1 39c-4 58.667 18.667 88 68 88
c69.333 0 102.666 -29.333 99.999 -88l-1 -39c54.667 0.666992 90 1.33398 106 2.00098c28.667 0 43 -16.333 43 -49l-2 -42c0 -24 -17 -36 -51 -36h-97z" />
    <glyph glyph-name="Itilde" unicode="&#x128;" horiz-adv-x="641" 
d="M232 1310l-0.998047 27.999c0 6.66699 0.666992 12.334 2 17.001c4.66699 25.333 23 38 55 38h57c41.333 0 60.666 -32.333 57.999 -97l-4 -424l4 -763l2 -27c0 -4 0.333008 -7 1 -9c1.33301 -15.333 1 -27.333 -1 -36c-4.66699 -24.667 -23.334 -37 -56.001 -37h-55
c-41.333 0 -60.333 32.667 -57 98zM95.002 1555c-19.333 13.333 -25 29.667 -17 49c12.667 30 29.334 56 50.001 78c27.333 28 56.666 43.667 87.999 47c21.333 1.33301 42.333 -1.66699 63 -9c16 -6 33.667 -15 53 -27l42 -28c14.667 -8 26.667 -11.667 36 -11
c16.667 2 32.334 10.667 47.001 26l11 11c1.33301 2 2.66602 4.33301 3.99902 7c0 0.666992 1.33301 2.66699 4 6c13.333 21.333 30.333 23.666 51 6.99902l32 -27c15.333 -12 18 -29.333 8 -52c-16 -27.333 -33.667 -49 -53 -65c-25.333 -22 -55.333 -34.667 -90 -38
c-20.667 -1.33301 -41.334 1.66699 -62.001 9c-14 5.33301 -30.667 14.333 -50 27l-23 13l-21 14c-14.667 6.66699 -27.667 9.66699 -39 9c-13.333 -1.33301 -26 -8.66602 -38 -21.999c-7.33301 -9.33301 -14.333 -22 -21 -38c-7.33301 -18 -23.666 -18.667 -48.999 -2z" />
    <glyph glyph-name="itilde" unicode="&#x129;" horiz-adv-x="595" 
d="M217 307c0.666992 55.333 1.33008 120.999 1.99707 196.999l-1 565c0 12.667 1.66699 22.334 5 29.001c8 18.667 29.667 28 65 28c66.667 0 98.334 -24.333 95.001 -73c-2.66699 -62.667 -4.66699 -133 -6 -211v-672c0 -32.667 0.333008 -54.667 1 -66
c4.66699 -69.333 -13.666 -104 -54.999 -104h-49c-43.333 0 -63.666 32.667 -60.999 98c2.66699 52 4 121.667 4 209zM70.9961 1292c-19.333 13.333 -25 29.667 -17 49c12.667 30 29.334 56 50.001 78c27.333 28 56.666 43.667 87.999 47
c21.333 1.33301 42.333 -1.66699 63 -9c16 -6 33.667 -15 53 -27l42 -28c14.667 -8 26.667 -11.667 36 -11c16.667 2 32.334 10.667 47.001 26l11 11c1.33301 2 2.66602 4.33301 3.99902 7c0 0.666992 1.33301 2.66699 4 6c13.333 21.333 30.333 23.666 51 6.99902l32 -27
c15.333 -12 18 -29.333 8 -52c-16 -27.333 -33.667 -49 -53 -65c-25.333 -22 -55.333 -34.667 -90 -38c-20.667 -1.33301 -41.334 1.66699 -62.001 9c-14 5.33301 -30.667 14.333 -50 27l-23 13l-21 14c-14.667 6.66699 -27.667 9.66699 -39 9
c-13.333 -1.33301 -26 -8.66602 -38 -21.999c-7.33301 -9.33301 -14.333 -22 -21 -38c-7.33301 -18 -23.666 -18.667 -48.999 -2z" />
    <glyph glyph-name="OE" unicode="&#x152;" horiz-adv-x="1925" 
d="M269 1205c104.667 138.667 252.333 207.999 443 207.999c44 0 91.333 -3.33301 142 -10l75 -10h782c44 0 66 -24.667 66 -74v-59c0 -46 -24 -68 -72 -66l-567 2l2 -414h487c37.333 2.66699 56 -15.666 56 -54.999v-70c0 -36 -17.333 -53 -52 -51l-75 1l-418 1l6 -409
l567 4c45.333 2 68 -20.667 68 -68v-80c0 -36.667 -22.667 -55 -68 -55h-753l-75 -10c-48 -6.66699 -100.333 -10 -157 -10c-200 0 -352.667 68.667 -458 206c-96 126 -144 296 -144 510c0 211.333 48.333 381 145 509zM806.999 169.999
c21.333 2.66699 41.335 5.99902 60.002 9.99902c32 7.33301 48 12.333 48 15c1.33301 93.333 1.66602 203 0.999023 329l-6 674c0 2.66699 -16.333 7.33398 -49 14.001c-43.333 10 -92.333 15 -147 15c-120 0 -211.667 -49.333 -275 -148c-60 -92 -90 -217.667 -90 -377
c0 -166.667 29.667 -296 89 -388c63.333 -98.667 158.666 -148 285.999 -148c29.333 0 57 1.33301 83 4z" />
    <glyph glyph-name="oe" unicode="&#x153;" horiz-adv-x="2037" 
d="M236 979c90.667 112 217.001 168.001 379.001 168.001c203.333 0 350 -83.333 440 -250c92.667 166.667 237.667 250 435 250c136 0 244.667 -42 326 -126c76 -77.333 114 -172.666 114 -285.999c0 -82.667 -10 -139.334 -30 -170.001c-16 -24.667 -43 -37 -81 -37h-626
l-4 -6c0 -100 26 -184 78 -252c58.667 -76 139.667 -114 243 -114c40.667 0 81.334 5 122.001 15c32.667 8.66699 65 20.667 97 36c23.333 10.667 45.666 23 66.999 37l29 20c0 2.66699 6.66699 -2 20 -14l17 -20c6 -8 11 -17 15 -27
c20.667 -54.667 11 -96.334 -29 -125.001c-4.66699 -3.33301 -10.334 -7 -17.001 -11c-7.33301 -5.33301 -15.666 -10.333 -24.999 -15c-22.667 -12 -46.667 -23 -72 -33c-72 -26 -146.667 -39 -224 -39c-218.667 0 -371.667 82.333 -459 247
c-88.667 -166.667 -233.334 -250 -434.001 -250c-164.667 0 -292.667 56.667 -384 170c-86 106 -128 246.667 -126 422c2 169.333 45 306 129 410zM1715 676.001l1 4.99805c0 4.66699 0.333008 9.33398 1 14.001l2 40c0 156 -78 234 -234 234
c-98 0 -173.333 -35.333 -226 -106c-40 -53.333 -61.333 -115.666 -64 -186.999h520zM850.001 280.999c38.667 67.333 58.001 163.333 58.001 288c0 119.333 -21 213 -63 281c-49.333 79.333 -125.333 119 -228 119c-108.667 0 -186.334 -40 -233.001 -120
c-37.333 -64 -56 -157.333 -56 -280c0 -125.333 18.667 -221.333 56 -288c46.667 -83.333 123.667 -125 231 -125c108.667 0 187 41.667 235 125z" />
    <glyph glyph-name="Utilde" unicode="&#x168;" horiz-adv-x="1497" 
d="M190 861l1 448.002c2.66699 56 20.667 84 54 84h61c36.667 0 55 -24.667 55 -74c-0.666992 -22 -1 -98.333 -1 -229l-1 -443c0 -171.333 27.667 -298.666 83 -381.999c62.667 -94.667 165.667 -142 309 -142c134.667 0 233 46.667 295 140
c56.667 85.333 85 214.666 85 387.999l3 658c0 56 16.333 84 49 84h59c43.333 0 64 -24.667 62 -74l-4 -531c-0.666992 -70.667 -1.66699 -117 -3 -139c-2.66699 -106.667 -12.667 -198.334 -30 -275.001c-19.333 -84.667 -48.666 -155 -87.999 -211
c-86.667 -122 -230.334 -183 -431.001 -183c-208 0 -355.333 60.333 -442 181c-40 56 -69.333 126.333 -88 211c-16.667 76 -25.667 167.667 -27 275c-0.666992 61.333 -1 132.666 -1 213.999zM518 1555c-19.333 13.333 -25 29.667 -17 49c12.667 30 29.334 56 50.001 78
c27.333 28 56.666 43.667 87.999 47c21.333 1.33301 42.333 -1.66699 63 -9c16 -6 33.667 -15 53 -27l42 -28c14.667 -8 26.667 -11.667 36 -11c16.667 2 32.334 10.667 47.001 26l11 11c1.33301 2 2.66602 4.33301 3.99902 7c0 0.666992 1.33301 2.66699 4 6
c13.333 21.333 30.333 23.666 51 6.99902l32 -27c15.333 -12 18 -29.333 8 -52c-16 -27.333 -33.667 -49 -53 -65c-25.333 -22 -55.333 -34.667 -90 -38c-20.667 -1.33301 -41.334 1.66699 -62.001 9c-14 5.33301 -30.667 14.333 -50 27l-23 13l-21 14
c-14.667 6.66699 -27.667 9.66699 -39 9c-13.333 -1.33301 -26 -8.66602 -38 -21.999c-7.33301 -9.33301 -14.333 -22 -21 -38c-7.33301 -18 -23.666 -18.667 -48.999 -2z" />
    <glyph glyph-name="utilde" unicode="&#x169;" horiz-adv-x="1280" 
d="M159 562c0.666992 39.333 1.66504 95.332 2.99805 167.999l3 87c0.666992 33.333 1.33398 62.333 2.00098 87c1.33301 64.667 2 119 2 163c0 53.333 22.667 80 68 80c65.333 0 98 -27.333 98 -82l-6 -311c-1.33301 -59.333 -2.33301 -114.333 -3 -165
c-0.666992 -59.333 -1 -116.333 -1 -171c0 -202 84 -303 252 -303c90 0 169.333 31.667 238 95c26.667 25.333 50.667 54.333 72 87c18 27.333 32.667 55.333 44 84l4 578c0 34.667 -0.666992 55.667 -2 63c-4 69.333 14.333 104 55 104h54c42 0 61.667 -32 59 -96l-4 -89
c-1.33301 -45.333 -2 -86 -2 -122l-6 -771l1 -16c0 -11.333 -1.33301 -20.333 -4 -27c-7.33301 -16.667 -29.666 -25 -66.999 -25c-62.667 0 -94 35.333 -94 106l6 102h-14l-31 -47c-20.667 -26 -44 -49.333 -70 -70c-34 -27.333 -71 -48.666 -111 -63.999
c-48 -18 -99 -27 -153 -27c-261.333 0 -393 146.667 -395 440zM390.998 1292c-19.333 13.333 -25 29.667 -17 49c12.667 30 29.334 56 50.001 78c27.333 28 56.666 43.667 87.999 47c21.333 1.33301 42.333 -1.66699 63 -9c16 -6 33.667 -15 53 -27l42 -28
c14.667 -8 26.667 -11.667 36 -11c16.667 2 32.334 10.667 47.001 26l11 11c1.33301 2 2.66602 4.33301 3.99902 7c0 0.666992 1.33301 2.66699 4 6c13.333 21.333 30.333 23.666 51 6.99902l32 -27c15.333 -12 18 -29.333 8 -52c-16 -27.333 -33.667 -49 -53 -65
c-25.333 -22 -55.333 -34.667 -90 -38c-20.667 -1.33301 -41.334 1.66699 -62.001 9c-14 5.33301 -30.667 14.333 -50 27l-23 13l-21 14c-14.667 6.66699 -27.667 9.66699 -39 9c-13.333 -1.33301 -26 -8.66602 -38 -21.999c-7.33301 -9.33301 -14.333 -22 -21 -38
c-7.33301 -18 -23.666 -18.667 -48.999 -2z" />
    <glyph glyph-name="Ohorn" unicode="&#x1a0;" horiz-adv-x="1513" 
d="M410 296c78 -115.333 195 -172.999 351 -172.999c149.333 0 263 58.333 341 175c69.333 102.667 104 236 104 400c0 167.333 -34.333 301 -103 401c-77.333 114 -191.333 171 -342 171c-154.667 0 -271 -57 -349 -171c-67.333 -98.667 -101 -232.334 -101 -401.001
c-1.33301 -168 31.667 -302 99 -402zM1255 1154c79.333 -122.667 119.666 -275.335 120.999 -458.002c2 -210.667 -50.667 -381.334 -158 -512.001c-112 -136 -265 -204 -459 -204c-205.333 0 -362 68 -470 204c-99.333 124.667 -149.333 295.334 -150 512.001
c-1.33301 211.333 50 381.333 154 510c112 138 269.333 207 472 207c162 0 295.333 -49.667 400 -149c67.333 -3.33301 105.333 15.334 114 56.001c20.667 60 -0.666016 99.667 -63.999 119c-24.667 4 -34 18.333 -28 43l6 59c6.66699 26.667 24 37.667 52 33
c57.333 -15.333 102 -43.666 134 -84.999c32.667 -44 45 -100 37 -168c-16 -74 -55.667 -125 -119 -153c-12.667 -6 -26.667 -10.667 -42 -14z" />
    <glyph glyph-name="ohorn" unicode="&#x1a1;" horiz-adv-x="1243" 
d="M887 250c48 77.333 71.999 183.667 71.999 319c0 130 -26 233.667 -78 311c-58 88 -144 132 -258 132c-120.667 0 -209 -44 -265 -132c-46 -74 -69 -177.667 -69 -311c0 -136 23 -242.333 69 -319c55.333 -91.333 143 -137 263 -137
c120.667 0 209.334 45.667 266.001 137zM1061 881.001c42.667 -88 63.333 -191.333 62 -310c-2.66699 -176 -45.334 -317 -128.001 -423c-88.667 -114 -212.667 -171 -372 -171c-162 0 -287.667 56.333 -377 169c-84 106 -125 247 -123 423
c3.33301 169.333 45.666 305.666 126.999 408.999c88.667 112.667 212.334 169 371.001 169c156 0 279.333 -53 370 -159c46.667 4 73.667 22.667 81 56c20.667 60 -0.666016 99.667 -63.999 119c-24.667 4 -34 18.333 -28 43l6 59c6.66699 26.667 24 37.667 52 33
c57.333 -15.333 102 -43.666 134 -84.999c32.667 -44 45 -100 37 -168c-16 -74 -55.667 -125 -119 -153c-9.33301 -4 -19 -7.66699 -29 -11z" />
    <glyph glyph-name="Uhorn" unicode="&#x1af;" horiz-adv-x="1497" 
d="M1303 1178l-3.00098 -389.999c-0.666992 -70.667 -1.66699 -117 -3 -139c-2.66699 -106.667 -12.667 -198.334 -30 -275.001c-19.333 -84.667 -48.666 -155 -87.999 -211c-86.667 -122 -230.334 -183 -431.001 -183c-208 0 -355.333 60.333 -442 181
c-40 56 -69.333 126.333 -88 211c-16.667 76 -25.667 167.667 -27 275c-0.666992 61.333 -1 132.666 -1 213.999l1 448c2.66699 56 20.667 84 54 84h61c36.667 0 55 -24.667 55 -74c-0.666992 -22 -1 -98.333 -1 -229l-1 -443c0 -171.333 27.667 -298.666 83 -381.999
c62.667 -94.667 165.667 -142 309 -142c134.667 0 233 46.667 295 140c56.667 85.333 85 214.666 85 387.999l3 658c0 56 16.333 84 49 84h59c43.333 0 64 -24.667 62 -74v-21c30.667 8 49 25.333 55 52c20.667 60 -0.666016 99.667 -63.999 119
c-24.667 4 -34 18.333 -28 43l6 59c6.66699 26.667 24 37.667 52 33c57.333 -15.333 102 -43.666 134 -84.999c32.667 -44 45 -100 37 -168c-16 -74 -55.667 -125 -119 -153c-21.333 -10 -46 -16.667 -74 -20z" />
    <glyph glyph-name="uhorn" unicode="&#x1b0;" horiz-adv-x="1280" 
d="M1096 910c-0.666992 -32.667 -1.00391 -63.001 -1.00391 -91.001l-6 -771l1 -16c0 -11.333 -1.33301 -20.333 -4 -27c-7.33301 -16.667 -29.666 -25 -66.999 -25c-62.667 0 -94 35.333 -94 106l6 102h-14l-31 -47c-20.667 -26 -44 -49.333 -70 -70
c-34 -27.333 -71 -48.666 -111 -63.999c-48 -18 -99 -27 -153 -27c-261.333 0 -393 146.667 -395 440l2 142c0.666992 39.333 1.66699 95.333 3 168l3 87c0.666992 33.333 1.33398 62.333 2.00098 87c1.33301 64.667 2 119 2 163c0 53.333 22.667 80 68 80
c65.333 0 98 -27.333 98 -82l-6 -311c-1.33301 -59.333 -2.33301 -114.333 -3 -165c-0.666992 -59.333 -1 -116.333 -1 -171c0 -202 84 -303 252 -303c90 0 169.333 31.667 238 95c26.667 25.333 50.667 54.333 72 87c18 27.333 32.667 55.333 44 84l4 578
c0 34.667 -0.666992 55.667 -2 63c-4 69.333 14.333 104 55 104h54c42 0 61.667 -32 59 -96v-1c40.667 5.33301 64.334 23.666 71.001 54.999c20.667 60 -0.666016 99.667 -63.999 119c-24.667 4 -34 18.333 -28 43l6 59c6.66699 26.667 24 37.667 52 33
c57.333 -15.333 102 -43.666 134 -84.999c32.667 -44 45 -100 37 -168c-16 -74 -55.667 -125 -119 -153c-26 -12.667 -57.333 -20 -94 -22z" />
    <glyph glyph-name="uni1EA0" unicode="&#x1ea0;" 
d="M183 289l387.999 1032c15.333 48 47.333 72 96 72h68c50 0 84.667 -28 104 -84l459 -1250c10.667 -39.333 -5 -59 -47 -59h-41c-14.667 0 -26.667 2 -36 6c-8 3.33301 -14.667 8.33301 -20 15c-4 5.33301 -7.33301 12 -10 20l-3 9l-3 9l-21 53l-61 159l-32 81h-650
l-35 -93l-75 -196c-12.667 -42 -36 -63 -70 -63h-61c-37.333 0 -47.666 22 -30.999 66c6 19.333 33 93.666 81 222.999zM982.999 481.001l-170 465c-56 156 -92.333 259 -109 309h-12l-106 -307l-83 -229l-90 -238h570zM628.999 -333.999
c-18.667 14.667 -28.668 41.667 -30.001 81c-2 41.333 6.33301 69 25 83c14.667 10.667 38.334 16 71.001 16s56.334 -5.33301 71.001 -16c19.333 -14 29.666 -41.667 30.999 -83c0.666992 -39.333 -8.33301 -66.333 -27 -81c-13.333 -10 -36.333 -15 -69 -15
c-34 0 -58 5 -72 15z" />
    <glyph glyph-name="uni1EA1" unicode="&#x1ea1;" horiz-adv-x="1173" 
d="M517 668c66.667 0 136.334 -8.33398 209.001 -25.001c27.333 -6 52.333 -12.333 75 -19c19.333 -6 33 -11.333 41 -16v125c0 178.667 -91.333 268 -274 268c-44.667 0 -89.334 -4.66699 -134.001 -14c-35.333 -7.33301 -70 -18 -104 -32
c-24 -9.33301 -46.667 -19.666 -68 -30.999c-16 -9.33301 -24 -14.333 -24 -15c-2.66699 2 -7.33398 7.66699 -14.001 17c-9.33301 12 -16.333 24.333 -21 37c-14.667 38 -7 70 23 96c68.667 58.667 188 88 358 88c282 0 420.667 -138 416 -414l-2 -526l8 -167
c0.666992 -14 -0.666016 -24.667 -3.99902 -32c-8.66699 -18.667 -36 -28 -82 -28c-38 0 -62.333 18.333 -73 55c-8 27.333 -8.33301 68.333 -1 123h-10c0 -2 -8.66699 -11.333 -26 -28c-23.333 -22.667 -48.333 -43 -75 -61c-38 -26 -77 -46.667 -117 -62
c-50.667 -18 -101.334 -27 -152.001 -27c-116.667 0 -206.667 34.667 -270 104c-57.333 63.333 -85 144 -83 242c4.66699 223.333 139.334 337.333 404.001 342zM507 112.999c74.667 0 145 21 211 63c59.333 38 100 81.667 122 131v189c-8.66699 3.33301 -21 7.33301 -37 12
l-64 16c-62.667 12.667 -125 19 -187 19c-181.333 0 -273 -71 -275 -213c0 -144.667 76.667 -217 230 -217zM504 -334.001c-18.667 14.667 -28.668 41.667 -30.001 81c-2 41.333 6.33301 69 25 83c14.667 10.667 38.334 16 71.001 16s56.334 -5.33301 71.001 -16
c19.333 -14 29.666 -41.667 30.999 -83c0.666992 -39.333 -8.33301 -66.333 -27 -81c-13.333 -10 -36.333 -15 -69 -15c-34 0 -58 5 -72 15z" />
    <glyph glyph-name="uni1EA2" unicode="&#x1ea2;" 
d="M183 289l387.999 1032c15.333 48 47.333 72 96 72h68c50 0 84.667 -28 104 -84l459 -1250c10.667 -39.333 -5 -59 -47 -59h-41c-14.667 0 -26.667 2 -36 6c-8 3.33301 -14.667 8.33301 -20 15c-4 5.33301 -7.33301 12 -10 20l-3 9l-3 9l-21 53l-61 159l-32 81h-650
l-35 -93l-75 -196c-12.667 -42 -36 -63 -70 -63h-61c-37.333 0 -47.666 22 -30.999 66c6 19.333 33 93.666 81 222.999zM982.999 481.001l-170 465c-56 156 -92.333 259 -109 309h-12l-106 -307l-83 -229l-90 -238h570zM604.999 1654
c-15.333 -12.667 -36.0049 -10.333 -62.0049 7c-17.333 9.33301 -30.666 24.333 -39.999 45c0.666992 34 22.667 68.667 66 104c38 23.333 80.667 35 128 35c50.667 0 96 -14.167 136 -42.5s60 -66.833 60 -115.5c0 -47.333 -22.333 -84.666 -67 -111.999
c-14.667 -9.33301 -30 -18.333 -46 -27s-24 -18.334 -24 -29.001c-3.33301 -14 -21 -21.167 -53 -21.5s-54 6.83398 -66 21.501c-5.33301 24 -1.66602 45 11.001 63c11.333 24 32.833 42.167 64.5 54.5s47.834 27.166 48.501 44.499c0 15.333 -7 26.333 -21 33
s-30.333 10 -49 10c-21.333 0 -39.666 -7.16699 -54.999 -21.5s-25.666 -30.5 -30.999 -48.5z" />
    <glyph glyph-name="uni1EA3" unicode="&#x1ea3;" horiz-adv-x="1173" 
d="M517 668c66.667 0 136.334 -8.33398 209.001 -25.001c27.333 -6 52.333 -12.333 75 -19c19.333 -6 33 -11.333 41 -16v125c0 178.667 -91.333 268 -274 268c-44.667 0 -89.334 -4.66699 -134.001 -14c-35.333 -7.33301 -70 -18 -104 -32
c-24 -9.33301 -46.667 -19.666 -68 -30.999c-16 -9.33301 -24 -14.333 -24 -15c-2.66699 2 -7.33398 7.66699 -14.001 17c-9.33301 12 -16.333 24.333 -21 37c-14.667 38 -7 70 23 96c68.667 58.667 188 88 358 88c282 0 420.667 -138 416 -414l-2 -526l8 -167
c0.666992 -14 -0.666016 -24.667 -3.99902 -32c-8.66699 -18.667 -36 -28 -82 -28c-38 0 -62.333 18.333 -73 55c-8 27.333 -8.33301 68.333 -1 123h-10c0 -2 -8.66699 -11.333 -26 -28c-23.333 -22.667 -48.333 -43 -75 -61c-38 -26 -77 -46.667 -117 -62
c-50.667 -18 -101.334 -27 -152.001 -27c-116.667 0 -206.667 34.667 -270 104c-57.333 63.333 -85 144 -83 242c4.66699 223.333 139.334 337.333 404.001 342zM507 112.999c74.667 0 145 21 211 63c59.333 38 100 81.667 122 131v189c-8.66699 3.33301 -21 7.33301 -37 12
l-64 16c-62.667 12.667 -125 19 -187 19c-181.333 0 -273 -71 -275 -213c0 -144.667 76.667 -217 230 -217zM477 1391c-15.333 -12.667 -36.0049 -10.333 -62.0049 7c-17.333 9.33301 -30.666 24.333 -39.999 45c0.666992 34 22.667 68.667 66 104
c38 23.333 80.667 35 128 35c50.667 0 96 -14.167 136 -42.5s60 -66.833 60 -115.5c0 -47.333 -22.333 -84.666 -67 -111.999c-14.667 -9.33301 -30 -18.333 -46 -27s-24 -18.334 -24 -29.001c-3.33301 -14 -21 -21.167 -53 -21.5s-54 6.83398 -66 21.501
c-5.33301 24 -1.66602 45 11.001 63c11.333 24 32.833 42.167 64.5 54.5s47.834 27.166 48.501 44.499c0 15.333 -7 26.333 -21 33s-30.333 10 -49 10c-21.333 0 -39.666 -7.16699 -54.999 -21.5s-25.666 -30.5 -30.999 -48.5z" />
    <glyph glyph-name="uni1EA4" unicode="&#x1ea4;" 
d="M183 289l387.999 1032c15.333 48 47.333 72 96 72h68c50 0 84.667 -28 104 -84l459 -1250c10.667 -39.333 -5 -59 -47 -59h-41c-14.667 0 -26.667 2 -36 6c-8 3.33301 -14.667 8.33301 -20 15c-4 5.33301 -7.33301 12 -10 20l-3 9l-3 9l-21 53l-61 159l-32 81h-650
l-35 -93l-75 -196c-12.667 -42 -36 -63 -70 -63h-61c-37.333 0 -47.666 22 -30.999 66c6 19.333 33 93.666 81 222.999zM982.999 481.001l-170 465c-56 156 -92.333 259 -109 309h-12l-106 -307l-83 -229l-90 -238h570zM506.999 1503
c-18 -11.333 -35.3359 -7.66797 -52.0029 10.999l-20 26c-16.667 22.667 -13 42.334 11 59.001l117 87c22.667 16 41.334 29.667 56.001 41c20.667 14.667 38.334 28.334 53.001 41.001c4.66699 4 10 7.33301 16 10h9c8.66699 0 17.334 -3.33301 26.001 -10l226 -169
c24 -16.667 28 -36.334 12 -59.001l-22 -26c-15.333 -18 -32 -21.667 -50 -11l-192 121zM923.996 1659c-21.333 -15.333 -40.334 -15 -57.001 1l-22 19c-22 20 -23 38 -3 54c5.33301 3.33301 9.33301 6.33301 12 9c4.66699 3.33301 9.33398 7 14.001 11l197 151l63 49
c21.333 18 39.666 18.667 54.999 2l41 -44c18.667 -20.667 18.334 -37.667 -0.999023 -51z" />
    <glyph glyph-name="uni1EA5" unicode="&#x1ea5;" horiz-adv-x="1173" 
d="M517 668c66.667 0 136.334 -8.33398 209.001 -25.001c27.333 -6 52.333 -12.333 75 -19c19.333 -6 33 -11.333 41 -16v125c0 178.667 -91.333 268 -274 268c-44.667 0 -89.334 -4.66699 -134.001 -14c-35.333 -7.33301 -70 -18 -104 -32
c-24 -9.33301 -46.667 -19.666 -68 -30.999c-16 -9.33301 -24 -14.333 -24 -15c-2.66699 2 -7.33398 7.66699 -14.001 17c-9.33301 12 -16.333 24.333 -21 37c-14.667 38 -7 70 23 96c68.667 58.667 188 88 358 88c282 0 420.667 -138 416 -414l-2 -526l8 -167
c0.666992 -14 -0.666016 -24.667 -3.99902 -32c-8.66699 -18.667 -36 -28 -82 -28c-38 0 -62.333 18.333 -73 55c-8 27.333 -8.33301 68.333 -1 123h-10c0 -2 -8.66699 -11.333 -26 -28c-23.333 -22.667 -48.333 -43 -75 -61c-38 -26 -77 -46.667 -117 -62
c-50.667 -18 -101.334 -27 -152.001 -27c-116.667 0 -206.667 34.667 -270 104c-57.333 63.333 -85 144 -83 242c4.66699 223.333 139.334 337.333 404.001 342zM507 112.999c74.667 0 145 21 211 63c59.333 38 100 81.667 122 131v189c-8.66699 3.33301 -21 7.33301 -37 12
l-64 16c-62.667 12.667 -125 19 -187 19c-181.333 0 -273 -71 -275 -213c0 -144.667 76.667 -217 230 -217zM382 1240c-18 -11.333 -35.3359 -7.66797 -52.0029 10.999l-20 26c-16.667 22.667 -13 42.334 11 59.001l117 87c22.667 16 41.334 29.667 56.001 41
c20.667 14.667 38.334 28.334 53.001 41.001c4.66699 4 10 7.33301 16 10h9c8.66699 0 17.334 -3.33301 26.001 -10l226 -169c24 -16.667 28 -36.334 12 -59.001l-22 -26c-15.333 -18 -32 -21.667 -50 -11l-192 121zM798.997 1396c-21.333 -15.333 -40.334 -15 -57.001 1
l-22 19c-22 20 -23 38 -3 54c5.33301 3.33301 9.33301 6.33301 12 9c4.66699 3.33301 9.33398 7 14.001 11l197 151l63 49c21.333 18 39.666 18.667 54.999 2l41 -44c18.667 -20.667 18.334 -37.667 -0.999023 -51z" />
    <glyph glyph-name="uni1EA6" unicode="&#x1ea6;" 
d="M183 289l387.999 1032c15.333 48 47.333 72 96 72h68c50 0 84.667 -28 104 -84l459 -1250c10.667 -39.333 -5 -59 -47 -59h-41c-14.667 0 -26.667 2 -36 6c-8 3.33301 -14.667 8.33301 -20 15c-4 5.33301 -7.33301 12 -10 20l-3 9l-3 9l-21 53l-61 159l-32 81h-650
l-35 -93l-75 -196c-12.667 -42 -36 -63 -70 -63h-61c-37.333 0 -47.666 22 -30.999 66c6 19.333 33 93.666 81 222.999zM982.999 481.001l-170 465c-56 156 -92.333 259 -109 309h-12l-106 -307l-83 -229l-90 -238h570zM506.999 1503
c-18 -11.333 -35.3359 -7.66797 -52.0029 10.999l-20 26c-16.667 22.667 -13 42.334 11 59.001l117 87c22.667 16 41.334 29.667 56.001 41c20.667 14.667 38.334 28.334 53.001 41.001c4.66699 4 10 7.33301 16 10h9c8.66699 0 17.334 -3.33301 26.001 -10l226 -169
c24 -16.667 28 -36.334 12 -59.001l-22 -26c-15.333 -18 -32 -21.667 -50 -11l-192 121zM652.996 1900c-19.333 13.333 -20.001 30.333 -2.00098 51l42 44c14.667 16.667 33 16 55 -2l63 -49l196 -151l15 -11c2.66699 -2.66699 6.33398 -5.66699 11.001 -9
c20.667 -16 20 -34 -2 -54l-22 -19c-16.667 -16 -35.667 -16.333 -57 -1z" />
    <glyph glyph-name="uni1EA7" unicode="&#x1ea7;" horiz-adv-x="1173" 
d="M517 668c66.667 0 136.334 -8.33398 209.001 -25.001c27.333 -6 52.333 -12.333 75 -19c19.333 -6 33 -11.333 41 -16v125c0 178.667 -91.333 268 -274 268c-44.667 0 -89.334 -4.66699 -134.001 -14c-35.333 -7.33301 -70 -18 -104 -32
c-24 -9.33301 -46.667 -19.666 -68 -30.999c-16 -9.33301 -24 -14.333 -24 -15c-2.66699 2 -7.33398 7.66699 -14.001 17c-9.33301 12 -16.333 24.333 -21 37c-14.667 38 -7 70 23 96c68.667 58.667 188 88 358 88c282 0 420.667 -138 416 -414l-2 -526l8 -167
c0.666992 -14 -0.666016 -24.667 -3.99902 -32c-8.66699 -18.667 -36 -28 -82 -28c-38 0 -62.333 18.333 -73 55c-8 27.333 -8.33301 68.333 -1 123h-10c0 -2 -8.66699 -11.333 -26 -28c-23.333 -22.667 -48.333 -43 -75 -61c-38 -26 -77 -46.667 -117 -62
c-50.667 -18 -101.334 -27 -152.001 -27c-116.667 0 -206.667 34.667 -270 104c-57.333 63.333 -85 144 -83 242c4.66699 223.333 139.334 337.333 404.001 342zM507 112.999c74.667 0 145 21 211 63c59.333 38 100 81.667 122 131v189c-8.66699 3.33301 -21 7.33301 -37 12
l-64 16c-62.667 12.667 -125 19 -187 19c-181.333 0 -273 -71 -275 -213c0 -144.667 76.667 -217 230 -217zM382 1240c-18 -11.333 -35.3359 -7.66797 -52.0029 10.999l-20 26c-16.667 22.667 -13 42.334 11 59.001l117 87c22.667 16 41.334 29.667 56.001 41
c20.667 14.667 38.334 28.334 53.001 41.001c4.66699 4 10 7.33301 16 10h9c8.66699 0 17.334 -3.33301 26.001 -10l226 -169c24 -16.667 28 -36.334 12 -59.001l-22 -26c-15.333 -18 -32 -21.667 -50 -11l-192 121zM527.997 1637
c-19.333 13.333 -20.001 30.333 -2.00098 51l42 44c14.667 16.667 33 16 55 -2l63 -49l196 -151l15 -11c2.66699 -2.66699 6.33398 -5.66699 11.001 -9c20.667 -16 20 -34 -2 -54l-22 -19c-16.667 -16 -35.667 -16.333 -57 -1z" />
    <glyph glyph-name="uni1EA8" unicode="&#x1ea8;" 
d="M183 289l387.999 1032c15.333 48 47.333 72 96 72h68c50 0 84.667 -28 104 -84l459 -1250c10.667 -39.333 -5 -59 -47 -59h-41c-14.667 0 -26.667 2 -36 6c-8 3.33301 -14.667 8.33301 -20 15c-4 5.33301 -7.33301 12 -10 20l-3 9l-3 9l-21 53l-61 159l-32 81h-650
l-35 -93l-75 -196c-12.667 -42 -36 -63 -70 -63h-61c-37.333 0 -47.666 22 -30.999 66c6 19.333 33 93.666 81 222.999zM982.999 481.001l-170 465c-56 156 -92.333 259 -109 309h-12l-106 -307l-83 -229l-90 -238h570zM506.999 1503
c-18 -11.333 -35.3359 -7.66797 -52.0029 10.999l-20 26c-16.667 22.667 -13 42.334 11 59.001l117 87c22.667 16 41.334 29.667 56.001 41c20.667 14.667 38.334 28.334 53.001 41.001c4.66699 4 10 7.33301 16 10h9c8.66699 0 17.334 -3.33301 26.001 -10l226 -169
c24 -16.667 28 -36.334 12 -59.001l-22 -26c-15.333 -18 -32 -21.667 -50 -11l-192 121zM774.996 1854c-15.333 -12.667 -36.0049 -10.333 -62.0049 7c-17.333 9.33301 -30.666 24.333 -39.999 45c0.666992 34 22.667 68.667 66 104c38 23.333 80.667 35 128 35
c50.667 0 96 -14.167 136 -42.5s60 -66.833 60 -115.5c0 -47.333 -22.333 -84.666 -67 -111.999c-14.667 -9.33301 -30 -18.333 -46 -27s-24 -18.334 -24 -29.001c-3.33301 -14 -21 -21.167 -53 -21.5s-54 6.83398 -66 21.501c-5.33301 24 -1.66602 45 11.001 63
c11.333 24 32.833 42.167 64.5 54.5s47.834 27.166 48.501 44.499c0 15.333 -7 26.333 -21 33s-30.333 10 -49 10c-21.333 0 -39.666 -7.16699 -54.999 -21.5s-25.666 -30.5 -30.999 -48.5z" />
    <glyph glyph-name="uni1EA9" unicode="&#x1ea9;" horiz-adv-x="1173" 
d="M517 668c66.667 0 136.334 -8.33398 209.001 -25.001c27.333 -6 52.333 -12.333 75 -19c19.333 -6 33 -11.333 41 -16v125c0 178.667 -91.333 268 -274 268c-44.667 0 -89.334 -4.66699 -134.001 -14c-35.333 -7.33301 -70 -18 -104 -32
c-24 -9.33301 -46.667 -19.666 -68 -30.999c-16 -9.33301 -24 -14.333 -24 -15c-2.66699 2 -7.33398 7.66699 -14.001 17c-9.33301 12 -16.333 24.333 -21 37c-14.667 38 -7 70 23 96c68.667 58.667 188 88 358 88c282 0 420.667 -138 416 -414l-2 -526l8 -167
c0.666992 -14 -0.666016 -24.667 -3.99902 -32c-8.66699 -18.667 -36 -28 -82 -28c-38 0 -62.333 18.333 -73 55c-8 27.333 -8.33301 68.333 -1 123h-10c0 -2 -8.66699 -11.333 -26 -28c-23.333 -22.667 -48.333 -43 -75 -61c-38 -26 -77 -46.667 -117 -62
c-50.667 -18 -101.334 -27 -152.001 -27c-116.667 0 -206.667 34.667 -270 104c-57.333 63.333 -85 144 -83 242c4.66699 223.333 139.334 337.333 404.001 342zM507 112.999c74.667 0 145 21 211 63c59.333 38 100 81.667 122 131v189c-8.66699 3.33301 -21 7.33301 -37 12
l-64 16c-62.667 12.667 -125 19 -187 19c-181.333 0 -273 -71 -275 -213c0 -144.667 76.667 -217 230 -217zM382 1240c-18 -11.333 -35.3359 -7.66797 -52.0029 10.999l-20 26c-16.667 22.667 -13 42.334 11 59.001l117 87c22.667 16 41.334 29.667 56.001 41
c20.667 14.667 38.334 28.334 53.001 41.001c4.66699 4 10 7.33301 16 10h9c8.66699 0 17.334 -3.33301 26.001 -10l226 -169c24 -16.667 28 -36.334 12 -59.001l-22 -26c-15.333 -18 -32 -21.667 -50 -11l-192 121zM649.997 1591
c-15.333 -12.667 -36.0049 -10.333 -62.0049 7c-17.333 9.33301 -30.666 24.333 -39.999 45c0.666992 34 22.667 68.667 66 104c38 23.333 80.667 35 128 35c50.667 0 96 -14.167 136 -42.5s60 -66.833 60 -115.5c0 -47.333 -22.333 -84.666 -67 -111.999
c-14.667 -9.33301 -30 -18.333 -46 -27s-24 -18.334 -24 -29.001c-3.33301 -14 -21 -21.167 -53 -21.5s-54 6.83398 -66 21.501c-5.33301 24 -1.66602 45 11.001 63c11.333 24 32.833 42.167 64.5 54.5s47.834 27.166 48.501 44.499c0 15.333 -7 26.333 -21 33
s-30.333 10 -49 10c-21.333 0 -39.666 -7.16699 -54.999 -21.5s-25.666 -30.5 -30.999 -48.5z" />
    <glyph glyph-name="uni1EAA" unicode="&#x1eaa;" 
d="M183 289l387.999 1032c15.333 48 47.333 72 96 72h68c50 0 84.667 -28 104 -84l459 -1250c10.667 -39.333 -5 -59 -47 -59h-41c-14.667 0 -26.667 2 -36 6c-8 3.33301 -14.667 8.33301 -20 15c-4 5.33301 -7.33301 12 -10 20l-3 9l-3 9l-21 53l-61 159l-32 81h-650
l-35 -93l-75 -196c-12.667 -42 -36 -63 -70 -63h-61c-37.333 0 -47.666 22 -30.999 66c6 19.333 33 93.666 81 222.999zM982.999 481.001l-170 465c-56 156 -92.333 259 -109 309h-12l-106 -307l-83 -229l-90 -238h570zM506.999 1503
c-18 -11.333 -35.3359 -7.66797 -52.0029 10.999l-20 26c-16.667 22.667 -13 42.334 11 59.001l117 87c22.667 16 41.334 29.667 56.001 41c20.667 14.667 38.334 28.334 53.001 41.001c4.66699 4 10 7.33301 16 10h9c8.66699 0 17.334 -3.33301 26.001 -10l226 -169
c24 -16.667 28 -36.334 12 -59.001l-22 -26c-15.333 -18 -32 -21.667 -50 -11l-192 121zM508.996 1825c-19.333 13.333 -25 29.667 -17 49c12.667 30 29.334 56 50.001 78c27.333 28 56.666 43.667 87.999 47c21.333 1.33301 42.333 -1.66699 63 -9c16 -6 33.667 -15 53 -27
l42 -28c14.667 -8 26.667 -11.667 36 -11c16.667 2 32.334 10.667 47.001 26l11 11c1.33301 2 2.66602 4.33301 3.99902 7c0 0.666992 1.33301 2.66699 4 6c13.333 21.333 30.333 23.666 51 6.99902l32 -27c15.333 -12 18 -29.333 8 -52c-16 -27.333 -33.667 -49 -53 -65
c-25.333 -22 -55.333 -34.667 -90 -38c-20.667 -1.33301 -41.334 1.66699 -62.001 9c-14 5.33301 -30.667 14.333 -50 27l-23 13l-21 14c-14.667 6.66699 -27.667 9.66699 -39 9c-13.333 -1.33301 -26 -8.66602 -38 -21.999c-7.33301 -9.33301 -14.333 -22 -21 -38
c-7.33301 -18 -23.666 -18.667 -48.999 -2z" />
    <glyph glyph-name="uni1EAB" unicode="&#x1eab;" horiz-adv-x="1173" 
d="M517 668c66.667 0 136.334 -8.33398 209.001 -25.001c27.333 -6 52.333 -12.333 75 -19c19.333 -6 33 -11.333 41 -16v125c0 178.667 -91.333 268 -274 268c-44.667 0 -89.334 -4.66699 -134.001 -14c-35.333 -7.33301 -70 -18 -104 -32
c-24 -9.33301 -46.667 -19.666 -68 -30.999c-16 -9.33301 -24 -14.333 -24 -15c-2.66699 2 -7.33398 7.66699 -14.001 17c-9.33301 12 -16.333 24.333 -21 37c-14.667 38 -7 70 23 96c68.667 58.667 188 88 358 88c282 0 420.667 -138 416 -414l-2 -526l8 -167
c0.666992 -14 -0.666016 -24.667 -3.99902 -32c-8.66699 -18.667 -36 -28 -82 -28c-38 0 -62.333 18.333 -73 55c-8 27.333 -8.33301 68.333 -1 123h-10c0 -2 -8.66699 -11.333 -26 -28c-23.333 -22.667 -48.333 -43 -75 -61c-38 -26 -77 -46.667 -117 -62
c-50.667 -18 -101.334 -27 -152.001 -27c-116.667 0 -206.667 34.667 -270 104c-57.333 63.333 -85 144 -83 242c4.66699 223.333 139.334 337.333 404.001 342zM507 112.999c74.667 0 145 21 211 63c59.333 38 100 81.667 122 131v189c-8.66699 3.33301 -21 7.33301 -37 12
l-64 16c-62.667 12.667 -125 19 -187 19c-181.333 0 -273 -71 -275 -213c0 -144.667 76.667 -217 230 -217zM382 1240c-18 -11.333 -35.3359 -7.66797 -52.0029 10.999l-20 26c-16.667 22.667 -13 42.334 11 59.001l117 87c22.667 16 41.334 29.667 56.001 41
c20.667 14.667 38.334 28.334 53.001 41.001c4.66699 4 10 7.33301 16 10h9c8.66699 0 17.334 -3.33301 26.001 -10l226 -169c24 -16.667 28 -36.334 12 -59.001l-22 -26c-15.333 -18 -32 -21.667 -50 -11l-192 121zM383.997 1562c-19.333 13.333 -25 29.667 -17 49
c12.667 30 29.334 56 50.001 78c27.333 28 56.666 43.667 87.999 47c21.333 1.33301 42.333 -1.66699 63 -9c16 -6 33.667 -15 53 -27l42 -28c14.667 -8 26.667 -11.667 36 -11c16.667 2 32.334 10.667 47.001 26l11 11c1.33301 2 2.66602 4.33301 3.99902 7
c0 0.666992 1.33301 2.66699 4 6c13.333 21.333 30.333 23.666 51 6.99902l32 -27c15.333 -12 18 -29.333 8 -52c-16 -27.333 -33.667 -49 -53 -65c-25.333 -22 -55.333 -34.667 -90 -38c-20.667 -1.33301 -41.334 1.66699 -62.001 9c-14 5.33301 -30.667 14.333 -50 27
l-23 13l-21 14c-14.667 6.66699 -27.667 9.66699 -39 9c-13.333 -1.33301 -26 -8.66602 -38 -21.999c-7.33301 -9.33301 -14.333 -22 -21 -38c-7.33301 -18 -23.666 -18.667 -48.999 -2z" />
    <glyph glyph-name="uni1EAC" unicode="&#x1eac;" 
d="M183 289l387.999 1032c15.333 48 47.333 72 96 72h68c50 0 84.667 -28 104 -84l459 -1250c10.667 -39.333 -5 -59 -47 -59h-41c-14.667 0 -26.667 2 -36 6c-8 3.33301 -14.667 8.33301 -20 15c-4 5.33301 -7.33301 12 -10 20l-3 9l-3 9l-21 53l-61 159l-32 81h-650
l-35 -93l-75 -196c-12.667 -42 -36 -63 -70 -63h-61c-37.333 0 -47.666 22 -30.999 66c6 19.333 33 93.666 81 222.999zM982.999 481.001l-170 465c-56 156 -92.333 259 -109 309h-12l-106 -307l-83 -229l-90 -238h570zM628.999 -333.999
c-18.667 14.667 -28.668 41.667 -30.001 81c-2 41.333 6.33301 69 25 83c14.667 10.667 38.334 16 71.001 16s56.334 -5.33301 71.001 -16c19.333 -14 29.666 -41.667 30.999 -83c0.666992 -39.333 -8.33301 -66.333 -27 -81c-13.333 -10 -36.333 -15 -69 -15
c-34 0 -58 5 -72 15zM506.998 1503c-18 -11.333 -35.3359 -7.66797 -52.0029 10.999l-20 26c-16.667 22.667 -13 42.334 11 59.001l117 87c22.667 16 41.334 29.667 56.001 41c20.667 14.667 38.334 28.334 53.001 41.001c4.66699 4 10 7.33301 16 10h9
c8.66699 0 17.334 -3.33301 26.001 -10l226 -169c24 -16.667 28 -36.334 12 -59.001l-22 -26c-15.333 -18 -32 -21.667 -50 -11l-192 121z" />
    <glyph glyph-name="uni1EAD" unicode="&#x1ead;" horiz-adv-x="1173" 
d="M517 668c66.667 0 136.334 -8.33398 209.001 -25.001c27.333 -6 52.333 -12.333 75 -19c19.333 -6 33 -11.333 41 -16v125c0 178.667 -91.333 268 -274 268c-44.667 0 -89.334 -4.66699 -134.001 -14c-35.333 -7.33301 -70 -18 -104 -32
c-24 -9.33301 -46.667 -19.666 -68 -30.999c-16 -9.33301 -24 -14.333 -24 -15c-2.66699 2 -7.33398 7.66699 -14.001 17c-9.33301 12 -16.333 24.333 -21 37c-14.667 38 -7 70 23 96c68.667 58.667 188 88 358 88c282 0 420.667 -138 416 -414l-2 -526l8 -167
c0.666992 -14 -0.666016 -24.667 -3.99902 -32c-8.66699 -18.667 -36 -28 -82 -28c-38 0 -62.333 18.333 -73 55c-8 27.333 -8.33301 68.333 -1 123h-10c0 -2 -8.66699 -11.333 -26 -28c-23.333 -22.667 -48.333 -43 -75 -61c-38 -26 -77 -46.667 -117 -62
c-50.667 -18 -101.334 -27 -152.001 -27c-116.667 0 -206.667 34.667 -270 104c-57.333 63.333 -85 144 -83 242c4.66699 223.333 139.334 337.333 404.001 342zM507 112.999c74.667 0 145 21 211 63c59.333 38 100 81.667 122 131v189c-8.66699 3.33301 -21 7.33301 -37 12
l-64 16c-62.667 12.667 -125 19 -187 19c-181.333 0 -273 -71 -275 -213c0 -144.667 76.667 -217 230 -217zM382 1240c-18 -11.333 -35.3359 -7.66797 -52.0029 10.999l-20 26c-16.667 22.667 -13 42.334 11 59.001l117 87c22.667 16 41.334 29.667 56.001 41
c20.667 14.667 38.334 28.334 53.001 41.001c4.66699 4 10 7.33301 16 10h9c8.66699 0 17.334 -3.33301 26.001 -10l226 -169c24 -16.667 28 -36.334 12 -59.001l-22 -26c-15.333 -18 -32 -21.667 -50 -11l-192 121zM503.997 -334.003
c-18.667 14.667 -28.668 41.667 -30.001 81c-2 41.333 6.33301 69 25 83c14.667 10.667 38.334 16 71.001 16s56.334 -5.33301 71.001 -16c19.333 -14 29.666 -41.667 30.999 -83c0.666992 -39.333 -8.33301 -66.333 -27 -81c-13.333 -10 -36.333 -15 -69 -15
c-34 0 -58 5 -72 15z" />
    <glyph glyph-name="uni1EAE" unicode="&#x1eae;" 
d="M183 289l387.999 1032c15.333 48 47.333 72 96 72h68c50 0 84.667 -28 104 -84l459 -1250c10.667 -39.333 -5 -59 -47 -59h-41c-14.667 0 -26.667 2 -36 6c-8 3.33301 -14.667 8.33301 -20 15c-4 5.33301 -7.33301 12 -10 20l-3 9l-3 9l-21 53l-61 159l-32 81h-650
l-35 -93l-75 -196c-12.667 -42 -36 -63 -70 -63h-61c-37.333 0 -47.666 22 -30.999 66c6 19.333 33 93.666 81 222.999zM982.999 481.001l-170 465c-56 156 -92.333 259 -109 309h-12l-106 -307l-83 -229l-90 -238h570zM510.999 1561
c-39.333 38.667 -62.3311 89 -68.998 151c0 30 14.667 45 44 45h44c27.333 0 41 -13.333 41 -40c10 -66.667 52.667 -100 128 -100c74 0 116 33.333 126 100c0 25.333 15 38 45 38h34c32.667 0 49 -14.333 49 -43c-6.66699 -60 -31.667 -110.333 -75 -151
c-44.667 -42.667 -104.334 -64 -179.001 -64c-82.667 0 -145.334 21.333 -188.001 64zM688.001 1768c-20.667 -15.333 -39.6689 -15 -57.002 1l-21 19c-22 20 -23 38 -3 54c5.33301 3.33301 9.33301 6.33301 12 9c4.66699 3.33301 9.33398 7 14.001 11l197 151l62 49
c22 18 40.667 18.667 56 2l41 -44c18.667 -20.667 18.334 -37.667 -0.999023 -51z" />
    <glyph glyph-name="uni1EAF" unicode="&#x1eaf;" horiz-adv-x="1173" 
d="M517 668c66.667 0 136.334 -8.33398 209.001 -25.001c27.333 -6 52.333 -12.333 75 -19c19.333 -6 33 -11.333 41 -16v125c0 178.667 -91.333 268 -274 268c-44.667 0 -89.334 -4.66699 -134.001 -14c-35.333 -7.33301 -70 -18 -104 -32
c-24 -9.33301 -46.667 -19.666 -68 -30.999c-16 -9.33301 -24 -14.333 -24 -15c-2.66699 2 -7.33398 7.66699 -14.001 17c-9.33301 12 -16.333 24.333 -21 37c-14.667 38 -7 70 23 96c68.667 58.667 188 88 358 88c282 0 420.667 -138 416 -414l-2 -526l8 -167
c0.666992 -14 -0.666016 -24.667 -3.99902 -32c-8.66699 -18.667 -36 -28 -82 -28c-38 0 -62.333 18.333 -73 55c-8 27.333 -8.33301 68.333 -1 123h-10c0 -2 -8.66699 -11.333 -26 -28c-23.333 -22.667 -48.333 -43 -75 -61c-38 -26 -77 -46.667 -117 -62
c-50.667 -18 -101.334 -27 -152.001 -27c-116.667 0 -206.667 34.667 -270 104c-57.333 63.333 -85 144 -83 242c4.66699 223.333 139.334 337.333 404.001 342zM507 112.999c74.667 0 145 21 211 63c59.333 38 100 81.667 122 131v189c-8.66699 3.33301 -21 7.33301 -37 12
l-64 16c-62.667 12.667 -125 19 -187 19c-181.333 0 -273 -71 -275 -213c0 -144.667 76.667 -217 230 -217zM388 1298c-39.333 38.667 -62.3311 89 -68.998 151c0 30 14.667 45 44 45h44c27.333 0 41 -13.333 41 -40c10 -66.667 52.667 -100 128 -100
c74 0 116 33.333 126 100c0 25.333 15 38 45 38h34c32.667 0 49 -14.333 49 -43c-6.66699 -60 -31.667 -110.333 -75 -151c-44.667 -42.667 -104.334 -64 -179.001 -64c-82.667 0 -145.334 21.333 -188.001 64zM578.002 1498c-20.667 -15.333 -39.6689 -15 -57.002 1l-22 19
c-21.333 20 -22 38 -2 54c4.66699 3.33301 8.66699 6.33301 12 9c4.66699 3.33301 9.33398 7 14.001 11l197 151l62 49c22 18 40.667 18.667 56 2l41 -44c18.667 -20.667 18.334 -37.667 -0.999023 -51z" />
    <glyph glyph-name="uni1EB0" unicode="&#x1eb0;" 
d="M183 289l387.999 1032c15.333 48 47.333 72 96 72h68c50 0 84.667 -28 104 -84l459 -1250c10.667 -39.333 -5 -59 -47 -59h-41c-14.667 0 -26.667 2 -36 6c-8 3.33301 -14.667 8.33301 -20 15c-4 5.33301 -7.33301 12 -10 20l-3 9l-3 9l-21 53l-61 159l-32 81h-650
l-35 -93l-75 -196c-12.667 -42 -36 -63 -70 -63h-61c-37.333 0 -47.666 22 -30.999 66c6 19.333 33 93.666 81 222.999zM982.999 481.001l-170 465c-56 156 -92.333 259 -109 309h-12l-106 -307l-83 -229l-90 -238h570zM510.999 1561
c-39.333 38.667 -62.3311 89 -68.998 151c0 30 14.667 45 44 45h44c27.333 0 41 -13.333 41 -40c10 -66.667 52.667 -100 128 -100c74 0 116 33.333 126 100c0 25.333 15 38 45 38h34c32.667 0 49 -14.333 49 -43c-6.66699 -60 -31.667 -110.333 -75 -151
c-44.667 -42.667 -104.334 -64 -179.001 -64c-82.667 0 -145.334 21.333 -188.001 64zM417.001 1969c-18.667 13.333 -19.001 30.333 -1.00098 51l42 44c14.667 16.667 33 16 55 -2l63 -49l196 -151c4.66699 -4 9.66699 -7.66699 15 -11
c2.66699 -2.66699 6.33398 -5.66699 11.001 -9c20.667 -16 20 -34 -2 -54l-22 -19c-16.667 -16 -35.667 -16.333 -57 -1z" />
    <glyph glyph-name="uni1EB1" unicode="&#x1eb1;" horiz-adv-x="1173" 
d="M517 668c66.667 0 136.334 -8.33398 209.001 -25.001c27.333 -6 52.333 -12.333 75 -19c19.333 -6 33 -11.333 41 -16v125c0 178.667 -91.333 268 -274 268c-44.667 0 -89.334 -4.66699 -134.001 -14c-35.333 -7.33301 -70 -18 -104 -32
c-24 -9.33301 -46.667 -19.666 -68 -30.999c-16 -9.33301 -24 -14.333 -24 -15c-2.66699 2 -7.33398 7.66699 -14.001 17c-9.33301 12 -16.333 24.333 -21 37c-14.667 38 -7 70 23 96c68.667 58.667 188 88 358 88c282 0 420.667 -138 416 -414l-2 -526l8 -167
c0.666992 -14 -0.666016 -24.667 -3.99902 -32c-8.66699 -18.667 -36 -28 -82 -28c-38 0 -62.333 18.333 -73 55c-8 27.333 -8.33301 68.333 -1 123h-10c0 -2 -8.66699 -11.333 -26 -28c-23.333 -22.667 -48.333 -43 -75 -61c-38 -26 -77 -46.667 -117 -62
c-50.667 -18 -101.334 -27 -152.001 -27c-116.667 0 -206.667 34.667 -270 104c-57.333 63.333 -85 144 -83 242c4.66699 223.333 139.334 337.333 404.001 342zM507 112.999c74.667 0 145 21 211 63c59.333 38 100 81.667 122 131v189c-8.66699 3.33301 -21 7.33301 -37 12
l-64 16c-62.667 12.667 -125 19 -187 19c-181.333 0 -273 -71 -275 -213c0 -144.667 76.667 -217 230 -217zM388 1298c-39.333 38.667 -62.3311 89 -68.998 151c0 30 14.667 45 44 45h44c27.333 0 41 -13.333 41 -40c10 -66.667 52.667 -100 128 -100
c74 0 116 33.333 126 100c0 25.333 15 38 45 38h34c32.667 0 49 -14.333 49 -43c-6.66699 -60 -31.667 -110.333 -75 -151c-44.667 -42.667 -104.334 -64 -179.001 -64c-82.667 0 -145.334 21.333 -188.001 64zM287.002 1699c-19.333 13.333 -19.668 30.333 -1.00098 51
l41 44c15.333 16.667 34 16 56 -2l62 -49l197 -151c4.66699 -4 9.33398 -7.66699 14.001 -11c3.33301 -2.66699 7.33301 -5.66699 12 -9c20 -16 19.333 -34 -2 -54l-22 -19c-17.333 -16 -36.333 -16.333 -57 -1z" />
    <glyph glyph-name="uni1EB2" unicode="&#x1eb2;" 
d="M183 289l387.999 1032c15.333 48 47.333 72 96 72h68c50 0 84.667 -28 104 -84l459 -1250c10.667 -39.333 -5 -59 -47 -59h-41c-14.667 0 -26.667 2 -36 6c-8 3.33301 -14.667 8.33301 -20 15c-4 5.33301 -7.33301 12 -10 20l-3 9l-3 9l-21 53l-61 159l-32 81h-650
l-35 -93l-75 -196c-12.667 -42 -36 -63 -70 -63h-61c-37.333 0 -47.666 22 -30.999 66c6 19.333 33 93.666 81 222.999zM982.999 481.001l-170 465c-56 156 -92.333 259 -109 309h-12l-106 -307l-83 -229l-90 -238h570zM510.999 1561
c-39.333 38.667 -62.3311 89 -68.998 151c0 30 14.667 45 44 45h44c27.333 0 41 -13.333 41 -40c10 -66.667 52.667 -100 128 -100c74 0 116 33.333 126 100c0 25.333 15 38 45 38h34c32.667 0 49 -14.333 49 -43c-6.66699 -60 -31.667 -110.333 -75 -151
c-44.667 -42.667 -104.334 -64 -179.001 -64c-82.667 0 -145.334 21.333 -188.001 64zM615.001 1904c-15.333 -12.667 -36.0049 -10.333 -62.0049 7c-17.333 9.33301 -30.666 24.333 -39.999 45c0.666992 34 22.667 68.667 66 104c38 23.333 80.667 35 128 35
c50.667 0 96 -14.167 136 -42.5s60 -66.833 60 -115.5c0 -47.333 -22.333 -84.666 -67 -111.999c-14.667 -9.33301 -30 -18.333 -46 -27s-24 -18.334 -24 -29.001c-3.33301 -14 -21 -21.167 -53 -21.5s-54 6.83398 -66 21.501c-5.33301 24 -1.66602 45 11.001 63
c11.333 24 32.833 42.167 64.5 54.5s47.834 27.166 48.501 44.499c0 15.333 -7 26.333 -21 33s-30.333 10 -49 10c-21.333 0 -39.666 -7.16699 -54.999 -21.5s-25.666 -30.5 -30.999 -48.5z" />
    <glyph glyph-name="uni1EB3" unicode="&#x1eb3;" horiz-adv-x="1173" 
d="M517 668c66.667 0 136.334 -8.33398 209.001 -25.001c27.333 -6 52.333 -12.333 75 -19c19.333 -6 33 -11.333 41 -16v125c0 178.667 -91.333 268 -274 268c-44.667 0 -89.334 -4.66699 -134.001 -14c-35.333 -7.33301 -70 -18 -104 -32
c-24 -9.33301 -46.667 -19.666 -68 -30.999c-16 -9.33301 -24 -14.333 -24 -15c-2.66699 2 -7.33398 7.66699 -14.001 17c-9.33301 12 -16.333 24.333 -21 37c-14.667 38 -7 70 23 96c68.667 58.667 188 88 358 88c282 0 420.667 -138 416 -414l-2 -526l8 -167
c0.666992 -14 -0.666016 -24.667 -3.99902 -32c-8.66699 -18.667 -36 -28 -82 -28c-38 0 -62.333 18.333 -73 55c-8 27.333 -8.33301 68.333 -1 123h-10c0 -2 -8.66699 -11.333 -26 -28c-23.333 -22.667 -48.333 -43 -75 -61c-38 -26 -77 -46.667 -117 -62
c-50.667 -18 -101.334 -27 -152.001 -27c-116.667 0 -206.667 34.667 -270 104c-57.333 63.333 -85 144 -83 242c4.66699 223.333 139.334 337.333 404.001 342zM507 112.999c74.667 0 145 21 211 63c59.333 38 100 81.667 122 131v189c-8.66699 3.33301 -21 7.33301 -37 12
l-64 16c-62.667 12.667 -125 19 -187 19c-181.333 0 -273 -71 -275 -213c0 -144.667 76.667 -217 230 -217zM388 1298c-39.333 38.667 -62.3311 89 -68.998 151c0 30 14.667 45 44 45h44c27.333 0 41 -13.333 41 -40c10 -66.667 52.667 -100 128 -100
c74 0 116 33.333 126 100c0 25.333 15 38 45 38h34c32.667 0 49 -14.333 49 -43c-6.66699 -60 -31.667 -110.333 -75 -151c-44.667 -42.667 -104.334 -64 -179.001 -64c-82.667 0 -145.334 21.333 -188.001 64zM494.002 1644c-15.333 -12.667 -36.0049 -10.333 -62.0049 7
c-17.333 9.33301 -30.666 24.333 -39.999 45c0.666992 34 22.667 68.667 66 104c38 23.333 80.667 35 128 35c50.667 0 96 -14.167 136 -42.5s60 -66.833 60 -115.5c0 -47.333 -22.333 -84.666 -67 -111.999c-14.667 -9.33301 -30 -18.333 -46 -27s-24 -18.334 -24 -29.001
c-3.33301 -14 -21 -21.167 -53 -21.5s-54 6.83398 -66 21.501c-5.33301 24 -1.66602 45 11.001 63c11.333 24 32.833 42.167 64.5 54.5s47.834 27.166 48.501 44.499c0 15.333 -7 26.333 -21 33s-30.333 10 -49 10c-21.333 0 -39.666 -7.16699 -54.999 -21.5
s-25.666 -30.5 -30.999 -48.5z" />
    <glyph glyph-name="uni1EB4" unicode="&#x1eb4;" 
d="M183 289l387.999 1032c15.333 48 47.333 72 96 72h68c50 0 84.667 -28 104 -84l459 -1250c10.667 -39.333 -5 -59 -47 -59h-41c-14.667 0 -26.667 2 -36 6c-8 3.33301 -14.667 8.33301 -20 15c-4 5.33301 -7.33301 12 -10 20l-3 9l-3 9l-21 53l-61 159l-32 81h-650
l-35 -93l-75 -196c-12.667 -42 -36 -63 -70 -63h-61c-37.333 0 -47.666 22 -30.999 66c6 19.333 33 93.666 81 222.999zM982.999 481.001l-170 465c-56 156 -92.333 259 -109 309h-12l-106 -307l-83 -229l-90 -238h570zM510.999 1561
c-39.333 38.667 -62.3311 89 -68.998 151c0 30 14.667 45 44 45h44c27.333 0 41 -13.333 41 -40c10 -66.667 52.667 -100 128 -100c74 0 116 33.333 126 100c0 25.333 15 38 45 38h34c32.667 0 49 -14.333 49 -43c-6.66699 -60 -31.667 -110.333 -75 -151
c-44.667 -42.667 -104.334 -64 -179.001 -64c-82.667 0 -145.334 21.333 -188.001 64zM509.001 1825c-19.333 13.333 -25 29.667 -17 49c12.667 30 29.334 56 50.001 78c27.333 28 56.666 43.667 87.999 47c21.333 1.33301 42.333 -1.66699 63 -9c16 -6 33.667 -15 53 -27
l42 -28c14.667 -8 26.667 -11.667 36 -11c16.667 2 32.334 10.667 47.001 26l11 11c1.33301 2 2.66602 4.33301 3.99902 7c0 0.666992 1.33301 2.66699 4 6c13.333 21.333 30.333 23.666 51 6.99902l32 -27c15.333 -12 18 -29.333 8 -52c-16 -27.333 -33.667 -49 -53 -65
c-25.333 -22 -55.333 -34.667 -90 -38c-20.667 -1.33301 -41.334 1.66699 -62.001 9c-14 5.33301 -30.667 14.333 -50 27l-23 13l-21 14c-14.667 6.66699 -27.667 9.66699 -39 9c-13.333 -1.33301 -26 -8.66602 -38 -21.999c-7.33301 -9.33301 -14.333 -22 -21 -38
c-7.33301 -18 -23.666 -18.667 -48.999 -2z" />
    <glyph glyph-name="uni1EB5" unicode="&#x1eb5;" horiz-adv-x="1173" 
d="M517 668c66.667 0 136.334 -8.33398 209.001 -25.001c27.333 -6 52.333 -12.333 75 -19c19.333 -6 33 -11.333 41 -16v125c0 178.667 -91.333 268 -274 268c-44.667 0 -89.334 -4.66699 -134.001 -14c-35.333 -7.33301 -70 -18 -104 -32
c-24 -9.33301 -46.667 -19.666 -68 -30.999c-16 -9.33301 -24 -14.333 -24 -15c-2.66699 2 -7.33398 7.66699 -14.001 17c-9.33301 12 -16.333 24.333 -21 37c-14.667 38 -7 70 23 96c68.667 58.667 188 88 358 88c282 0 420.667 -138 416 -414l-2 -526l8 -167
c0.666992 -14 -0.666016 -24.667 -3.99902 -32c-8.66699 -18.667 -36 -28 -82 -28c-38 0 -62.333 18.333 -73 55c-8 27.333 -8.33301 68.333 -1 123h-10c0 -2 -8.66699 -11.333 -26 -28c-23.333 -22.667 -48.333 -43 -75 -61c-38 -26 -77 -46.667 -117 -62
c-50.667 -18 -101.334 -27 -152.001 -27c-116.667 0 -206.667 34.667 -270 104c-57.333 63.333 -85 144 -83 242c4.66699 223.333 139.334 337.333 404.001 342zM507 112.999c74.667 0 145 21 211 63c59.333 38 100 81.667 122 131v189c-8.66699 3.33301 -21 7.33301 -37 12
l-64 16c-62.667 12.667 -125 19 -187 19c-181.333 0 -273 -71 -275 -213c0 -144.667 76.667 -217 230 -217zM388 1298c-39.333 38.667 -62.3311 89 -68.998 151c0 30 14.667 45 44 45h44c27.333 0 41 -13.333 41 -40c10 -66.667 52.667 -100 128 -100
c74 0 116 33.333 126 100c0 25.333 15 38 45 38h34c32.667 0 49 -14.333 49 -43c-6.66699 -60 -31.667 -110.333 -75 -151c-44.667 -42.667 -104.334 -64 -179.001 -64c-82.667 0 -145.334 21.333 -188.001 64zM459.002 1575c-19.333 13.333 -25 29.667 -17 49
c12.667 30 29.334 56 50.001 78c27.333 28 56.666 43.667 87.999 47c21.333 1.33301 42.333 -1.66699 63 -9c16 -6 33.667 -15 53 -27l42 -28c14.667 -8 26.667 -11.667 36 -11c16.667 2 32.334 10.667 47.001 26l11 11c1.33301 2 2.66602 4.33301 3.99902 7
c0 0.666992 1.33301 2.66699 4 6c13.333 21.333 30.333 23.666 51 6.99902l32 -27c15.333 -12 18 -29.333 8 -52c-16 -27.333 -33.667 -49 -53 -65c-25.333 -22 -55.333 -34.667 -90 -38c-20.667 -1.33301 -41.334 1.66699 -62.001 9c-14 5.33301 -30.667 14.333 -50 27
l-23 13l-21 14c-14.667 6.66699 -27.667 9.66699 -39 9c-13.333 -1.33301 -26 -8.66602 -38 -21.999c-7.33301 -9.33301 -14.333 -22 -21 -38c-7.33301 -18 -23.666 -18.667 -48.999 -2z" />
    <glyph glyph-name="uni1EB6" unicode="&#x1eb6;" 
d="M183 289l387.999 1032c15.333 48 47.333 72 96 72h68c50 0 84.667 -28 104 -84l459 -1250c10.667 -39.333 -5 -59 -47 -59h-41c-14.667 0 -26.667 2 -36 6c-8 3.33301 -14.667 8.33301 -20 15c-4 5.33301 -7.33301 12 -10 20l-3 9l-3 9l-21 53l-61 159l-32 81h-650
l-35 -93l-75 -196c-12.667 -42 -36 -63 -70 -63h-61c-37.333 0 -47.666 22 -30.999 66c6 19.333 33 93.666 81 222.999zM982.999 481.001l-170 465c-56 156 -92.333 259 -109 309h-12l-106 -307l-83 -229l-90 -238h570zM510.999 1561
c-39.333 38.667 -62.3311 89 -68.998 151c0 30 14.667 45 44 45h44c27.333 0 41 -13.333 41 -40c10 -66.667 52.667 -100 128 -100c74 0 116 33.333 126 100c0 25.333 15 38 45 38h34c32.667 0 49 -14.333 49 -43c-6.66699 -60 -31.667 -110.333 -75 -151
c-44.667 -42.667 -104.334 -64 -179.001 -64c-82.667 0 -145.334 21.333 -188.001 64zM629.001 -333.999c-18.667 14.667 -28.668 41.667 -30.001 81c-2 41.333 6.33301 69 25 83c14.667 10.667 38.334 16 71.001 16s56.334 -5.33301 71.001 -16
c19.333 -14 29.666 -41.667 30.999 -83c0.666992 -39.333 -8.33301 -66.333 -27 -81c-13.333 -10 -36.333 -15 -69 -15c-34 0 -58 5 -72 15z" />
    <glyph glyph-name="uni1EB7" unicode="&#x1eb7;" horiz-adv-x="1173" 
d="M517 668c66.667 0 136.334 -8.33398 209.001 -25.001c27.333 -6 52.333 -12.333 75 -19c19.333 -6 33 -11.333 41 -16v125c0 178.667 -91.333 268 -274 268c-44.667 0 -89.334 -4.66699 -134.001 -14c-35.333 -7.33301 -70 -18 -104 -32
c-24 -9.33301 -46.667 -19.666 -68 -30.999c-16 -9.33301 -24 -14.333 -24 -15c-2.66699 2 -7.33398 7.66699 -14.001 17c-9.33301 12 -16.333 24.333 -21 37c-14.667 38 -7 70 23 96c68.667 58.667 188 88 358 88c282 0 420.667 -138 416 -414l-2 -526l8 -167
c0.666992 -14 -0.666016 -24.667 -3.99902 -32c-8.66699 -18.667 -36 -28 -82 -28c-38 0 -62.333 18.333 -73 55c-8 27.333 -8.33301 68.333 -1 123h-10c0 -2 -8.66699 -11.333 -26 -28c-23.333 -22.667 -48.333 -43 -75 -61c-38 -26 -77 -46.667 -117 -62
c-50.667 -18 -101.334 -27 -152.001 -27c-116.667 0 -206.667 34.667 -270 104c-57.333 63.333 -85 144 -83 242c4.66699 223.333 139.334 337.333 404.001 342zM507 112.999c74.667 0 145 21 211 63c59.333 38 100 81.667 122 131v189c-8.66699 3.33301 -21 7.33301 -37 12
l-64 16c-62.667 12.667 -125 19 -187 19c-181.333 0 -273 -71 -275 -213c0 -144.667 76.667 -217 230 -217zM506 -334.001c-18.667 14.667 -28.668 41.667 -30.001 81c-2 41.333 6.33301 69 25 83c14.667 10.667 38.334 16 71.001 16s56.334 -5.33301 71.001 -16
c19.333 -14 29.666 -41.667 30.999 -83c0.666992 -39.333 -8.33301 -66.333 -27 -81c-13.333 -10 -36.333 -15 -69 -15c-34 0 -58 5 -72 15zM387.999 1298c-39.333 38.667 -62.3311 89 -68.998 151c0 30 14.667 45 44 45h44c27.333 0 41 -13.333 41 -40
c10 -66.667 52.667 -100 128 -100c74 0 116 33.333 126 100c0 25.333 15 38 45 38h34c32.667 0 49 -14.333 49 -43c-6.66699 -60 -31.667 -110.333 -75 -151c-44.667 -42.667 -104.334 -64 -179.001 -64c-82.667 0 -145.334 21.333 -188.001 64z" />
    <glyph glyph-name="uni1EB8" unicode="&#x1eb8;" horiz-adv-x="1253" 
d="M216 324l-8 995.001c0 14.667 1.33301 26.667 4 36c7.33301 25.333 27.333 38 60 38h776c34.667 0 52 -18.667 52 -56v-43c0 -34 -17.333 -51 -52 -51h-671v-483l585 2c27.333 2.66699 41 -12.333 41 -45v-55c0 -26 -13 -39 -39 -39h-587v-249
c0 -88.667 0.666992 -163.334 2 -224.001h371c75.333 0 137 0.333008 185 1c56.667 0.666992 93.667 1.66699 111 3c34.667 2 52 -16.667 52 -56v-55c0 -28.667 -17.333 -43 -52 -43h-770c-44 0 -64.333 32.667 -61 98c0.666992 24.667 1 100 1 226zM585 -333.999
c-18.667 14.667 -28.668 41.667 -30.001 81c-2 41.333 6.33301 69 25 83c14.667 10.667 38.334 16 71.001 16s56.334 -5.33301 71.001 -16c19.333 -14 29.666 -41.667 30.999 -83c0.666992 -39.333 -8.33301 -66.333 -27 -81c-13.333 -10 -36.333 -15 -69 -15
c-34 0 -58 5 -72 15z" />
    <glyph glyph-name="uni1EB9" unicode="&#x1eb9;" horiz-adv-x="1191" 
d="M255 981c92.667 110.667 215.668 166 369.001 166c131.333 0 237.333 -42.333 318 -127c74.667 -78 112 -171.667 112 -281c0 -81.333 -8.66699 -135.333 -26 -162c-12.667 -18.667 -36 -28 -70 -28h-672l-4 -6c0 -122.667 28.667 -222.667 86 -300
c64.667 -86.667 157.334 -130 278.001 -130c41.333 0 82.333 5.33301 123 16c33.333 8.66699 65.666 20.667 96.999 36c23.333 11.333 45 23.666 65 36.999c7.33301 4.66699 14 9.33398 20 14.001l9 7c0 2 5 -1 15 -9l14 -14c5.33301 -6.66699 10 -14 14 -22
c18 -38.667 11 -70.667 -21 -96c-9.33301 -8.66699 -23.333 -18 -42 -28c-22 -12.667 -46.333 -24 -73 -34c-71.333 -26.667 -145 -40 -221 -40c-176.667 0 -310.334 56 -401.001 168c-82 102 -123 242.333 -123 421c0 168 44.333 305.333 133 412zM890.001 668l1 6.00293
c0 5.33301 0.333008 10.666 1 15.999l2 49c0 79.333 -22.667 143.666 -68 192.999c-48.667 53.333 -116.667 80 -204 80c-108.667 0 -193.667 -42 -255 -126c-47.333 -64.667 -73 -137.334 -77 -218.001h600zM554.001 -333.997c-18.667 14.667 -28.668 41.667 -30.001 81
c-2 41.333 6.33301 69 25 83c14.667 10.667 38.334 16 71.001 16s56.334 -5.33301 71.001 -16c19.333 -14 29.666 -41.667 30.999 -83c0.666992 -39.333 -8.33301 -66.333 -27 -81c-13.333 -10 -36.333 -15 -69 -15c-34 0 -58 5 -72 15z" />
    <glyph glyph-name="uni1EBA" unicode="&#x1eba;" horiz-adv-x="1253" 
d="M216 324l-8 995.001c0 14.667 1.33301 26.667 4 36c7.33301 25.333 27.333 38 60 38h776c34.667 0 52 -18.667 52 -56v-43c0 -34 -17.333 -51 -52 -51h-671v-483l585 2c27.333 2.66699 41 -12.333 41 -45v-55c0 -26 -13 -39 -39 -39h-587v-249
c0 -88.667 0.666992 -163.334 2 -224.001h371c75.333 0 137 0.333008 185 1c56.667 0.666992 93.667 1.66699 111 3c34.667 2 52 -16.667 52 -56v-55c0 -28.667 -17.333 -43 -52 -43h-770c-44 0 -64.333 32.667 -61 98c0.666992 24.667 1 100 1 226zM561 1654
c-15.333 -12.667 -36.0049 -10.333 -62.0049 7c-17.333 9.33301 -30.666 24.333 -39.999 45c0.666992 34 22.667 68.667 66 104c38 23.333 80.667 35 128 35c50.667 0 96 -14.167 136 -42.5s60 -66.833 60 -115.5c0 -47.333 -22.333 -84.666 -67 -111.999
c-14.667 -9.33301 -30 -18.333 -46 -27s-24 -18.334 -24 -29.001c-3.33301 -14 -21 -21.167 -53 -21.5s-54 6.83398 -66 21.501c-5.33301 24 -1.66602 45 11.001 63c11.333 24 32.833 42.167 64.5 54.5s47.834 27.166 48.501 44.499c0 15.333 -7 26.333 -21 33
s-30.333 10 -49 10c-21.333 0 -39.666 -7.16699 -54.999 -21.5s-25.666 -30.5 -30.999 -48.5z" />
    <glyph glyph-name="uni1EBB" unicode="&#x1ebb;" horiz-adv-x="1191" 
d="M255 981c92.667 110.667 215.668 166 369.001 166c131.333 0 237.333 -42.333 318 -127c74.667 -78 112 -171.667 112 -281c0 -81.333 -8.66699 -135.333 -26 -162c-12.667 -18.667 -36 -28 -70 -28h-672l-4 -6c0 -122.667 28.667 -222.667 86 -300
c64.667 -86.667 157.334 -130 278.001 -130c41.333 0 82.333 5.33301 123 16c33.333 8.66699 65.666 20.667 96.999 36c23.333 11.333 45 23.666 65 36.999c7.33301 4.66699 14 9.33398 20 14.001l9 7c0 2 5 -1 15 -9l14 -14c5.33301 -6.66699 10 -14 14 -22
c18 -38.667 11 -70.667 -21 -96c-9.33301 -8.66699 -23.333 -18 -42 -28c-22 -12.667 -46.333 -24 -73 -34c-71.333 -26.667 -145 -40 -221 -40c-176.667 0 -310.334 56 -401.001 168c-82 102 -123 242.333 -123 421c0 168 44.333 305.333 133 412zM890.001 668l1 6.00293
c0 5.33301 0.333008 10.666 1 15.999l2 49c0 79.333 -22.667 143.666 -68 192.999c-48.667 53.333 -116.667 80 -204 80c-108.667 0 -193.667 -42 -255 -126c-47.333 -64.667 -73 -137.334 -77 -218.001h600zM537.001 1391c-15.333 -12.667 -36.0049 -10.333 -62.0049 7
c-17.333 9.33301 -30.666 24.333 -39.999 45c0.666992 34 22.667 68.667 66 104c38 23.333 80.667 35 128 35c50.667 0 96 -14.167 136 -42.5s60 -66.833 60 -115.5c0 -47.333 -22.333 -84.666 -67 -111.999c-14.667 -9.33301 -30 -18.333 -46 -27s-24 -18.334 -24 -29.001
c-3.33301 -14 -21 -21.167 -53 -21.5s-54 6.83398 -66 21.501c-5.33301 24 -1.66602 45 11.001 63c11.333 24 32.833 42.167 64.5 54.5s47.834 27.166 48.501 44.499c0 15.333 -7 26.333 -21 33s-30.333 10 -49 10c-21.333 0 -39.666 -7.16699 -54.999 -21.5
s-25.666 -30.5 -30.999 -48.5z" />
    <glyph glyph-name="uni1EBC" unicode="&#x1ebc;" horiz-adv-x="1253" 
d="M216 324l-8 995.001c0 14.667 1.33301 26.667 4 36c7.33301 25.333 27.333 38 60 38h776c34.667 0 52 -18.667 52 -56v-43c0 -34 -17.333 -51 -52 -51h-671v-483l585 2c27.333 2.66699 41 -12.333 41 -45v-55c0 -26 -13 -39 -39 -39h-587v-249
c0 -88.667 0.666992 -163.334 2 -224.001h371c75.333 0 137 0.333008 185 1c56.667 0.666992 93.667 1.66699 111 3c34.667 2 52 -16.667 52 -56v-55c0 -28.667 -17.333 -43 -52 -43h-770c-44 0 -64.333 32.667 -61 98c0.666992 24.667 1 100 1 226zM425 1555
c-19.333 13.333 -25 29.667 -17 49c12.667 30 29.334 56 50.001 78c27.333 28 56.666 43.667 87.999 47c21.333 1.33301 42.333 -1.66699 63 -9c16 -6 33.667 -15 53 -27l42 -28c14.667 -8 26.667 -11.667 36 -11c16.667 2 32.334 10.667 47.001 26l11 11
c1.33301 2 2.66602 4.33301 3.99902 7c0 0.666992 1.33301 2.66699 4 6c13.333 21.333 30.333 23.666 51 6.99902l32 -27c15.333 -12 18 -29.333 8 -52c-16 -27.333 -33.667 -49 -53 -65c-25.333 -22 -55.333 -34.667 -90 -38c-20.667 -1.33301 -41.334 1.66699 -62.001 9
c-14 5.33301 -30.667 14.333 -50 27l-23 13l-21 14c-14.667 6.66699 -27.667 9.66699 -39 9c-13.333 -1.33301 -26 -8.66602 -38 -21.999c-7.33301 -9.33301 -14.333 -22 -21 -38c-7.33301 -18 -23.666 -18.667 -48.999 -2z" />
    <glyph glyph-name="uni1EBD" unicode="&#x1ebd;" horiz-adv-x="1191" 
d="M255 981c92.667 110.667 215.668 166 369.001 166c131.333 0 237.333 -42.333 318 -127c74.667 -78 112 -171.667 112 -281c0 -81.333 -8.66699 -135.333 -26 -162c-12.667 -18.667 -36 -28 -70 -28h-672l-4 -6c0 -122.667 28.667 -222.667 86 -300
c64.667 -86.667 157.334 -130 278.001 -130c41.333 0 82.333 5.33301 123 16c33.333 8.66699 65.666 20.667 96.999 36c23.333 11.333 45 23.666 65 36.999c7.33301 4.66699 14 9.33398 20 14.001l9 7c0 2 5 -1 15 -9l14 -14c5.33301 -6.66699 10 -14 14 -22
c18 -38.667 11 -70.667 -21 -96c-9.33301 -8.66699 -23.333 -18 -42 -28c-22 -12.667 -46.333 -24 -73 -34c-71.333 -26.667 -145 -40 -221 -40c-176.667 0 -310.334 56 -401.001 168c-82 102 -123 242.333 -123 421c0 168 44.333 305.333 133 412zM890.001 668l1 6.00293
c0 5.33301 0.333008 10.666 1 15.999l2 49c0 79.333 -22.667 143.666 -68 192.999c-48.667 53.333 -116.667 80 -204 80c-108.667 0 -193.667 -42 -255 -126c-47.333 -64.667 -73 -137.334 -77 -218.001h600zM391.001 1292c-19.333 13.333 -25 29.667 -17 49
c12.667 30 29.334 56 50.001 78c27.333 28 56.666 43.667 87.999 47c21.333 1.33301 42.333 -1.66699 63 -9c16 -6 33.667 -15 53 -27l42 -28c14.667 -8 26.667 -11.667 36 -11c16.667 2 32.334 10.667 47.001 26l11 11c1.33301 2 2.66602 4.33301 3.99902 7
c0 0.666992 1.33301 2.66699 4 6c13.333 21.333 30.333 23.666 51 6.99902l32 -27c15.333 -12 18 -29.333 8 -52c-16 -27.333 -33.667 -49 -53 -65c-25.333 -22 -55.333 -34.667 -90 -38c-20.667 -1.33301 -41.334 1.66699 -62.001 9c-14 5.33301 -30.667 14.333 -50 27
l-23 13l-21 14c-14.667 6.66699 -27.667 9.66699 -39 9c-13.333 -1.33301 -26 -8.66602 -38 -21.999c-7.33301 -9.33301 -14.333 -22 -21 -38c-7.33301 -18 -23.666 -18.667 -48.999 -2z" />
    <glyph glyph-name="uni1EBE" unicode="&#x1ebe;" horiz-adv-x="1253" 
d="M216 324l-8 995.001c0 14.667 1.33301 26.667 4 36c7.33301 25.333 27.333 38 60 38h776c34.667 0 52 -18.667 52 -56v-43c0 -34 -17.333 -51 -52 -51h-671v-483l585 2c27.333 2.66699 41 -12.333 41 -45v-55c0 -26 -13 -39 -39 -39h-587v-249
c0 -88.667 0.666992 -163.334 2 -224.001h371c75.333 0 137 0.333008 185 1c56.667 0.666992 93.667 1.66699 111 3c34.667 2 52 -16.667 52 -56v-55c0 -28.667 -17.333 -43 -52 -43h-770c-44 0 -64.333 32.667 -61 98c0.666992 24.667 1 100 1 226zM463 1503
c-18 -11.333 -35.3359 -7.66797 -52.0029 10.999l-20 26c-16.667 22.667 -13 42.334 11 59.001l117 87c22.667 16 41.334 29.667 56.001 41c20.667 14.667 38.334 28.334 53.001 41.001c4.66699 4 10 7.33301 16 10h9c8.66699 0 17.334 -3.33301 26.001 -10l226 -169
c24 -16.667 28 -36.334 12 -59.001l-22 -26c-15.333 -18 -32 -21.667 -50 -11l-192 121zM879.997 1659c-21.333 -15.333 -40.334 -15 -57.001 1l-22 19c-22 20 -23 38 -3 54c5.33301 3.33301 9.33301 6.33301 12 9c4.66699 3.33301 9.33398 7 14.001 11l197 151l63 49
c21.333 18 39.666 18.667 54.999 2l41 -44c18.667 -20.667 18.334 -37.667 -0.999023 -51z" />
    <glyph glyph-name="uni1EBF" unicode="&#x1ebf;" horiz-adv-x="1191" 
d="M255 981c92.667 110.667 215.668 166 369.001 166c131.333 0 237.333 -42.333 318 -127c74.667 -78 112 -171.667 112 -281c0 -81.333 -8.66699 -135.333 -26 -162c-12.667 -18.667 -36 -28 -70 -28h-672l-4 -6c0 -122.667 28.667 -222.667 86 -300
c64.667 -86.667 157.334 -130 278.001 -130c41.333 0 82.333 5.33301 123 16c33.333 8.66699 65.666 20.667 96.999 36c23.333 11.333 45 23.666 65 36.999c7.33301 4.66699 14 9.33398 20 14.001l9 7c0 2 5 -1 15 -9l14 -14c5.33301 -6.66699 10 -14 14 -22
c18 -38.667 11 -70.667 -21 -96c-9.33301 -8.66699 -23.333 -18 -42 -28c-22 -12.667 -46.333 -24 -73 -34c-71.333 -26.667 -145 -40 -221 -40c-176.667 0 -310.334 56 -401.001 168c-82 102 -123 242.333 -123 421c0 168 44.333 305.333 133 412zM890.001 668l1 6.00293
c0 5.33301 0.333008 10.666 1 15.999l2 49c0 79.333 -22.667 143.666 -68 192.999c-48.667 53.333 -116.667 80 -204 80c-108.667 0 -193.667 -42 -255 -126c-47.333 -64.667 -73 -137.334 -77 -218.001h600zM432.001 1240c-18 -11.333 -35.3359 -7.66797 -52.0029 10.999
l-20 26c-16.667 22.667 -13 42.334 11 59.001l117 87c22.667 16 41.334 29.667 56.001 41c20.667 14.667 38.334 28.334 53.001 41.001c4.66699 4 10 7.33301 16 10h9c8.66699 0 17.334 -3.33301 26.001 -10l226 -169c24 -16.667 28 -36.334 12 -59.001l-22 -26
c-15.333 -18 -32 -21.667 -50 -11l-192 121zM848.998 1396c-21.333 -15.333 -40.334 -15 -57.001 1l-22 19c-22 20 -23 38 -3 54c5.33301 3.33301 9.33301 6.33301 12 9c4.66699 3.33301 9.33398 7 14.001 11l197 151l63 49c21.333 18 39.666 18.667 54.999 2l41 -44
c18.667 -20.667 18.334 -37.667 -0.999023 -51z" />
    <glyph glyph-name="uni1EC0" unicode="&#x1ec0;" horiz-adv-x="1253" 
d="M216 324l-8 995.001c0 14.667 1.33301 26.667 4 36c7.33301 25.333 27.333 38 60 38h776c34.667 0 52 -18.667 52 -56v-43c0 -34 -17.333 -51 -52 -51h-671v-483l585 2c27.333 2.66699 41 -12.333 41 -45v-55c0 -26 -13 -39 -39 -39h-587v-249
c0 -88.667 0.666992 -163.334 2 -224.001h371c75.333 0 137 0.333008 185 1c56.667 0.666992 93.667 1.66699 111 3c34.667 2 52 -16.667 52 -56v-55c0 -28.667 -17.333 -43 -52 -43h-770c-44 0 -64.333 32.667 -61 98c0.666992 24.667 1 100 1 226zM463 1503
c-18 -11.333 -35.3359 -7.66797 -52.0029 10.999l-20 26c-16.667 22.667 -13 42.334 11 59.001l117 87c22.667 16 41.334 29.667 56.001 41c20.667 14.667 38.334 28.334 53.001 41.001c4.66699 4 10 7.33301 16 10h9c8.66699 0 17.334 -3.33301 26.001 -10l226 -169
c24 -16.667 28 -36.334 12 -59.001l-22 -26c-15.333 -18 -32 -21.667 -50 -11l-192 121zM608.997 1900c-19.333 13.333 -20.001 30.333 -2.00098 51l42 44c14.667 16.667 33 16 55 -2l63 -49l196 -151l15 -11c2.66699 -2.66699 6.33398 -5.66699 11.001 -9
c20.667 -16 20 -34 -2 -54l-22 -19c-16.667 -16 -35.667 -16.333 -57 -1z" />
    <glyph glyph-name="uni1EC1" unicode="&#x1ec1;" horiz-adv-x="1191" 
d="M255 981c92.667 110.667 215.668 166 369.001 166c131.333 0 237.333 -42.333 318 -127c74.667 -78 112 -171.667 112 -281c0 -81.333 -8.66699 -135.333 -26 -162c-12.667 -18.667 -36 -28 -70 -28h-672l-4 -6c0 -122.667 28.667 -222.667 86 -300
c64.667 -86.667 157.334 -130 278.001 -130c41.333 0 82.333 5.33301 123 16c33.333 8.66699 65.666 20.667 96.999 36c23.333 11.333 45 23.666 65 36.999c7.33301 4.66699 14 9.33398 20 14.001l9 7c0 2 5 -1 15 -9l14 -14c5.33301 -6.66699 10 -14 14 -22
c18 -38.667 11 -70.667 -21 -96c-9.33301 -8.66699 -23.333 -18 -42 -28c-22 -12.667 -46.333 -24 -73 -34c-71.333 -26.667 -145 -40 -221 -40c-176.667 0 -310.334 56 -401.001 168c-82 102 -123 242.333 -123 421c0 168 44.333 305.333 133 412zM890.001 668l1 6.00293
c0 5.33301 0.333008 10.666 1 15.999l2 49c0 79.333 -22.667 143.666 -68 192.999c-48.667 53.333 -116.667 80 -204 80c-108.667 0 -193.667 -42 -255 -126c-47.333 -64.667 -73 -137.334 -77 -218.001h600zM432.001 1240c-18 -11.333 -35.3359 -7.66797 -52.0029 10.999
l-20 26c-16.667 22.667 -13 42.334 11 59.001l117 87c22.667 16 41.334 29.667 56.001 41c20.667 14.667 38.334 28.334 53.001 41.001c4.66699 4 10 7.33301 16 10h9c8.66699 0 17.334 -3.33301 26.001 -10l226 -169c24 -16.667 28 -36.334 12 -59.001l-22 -26
c-15.333 -18 -32 -21.667 -50 -11l-192 121zM577.998 1637c-19.333 13.333 -20.001 30.333 -2.00098 51l42 44c14.667 16.667 33 16 55 -2l63 -49l196 -151l15 -11c2.66699 -2.66699 6.33398 -5.66699 11.001 -9c20.667 -16 20 -34 -2 -54l-22 -19
c-16.667 -16 -35.667 -16.333 -57 -1z" />
    <glyph glyph-name="uni1EC2" unicode="&#x1ec2;" horiz-adv-x="1253" 
d="M216 324l-8 995.001c0 14.667 1.33301 26.667 4 36c7.33301 25.333 27.333 38 60 38h776c34.667 0 52 -18.667 52 -56v-43c0 -34 -17.333 -51 -52 -51h-671v-483l585 2c27.333 2.66699 41 -12.333 41 -45v-55c0 -26 -13 -39 -39 -39h-587v-249
c0 -88.667 0.666992 -163.334 2 -224.001h371c75.333 0 137 0.333008 185 1c56.667 0.666992 93.667 1.66699 111 3c34.667 2 52 -16.667 52 -56v-55c0 -28.667 -17.333 -43 -52 -43h-770c-44 0 -64.333 32.667 -61 98c0.666992 24.667 1 100 1 226zM463 1503
c-18 -11.333 -35.3359 -7.66797 -52.0029 10.999l-20 26c-16.667 22.667 -13 42.334 11 59.001l117 87c22.667 16 41.334 29.667 56.001 41c20.667 14.667 38.334 28.334 53.001 41.001c4.66699 4 10 7.33301 16 10h9c8.66699 0 17.334 -3.33301 26.001 -10l226 -169
c24 -16.667 28 -36.334 12 -59.001l-22 -26c-15.333 -18 -32 -21.667 -50 -11l-192 121zM730.997 1854c-15.333 -12.667 -36.0049 -10.333 -62.0049 7c-17.333 9.33301 -30.666 24.333 -39.999 45c0.666992 34 22.667 68.667 66 104c38 23.333 80.667 35 128 35
c50.667 0 96 -14.167 136 -42.5s60 -66.833 60 -115.5c0 -47.333 -22.333 -84.666 -67 -111.999c-14.667 -9.33301 -30 -18.333 -46 -27s-24 -18.334 -24 -29.001c-3.33301 -14 -21 -21.167 -53 -21.5s-54 6.83398 -66 21.501c-5.33301 24 -1.66602 45 11.001 63
c11.333 24 32.833 42.167 64.5 54.5s47.834 27.166 48.501 44.499c0 15.333 -7 26.333 -21 33s-30.333 10 -49 10c-21.333 0 -39.666 -7.16699 -54.999 -21.5s-25.666 -30.5 -30.999 -48.5z" />
    <glyph glyph-name="uni1EC3" unicode="&#x1ec3;" horiz-adv-x="1191" 
d="M255 981c92.667 110.667 215.668 166 369.001 166c131.333 0 237.333 -42.333 318 -127c74.667 -78 112 -171.667 112 -281c0 -81.333 -8.66699 -135.333 -26 -162c-12.667 -18.667 -36 -28 -70 -28h-672l-4 -6c0 -122.667 28.667 -222.667 86 -300
c64.667 -86.667 157.334 -130 278.001 -130c41.333 0 82.333 5.33301 123 16c33.333 8.66699 65.666 20.667 96.999 36c23.333 11.333 45 23.666 65 36.999c7.33301 4.66699 14 9.33398 20 14.001l9 7c0 2 5 -1 15 -9l14 -14c5.33301 -6.66699 10 -14 14 -22
c18 -38.667 11 -70.667 -21 -96c-9.33301 -8.66699 -23.333 -18 -42 -28c-22 -12.667 -46.333 -24 -73 -34c-71.333 -26.667 -145 -40 -221 -40c-176.667 0 -310.334 56 -401.001 168c-82 102 -123 242.333 -123 421c0 168 44.333 305.333 133 412zM890.001 668l1 6.00293
c0 5.33301 0.333008 10.666 1 15.999l2 49c0 79.333 -22.667 143.666 -68 192.999c-48.667 53.333 -116.667 80 -204 80c-108.667 0 -193.667 -42 -255 -126c-47.333 -64.667 -73 -137.334 -77 -218.001h600zM432.001 1240c-18 -11.333 -35.3359 -7.66797 -52.0029 10.999
l-20 26c-16.667 22.667 -13 42.334 11 59.001l117 87c22.667 16 41.334 29.667 56.001 41c20.667 14.667 38.334 28.334 53.001 41.001c4.66699 4 10 7.33301 16 10h9c8.66699 0 17.334 -3.33301 26.001 -10l226 -169c24 -16.667 28 -36.334 12 -59.001l-22 -26
c-15.333 -18 -32 -21.667 -50 -11l-192 121zM699.998 1591c-15.333 -12.667 -36.0049 -10.333 -62.0049 7c-17.333 9.33301 -30.666 24.333 -39.999 45c0.666992 34 22.667 68.667 66 104c38 23.333 80.667 35 128 35c50.667 0 96 -14.167 136 -42.5s60 -66.833 60 -115.5
c0 -47.333 -22.333 -84.666 -67 -111.999c-14.667 -9.33301 -30 -18.333 -46 -27s-24 -18.334 -24 -29.001c-3.33301 -14 -21 -21.167 -53 -21.5s-54 6.83398 -66 21.501c-5.33301 24 -1.66602 45 11.001 63c11.333 24 32.833 42.167 64.5 54.5s47.834 27.166 48.501 44.499
c0 15.333 -7 26.333 -21 33s-30.333 10 -49 10c-21.333 0 -39.666 -7.16699 -54.999 -21.5s-25.666 -30.5 -30.999 -48.5z" />
    <glyph glyph-name="uni1EC4" unicode="&#x1ec4;" horiz-adv-x="1253" 
d="M216 324l-8 995.001c0 14.667 1.33301 26.667 4 36c7.33301 25.333 27.333 38 60 38h776c34.667 0 52 -18.667 52 -56v-43c0 -34 -17.333 -51 -52 -51h-671v-483l585 2c27.333 2.66699 41 -12.333 41 -45v-55c0 -26 -13 -39 -39 -39h-587v-249
c0 -88.667 0.666992 -163.334 2 -224.001h371c75.333 0 137 0.333008 185 1c56.667 0.666992 93.667 1.66699 111 3c34.667 2 52 -16.667 52 -56v-55c0 -28.667 -17.333 -43 -52 -43h-770c-44 0 -64.333 32.667 -61 98c0.666992 24.667 1 100 1 226zM463 1503
c-18 -11.333 -35.3359 -7.66797 -52.0029 10.999l-20 26c-16.667 22.667 -13 42.334 11 59.001l117 87c22.667 16 41.334 29.667 56.001 41c20.667 14.667 38.334 28.334 53.001 41.001c4.66699 4 10 7.33301 16 10h9c8.66699 0 17.334 -3.33301 26.001 -10l226 -169
c24 -16.667 28 -36.334 12 -59.001l-22 -26c-15.333 -18 -32 -21.667 -50 -11l-192 121zM464.997 1825c-19.333 13.333 -25 29.667 -17 49c12.667 30 29.334 56 50.001 78c27.333 28 56.666 43.667 87.999 47c21.333 1.33301 42.333 -1.66699 63 -9c16 -6 33.667 -15 53 -27
l42 -28c14.667 -8 26.667 -11.667 36 -11c16.667 2 32.334 10.667 47.001 26l11 11c1.33301 2 2.66602 4.33301 3.99902 7c0 0.666992 1.33301 2.66699 4 6c13.333 21.333 30.333 23.666 51 6.99902l32 -27c15.333 -12 18 -29.333 8 -52c-16 -27.333 -33.667 -49 -53 -65
c-25.333 -22 -55.333 -34.667 -90 -38c-20.667 -1.33301 -41.334 1.66699 -62.001 9c-14 5.33301 -30.667 14.333 -50 27l-23 13l-21 14c-14.667 6.66699 -27.667 9.66699 -39 9c-13.333 -1.33301 -26 -8.66602 -38 -21.999c-7.33301 -9.33301 -14.333 -22 -21 -38
c-7.33301 -18 -23.666 -18.667 -48.999 -2z" />
    <glyph glyph-name="uni1EC5" unicode="&#x1ec5;" horiz-adv-x="1191" 
d="M255 981c92.667 110.667 215.668 166 369.001 166c131.333 0 237.333 -42.333 318 -127c74.667 -78 112 -171.667 112 -281c0 -81.333 -8.66699 -135.333 -26 -162c-12.667 -18.667 -36 -28 -70 -28h-672l-4 -6c0 -122.667 28.667 -222.667 86 -300
c64.667 -86.667 157.334 -130 278.001 -130c41.333 0 82.333 5.33301 123 16c33.333 8.66699 65.666 20.667 96.999 36c23.333 11.333 45 23.666 65 36.999c7.33301 4.66699 14 9.33398 20 14.001l9 7c0 2 5 -1 15 -9l14 -14c5.33301 -6.66699 10 -14 14 -22
c18 -38.667 11 -70.667 -21 -96c-9.33301 -8.66699 -23.333 -18 -42 -28c-22 -12.667 -46.333 -24 -73 -34c-71.333 -26.667 -145 -40 -221 -40c-176.667 0 -310.334 56 -401.001 168c-82 102 -123 242.333 -123 421c0 168 44.333 305.333 133 412zM890.001 668l1 6.00293
c0 5.33301 0.333008 10.666 1 15.999l2 49c0 79.333 -22.667 143.666 -68 192.999c-48.667 53.333 -116.667 80 -204 80c-108.667 0 -193.667 -42 -255 -126c-47.333 -64.667 -73 -137.334 -77 -218.001h600zM432.001 1240c-18 -11.333 -35.3359 -7.66797 -52.0029 10.999
l-20 26c-16.667 22.667 -13 42.334 11 59.001l117 87c22.667 16 41.334 29.667 56.001 41c20.667 14.667 38.334 28.334 53.001 41.001c4.66699 4 10 7.33301 16 10h9c8.66699 0 17.334 -3.33301 26.001 -10l226 -169c24 -16.667 28 -36.334 12 -59.001l-22 -26
c-15.333 -18 -32 -21.667 -50 -11l-192 121zM433.998 1562c-19.333 13.333 -25 29.667 -17 49c12.667 30 29.334 56 50.001 78c27.333 28 56.666 43.667 87.999 47c21.333 1.33301 42.333 -1.66699 63 -9c16 -6 33.667 -15 53 -27l42 -28c14.667 -8 26.667 -11.667 36 -11
c16.667 2 32.334 10.667 47.001 26l11 11c1.33301 2 2.66602 4.33301 3.99902 7c0 0.666992 1.33301 2.66699 4 6c13.333 21.333 30.333 23.666 51 6.99902l32 -27c15.333 -12 18 -29.333 8 -52c-16 -27.333 -33.667 -49 -53 -65c-25.333 -22 -55.333 -34.667 -90 -38
c-20.667 -1.33301 -41.334 1.66699 -62.001 9c-14 5.33301 -30.667 14.333 -50 27l-23 13l-21 14c-14.667 6.66699 -27.667 9.66699 -39 9c-13.333 -1.33301 -26 -8.66602 -38 -21.999c-7.33301 -9.33301 -14.333 -22 -21 -38c-7.33301 -18 -23.666 -18.667 -48.999 -2z" />
    <glyph glyph-name="uni1EC6" unicode="&#x1ec6;" horiz-adv-x="1253" 
d="M216 324l-8 995.001c0 14.667 1.33301 26.667 4 36c7.33301 25.333 27.333 38 60 38h776c34.667 0 52 -18.667 52 -56v-43c0 -34 -17.333 -51 -52 -51h-671v-483l585 2c27.333 2.66699 41 -12.333 41 -45v-55c0 -26 -13 -39 -39 -39h-587v-249
c0 -88.667 0.666992 -163.334 2 -224.001h371c75.333 0 137 0.333008 185 1c56.667 0.666992 93.667 1.66699 111 3c34.667 2 52 -16.667 52 -56v-55c0 -28.667 -17.333 -43 -52 -43h-770c-44 0 -64.333 32.667 -61 98c0.666992 24.667 1 100 1 226zM463 1503
c-18 -11.333 -35.3359 -7.66797 -52.0029 10.999l-20 26c-16.667 22.667 -13 42.334 11 59.001l117 87c22.667 16 41.334 29.667 56.001 41c20.667 14.667 38.334 28.334 53.001 41.001c4.66699 4 10 7.33301 16 10h9c8.66699 0 17.334 -3.33301 26.001 -10l226 -169
c24 -16.667 28 -36.334 12 -59.001l-22 -26c-15.333 -18 -32 -21.667 -50 -11l-192 121zM584.997 -334.001c-18.667 14.667 -28.668 41.667 -30.001 81c-2 41.333 6.33301 69 25 83c14.667 10.667 38.334 16 71.001 16s56.334 -5.33301 71.001 -16
c19.333 -14 29.666 -41.667 30.999 -83c0.666992 -39.333 -8.33301 -66.333 -27 -81c-13.333 -10 -36.333 -15 -69 -15c-34 0 -58 5 -72 15z" />
    <glyph glyph-name="uni1EC7" unicode="&#x1ec7;" horiz-adv-x="1191" 
d="M255 981c92.667 110.667 215.668 166 369.001 166c131.333 0 237.333 -42.333 318 -127c74.667 -78 112 -171.667 112 -281c0 -81.333 -8.66699 -135.333 -26 -162c-12.667 -18.667 -36 -28 -70 -28h-672l-4 -6c0 -122.667 28.667 -222.667 86 -300
c64.667 -86.667 157.334 -130 278.001 -130c41.333 0 82.333 5.33301 123 16c33.333 8.66699 65.666 20.667 96.999 36c23.333 11.333 45 23.666 65 36.999c7.33301 4.66699 14 9.33398 20 14.001l9 7c0 2 5 -1 15 -9l14 -14c5.33301 -6.66699 10 -14 14 -22
c18 -38.667 11 -70.667 -21 -96c-9.33301 -8.66699 -23.333 -18 -42 -28c-22 -12.667 -46.333 -24 -73 -34c-71.333 -26.667 -145 -40 -221 -40c-176.667 0 -310.334 56 -401.001 168c-82 102 -123 242.333 -123 421c0 168 44.333 305.333 133 412zM890.001 668l1 6.00293
c0 5.33301 0.333008 10.666 1 15.999l2 49c0 79.333 -22.667 143.666 -68 192.999c-48.667 53.333 -116.667 80 -204 80c-108.667 0 -193.667 -42 -255 -126c-47.333 -64.667 -73 -137.334 -77 -218.001h600zM432.001 1240c-18 -11.333 -35.3359 -7.66797 -52.0029 10.999
l-20 26c-16.667 22.667 -13 42.334 11 59.001l117 87c22.667 16 41.334 29.667 56.001 41c20.667 14.667 38.334 28.334 53.001 41.001c4.66699 4 10 7.33301 16 10h9c8.66699 0 17.334 -3.33301 26.001 -10l226 -169c24 -16.667 28 -36.334 12 -59.001l-22 -26
c-15.333 -18 -32 -21.667 -50 -11l-192 121zM553.998 -333.999c-18.667 14.667 -28.668 41.667 -30.001 81c-2 41.333 6.33301 69 25 83c14.667 10.667 38.334 16 71.001 16s56.334 -5.33301 71.001 -16c19.333 -14 29.666 -41.667 30.999 -83
c0.666992 -39.333 -8.33301 -66.333 -27 -81c-13.333 -10 -36.333 -15 -69 -15c-34 0 -58 5 -72 15z" />
    <glyph glyph-name="uni1EC8" unicode="&#x1ec8;" horiz-adv-x="641" 
d="M232 1310l-0.998047 27.999c0 6.66699 0.666992 12.334 2 17.001c4.66699 25.333 23 38 55 38h57c41.333 0 60.666 -32.333 57.999 -97l-4 -424l4 -763l2 -27c0 -4 0.333008 -7 1 -9c1.33301 -15.333 1 -27.333 -1 -36c-4.66699 -24.667 -23.334 -37 -56.001 -37h-55
c-41.333 0 -60.333 32.667 -57 98zM221.002 1654c-15.333 -12.667 -36.0049 -10.333 -62.0049 7c-17.333 9.33301 -30.666 24.333 -39.999 45c0.666992 34 22.667 68.667 66 104c38 23.333 80.667 35 128 35c50.667 0 96 -14.167 136 -42.5s60 -66.833 60 -115.5
c0 -47.333 -22.333 -84.666 -67 -111.999c-14.667 -9.33301 -30 -18.333 -46 -27s-24 -18.334 -24 -29.001c-3.33301 -14 -21 -21.167 -53 -21.5s-54 6.83398 -66 21.501c-5.33301 24 -1.66602 45 11.001 63c11.333 24 32.833 42.167 64.5 54.5s47.834 27.166 48.501 44.499
c0 15.333 -7 26.333 -21 33s-30.333 10 -49 10c-21.333 0 -39.666 -7.16699 -54.999 -21.5s-25.666 -30.5 -30.999 -48.5z" />
    <glyph glyph-name="uni1EC9" unicode="&#x1ec9;" horiz-adv-x="595" 
d="M217 307c0.666992 55.333 1.33008 120.999 1.99707 196.999l-1 565c0 12.667 1.66699 22.334 5 29.001c8 18.667 29.667 28 65 28c66.667 0 98.334 -24.333 95.001 -73c-2.66699 -62.667 -4.66699 -133 -6 -211v-672c0 -32.667 0.333008 -54.667 1 -66
c4.66699 -69.333 -13.666 -104 -54.999 -104h-49c-43.333 0 -63.666 32.667 -60.999 98c2.66699 52 4 121.667 4 209zM206.996 1391c-15.333 -12.667 -36.0049 -10.333 -62.0049 7c-17.333 9.33301 -30.666 24.333 -39.999 45c0.666992 34 22.667 68.667 66 104
c38 23.333 80.667 35 128 35c50.667 0 96 -14.167 136 -42.5s60 -66.833 60 -115.5c0 -47.333 -22.333 -84.666 -67 -111.999c-14.667 -9.33301 -30 -18.333 -46 -27s-24 -18.334 -24 -29.001c-3.33301 -14 -21 -21.167 -53 -21.5s-54 6.83398 -66 21.501
c-5.33301 24 -1.66602 45 11.001 63c11.333 24 32.833 42.167 64.5 54.5s47.834 27.166 48.501 44.499c0 15.333 -7 26.333 -21 33s-30.333 10 -49 10c-21.333 0 -39.666 -7.16699 -54.999 -21.5s-25.666 -30.5 -30.999 -48.5z" />
    <glyph glyph-name="uni1ECA" unicode="&#x1eca;" horiz-adv-x="641" 
d="M232 1310l-0.998047 27.999c0 6.66699 0.666992 12.334 2 17.001c4.66699 25.333 23 38 55 38h57c41.333 0 60.666 -32.333 57.999 -97l-4 -424l4 -763l2 -27c0 -4 0.333008 -7 1 -9c1.33301 -15.333 1 -27.333 -1 -36c-4.66699 -24.667 -23.334 -37 -56.001 -37h-55
c-41.333 0 -60.333 32.667 -57 98zM255.002 -334.001c-18.667 14.667 -28.668 41.667 -30.001 81c-2 41.333 6.33301 69 25 83c14.667 10.667 38.334 16 71.001 16s56.334 -5.33301 71.001 -16c19.333 -14 29.666 -41.667 30.999 -83
c0.666992 -39.333 -8.33301 -66.333 -27 -81c-13.333 -10 -36.333 -15 -69 -15c-34 0 -58 5 -72 15z" />
    <glyph glyph-name="uni1ECB" unicode="&#x1ecb;" horiz-adv-x="595" 
d="M202 1397c-1.33301 73.333 31.667 110.001 99 110.001c34 0 58.667 -6 74 -18c20.667 -16.667 31.334 -47.334 32.001 -92.001c1.33301 -44 -7.66699 -74 -27 -90c-14.667 -11.333 -38.334 -17 -71.001 -17c-69.333 0 -105 35.667 -107 107zM217 307.001
c0.666992 55.333 1.33008 120.999 1.99707 196.999l-1 565c0 12.667 1.66699 22.334 5 29.001c8 18.667 29.667 28 65 28c66.667 0 98.334 -24.333 95.001 -73c-2.66699 -62.667 -4.66699 -133 -6 -211v-672c0 -32.667 0.333008 -54.667 1 -66
c4.66699 -69.333 -13.666 -104 -54.999 -104h-49c-43.333 0 -63.666 32.667 -60.999 98c2.66699 52 4 121.667 4 209zM223.996 -334c-18.667 14.667 -28.668 41.667 -30.001 81c-2 41.333 6.33301 69 25 83c14.667 10.667 38.334 16 71.001 16s56.334 -5.33301 71.001 -16
c19.333 -14 29.666 -41.667 30.999 -83c0.666992 -39.333 -8.33301 -66.333 -27 -81c-13.333 -10 -36.333 -15 -69 -15c-34 0 -58 5 -72 15z" />
    <glyph glyph-name="uni1ECC" unicode="&#x1ecc;" horiz-adv-x="1513" 
d="M293 1206c112 138 269.332 207 471.999 207c190.667 0 341.334 -68.667 452.001 -206c104.667 -130.667 157.667 -301 159 -511c2 -210.667 -50.667 -381.334 -158 -512.001c-112 -136 -265 -204 -459 -204c-205.333 0 -362 68 -470 204
c-99.333 124.667 -149.333 295.334 -150 512.001c-1.33301 211.333 50 381.333 154 510zM409.999 296c78 -115.333 195 -172.999 351 -172.999c149.333 0 263 58.333 341 175c69.333 102.667 104 236 104 400c0 167.333 -34.333 301 -103 401
c-77.333 114 -191.333 171 -342 171c-154.667 0 -271 -57 -349 -171c-67.333 -98.667 -101 -232.334 -101 -401.001c-1.33301 -168 31.667 -302 99 -402zM688.999 -333.999c-18.667 14.667 -28.668 41.667 -30.001 81c-2 41.333 6.33301 69 25 83
c14.667 10.667 38.334 16 71.001 16s56.334 -5.33301 71.001 -16c19.333 -14 29.666 -41.667 30.999 -83c0.666992 -39.333 -8.33301 -66.333 -27 -81c-13.333 -10 -36.333 -15 -69 -15c-34 0 -58 5 -72 15z" />
    <glyph glyph-name="uni1ECD" unicode="&#x1ecd;" horiz-adv-x="1243" 
d="M250 978c88.667 112.667 212.335 169 371.002 169c160 0 285.667 -55.667 377 -167c85.333 -105.333 127 -241.666 125 -408.999c-2.66699 -176 -45.334 -317 -128.001 -423c-88.667 -114 -212.667 -171 -372 -171c-162 0 -287.667 56.333 -377 169
c-84 106 -125 247 -123 423c3.33301 169.333 45.666 305.666 126.999 408.999zM887.001 250c48 77.333 71.999 183.667 71.999 319c0 130 -26 233.667 -78 311c-58 88 -144 132 -258 132c-120.667 0 -209 -44 -265 -132c-46 -74 -69 -177.667 -69 -311
c0 -136 23 -242.333 69 -319c55.333 -91.333 143 -137 263 -137c120.667 0 209.334 45.667 266.001 137zM554 -333.999c-18.667 14.667 -28.668 41.667 -30.001 81c-2 41.333 6.33301 69 25 83c14.667 10.667 38.334 16 71.001 16s56.334 -5.33301 71.001 -16
c19.333 -14 29.666 -41.667 30.999 -83c0.666992 -39.333 -8.33301 -66.333 -27 -81c-13.333 -10 -36.333 -15 -69 -15c-34 0 -58 5 -72 15z" />
    </font>
</defs>
</svg>
